<svg width="46" height="45" viewBox="0 0 46 45" fill="none" xmlns="http://www.w3.org/2000/svg">
<ellipse cx="23" cy="22.5" rx="23" ry="22.5" fill="black"/>
<path d="M23.7147 12.2027C23.7147 12.2027 23.1218 12.2231 21.936 12.264L20.8933 20.36H22.2427C25.0231 20.36 26.6178 18.9289 27.0267 16.0667C27.1084 14.84 26.9449 13.8996 26.536 13.2453C26.1271 12.5502 25.1867 12.2027 23.7147 12.2027ZM19.176 31.952L20.5253 32.0133C22.2018 32.0133 23.4898 31.7067 24.3893 31.0933C25.2889 30.48 25.8613 29.3351 26.1067 27.6587C26.4747 25.0827 25.1253 23.7947 22.0587 23.7947H21.2C20.9138 23.7947 20.648 23.8151 20.4027 23.856L19.176 31.952ZM16.968 8.15467L24.0827 7.97067C27.4764 7.97067 29.8684 8.50222 31.2587 9.56533C32.6489 10.5876 33.1396 12.4276 32.7307 15.0853C32.4853 16.68 31.9538 18.0293 31.136 19.1333C30.3182 20.1964 29.4596 20.9938 28.56 21.5253C31.2178 22.3022 32.3422 24.4489 31.9333 27.9653C31.4836 30.8276 30.3387 32.9333 28.4987 34.2827C26.6996 35.5911 24.0009 36.2453 20.4027 36.2453C18.8898 36.2453 17.4587 36.2044 16.1093 36.1227C14.8009 36.0409 13.7787 36 13.0427 36L16.968 8.15467Z" fill="white"/>
</svg>
