<svg xmlns="http://www.w3.org/2000/svg" xmlns:xlink="http://www.w3.org/1999/xlink" width="500" zoomAndPan="magnify" viewBox="0 0 375 374.999991" height="500" preserveAspectRatio="xMidYMid meet" version="1.0"><defs><g/><clipPath id="f85827e825"><path d="M 88.488281 96.757812 L 238 96.757812 L 238 278.257812 L 88.488281 278.257812 Z M 88.488281 96.757812 " clip-rule="nonzero"/></clipPath><clipPath id="8bd1de72a4"><path d="M 150 115 L 269.238281 115 L 269.238281 260 L 150 260 Z M 150 115 " clip-rule="nonzero"/></clipPath><clipPath id="0b98fd1a65"><path d="M 81.003906 165.042969 L 277.007812 165.042969 L 277.007812 218.945312 L 81.003906 218.945312 Z M 81.003906 165.042969 " clip-rule="nonzero"/></clipPath></defs><rect x="-37.5" width="450" fill="#ffffff" y="-37.499999" height="449.999989" fill-opacity="1"/><rect x="-37.5" width="450" fill="#ffffff" y="-37.499999" height="449.999989" fill-opacity="1"/><g clip-path="url(#f85827e825)"><path fill="#07689f" d="M 197.859375 267.53125 C 153.652344 267.53125 117.820312 231.699219 117.820312 187.496094 C 117.820312 143.289062 153.652344 107.457031 197.859375 107.457031 C 212.203125 107.457031 225.652344 111.246094 237.296875 117.855469 C 221.554688 104.707031 201.296875 96.785156 179.183594 96.785156 C 129.085938 96.785156 88.472656 137.398438 88.472656 187.496094 C 88.472656 237.589844 129.085938 278.203125 179.183594 278.203125 C 201.296875 278.203125 221.554688 270.28125 237.296875 257.132812 C 225.652344 263.742188 212.203125 267.53125 197.859375 267.53125 " fill-opacity="1" fill-rule="nonzero"/></g><g clip-path="url(#8bd1de72a4)"><path fill="#4f4c4c" d="M 182.128906 251.414062 C 217.429688 251.414062 246.050781 222.792969 246.050781 187.496094 C 246.050781 152.195312 217.429688 123.574219 182.128906 123.574219 C 170.675781 123.574219 159.933594 126.605469 150.636719 131.882812 C 163.207031 121.378906 179.382812 115.054688 197.046875 115.054688 C 237.054688 115.054688 269.484375 147.484375 269.484375 187.496094 C 269.484375 227.503906 237.054688 259.933594 197.046875 259.933594 C 179.382812 259.933594 163.207031 253.609375 150.636719 243.109375 C 159.933594 248.382812 170.675781 251.414062 182.128906 251.414062 " fill-opacity="1" fill-rule="nonzero"/></g><g clip-path="url(#0b98fd1a65)"><path fill="#ffffff" d="M 81.003906 165.042969 L 277.03125 165.042969 L 277.03125 218.945312 L 81.003906 218.945312 Z M 81.003906 165.042969 " fill-opacity="1" fill-rule="nonzero"/></g><g fill="#07689f" fill-opacity="1"><g transform="translate(41.057477, 204.243448)"><g><path d="M 12.984375 0 L 1.53125 0 L 1.53125 -0.359375 L 2 -0.359375 C 2.863281 -0.359375 3.523438 -0.734375 3.984375 -1.484375 C 4.179688 -1.828125 4.289062 -2.203125 4.3125 -2.609375 L 4.3125 -22.78125 C 4.289062 -23.414062 4.054688 -23.945312 3.609375 -24.375 C 3.160156 -24.8125 2.625 -25.03125 2 -25.03125 L 1.53125 -25.03125 L 1.53125 -25.390625 L 12.046875 -25.390625 C 14.847656 -25.390625 17.078125 -24.878906 18.734375 -23.859375 C 20.390625 -22.847656 21.234375 -21.289062 21.265625 -19.1875 C 21.234375 -18.125 21.003906 -17.195312 20.578125 -16.40625 C 19.773438 -14.90625 18.515625 -14.046875 16.796875 -13.828125 C 18.660156 -13.648438 20.195312 -12.953125 21.40625 -11.734375 C 22.613281 -10.515625 23.21875 -8.960938 23.21875 -7.078125 C 23.21875 -4.804688 22.300781 -3.054688 20.46875 -1.828125 C 18.644531 -0.609375 16.148438 0 12.984375 0 Z M 15.453125 -18.71875 C 15.429688 -22.132812 13.882812 -23.84375 10.8125 -23.84375 L 9.765625 -23.84375 L 9.765625 -1.671875 L 11.421875 -1.671875 C 11.453125 -1.671875 11.476562 -1.671875 11.5 -1.671875 C 13.164062 -1.671875 14.492188 -2.15625 15.484375 -3.125 C 16.484375 -4.09375 16.984375 -5.566406 16.984375 -7.546875 C 16.984375 -9.523438 16.425781 -11 15.3125 -11.96875 C 14.195312 -12.9375 12.757812 -13.421875 11 -13.421875 L 11 -13.75 C 12.25 -13.75 13.296875 -14.15625 14.140625 -14.96875 C 14.992188 -15.78125 15.429688 -17.03125 15.453125 -18.71875 Z M 15.453125 -18.71875 "/></g></g></g><g fill="#07689f" fill-opacity="1"><g transform="translate(65.512562, 204.243448)"><g><path d="M 26.65625 -25.03125 L 26.15625 -25.03125 C 25.425781 -25.03125 24.734375 -24.820312 24.078125 -24.40625 C 23.429688 -24 22.914062 -23.507812 22.53125 -22.9375 L 15.375 -11.53125 L 15.375 -2.65625 C 15.375 -2.019531 15.601562 -1.476562 16.0625 -1.03125 C 16.519531 -0.582031 17.066406 -0.359375 17.703125 -0.359375 L 18.140625 -0.359375 L 18.171875 0 L 7.140625 0 L 7.140625 -0.359375 L 7.609375 -0.359375 C 8.242188 -0.359375 8.785156 -0.578125 9.234375 -1.015625 C 9.679688 -1.453125 9.914062 -1.984375 9.9375 -2.609375 L 9.9375 -11.578125 L 3 -22.96875 C 2.644531 -23.550781 2.132812 -24.039062 1.46875 -24.4375 C 0.800781 -24.832031 0.117188 -25.03125 -0.578125 -25.03125 L -1.09375 -25.03125 L -1.09375 -25.390625 L 10.921875 -25.390625 L 10.921875 -25.03125 L 10.4375 -25.03125 C 9.90625 -25.03125 9.492188 -24.789062 9.203125 -24.3125 C 9.066406 -24.039062 9 -23.773438 9 -23.515625 C 9 -23.265625 9.054688 -23.019531 9.171875 -22.78125 L 14.359375 -13.34375 L 19.765625 -22.78125 C 19.890625 -23.019531 19.953125 -23.265625 19.953125 -23.515625 C 19.953125 -23.773438 19.867188 -24.023438 19.703125 -24.265625 C 19.410156 -24.773438 19 -25.03125 18.46875 -25.03125 L 18.03125 -25.03125 L 18.03125 -25.390625 L 26.65625 -25.390625 Z M 26.65625 -25.03125 "/></g></g></g><g fill="#07689f" fill-opacity="1"><g transform="translate(90.983588, 204.243448)"><g><path d="M 14.84375 -23.90625 L 14.84375 -2.609375 C 14.863281 -1.984375 15.097656 -1.453125 15.546875 -1.015625 C 15.992188 -0.578125 16.53125 -0.359375 17.15625 -0.359375 L 17.59375 -0.359375 L 17.625 0 L 6.609375 0 L 6.609375 -0.359375 L 7.078125 -0.359375 C 7.679688 -0.359375 8.207031 -0.578125 8.65625 -1.015625 C 9.101562 -1.453125 9.347656 -1.972656 9.390625 -2.578125 L 9.390625 -23.90625 L 4.5 -23.90625 C 3.382812 -23.882812 2.5 -23.535156 1.84375 -22.859375 C 1.195312 -22.179688 0.875 -21.296875 0.875 -20.203125 L 0.875 -19.765625 L 0.515625 -19.765625 L 0.515625 -26.09375 C 1.503906 -25.675781 2.929688 -25.457031 4.796875 -25.4375 L 19.40625 -25.4375 C 20.15625 -25.4375 20.972656 -25.507812 21.859375 -25.65625 C 22.742188 -25.800781 23.351562 -25.945312 23.6875 -26.09375 L 23.6875 -19.765625 L 23.328125 -19.765625 L 23.328125 -20.203125 C 23.328125 -21.703125 22.757812 -22.769531 21.625 -23.40625 C 21.09375 -23.71875 20.453125 -23.882812 19.703125 -23.90625 Z M 14.84375 -23.90625 "/></g></g></g><g fill="#07689f" fill-opacity="1"><g transform="translate(115.14841, 204.243448)"><g><path d="M 2 -0.359375 C 2.625 -0.359375 3.160156 -0.582031 3.609375 -1.03125 C 4.054688 -1.476562 4.289062 -2.019531 4.3125 -2.65625 L 4.3125 -22.859375 C 4.269531 -23.484375 4.085938 -23.941406 3.765625 -24.234375 C 3.191406 -24.765625 2.601562 -25.03125 2 -25.03125 L 1.53125 -25.03125 L 1.53125 -25.390625 L 15.421875 -25.390625 C 16.609375 -25.390625 17.585938 -25.476562 18.359375 -25.65625 C 19.128906 -25.84375 19.597656 -25.972656 19.765625 -26.046875 L 19.765625 -19.703125 L 19.40625 -19.734375 L 19.40625 -20.140625 C 19.40625 -21.640625 18.847656 -22.703125 17.734375 -23.328125 C 17.203125 -23.640625 16.578125 -23.8125 15.859375 -23.84375 L 9.765625 -23.84375 L 9.765625 -13.28125 L 14.546875 -13.28125 C 15.441406 -13.300781 16.175781 -13.609375 16.75 -14.203125 C 17.332031 -14.796875 17.625 -15.53125 17.625 -16.40625 L 17.625 -16.71875 L 18 -16.71875 L 18 -8.34375 L 17.625 -8.34375 L 17.625 -8.640625 C 17.625 -9.535156 17.335938 -10.269531 16.765625 -10.84375 C 16.203125 -11.425781 15.488281 -11.726562 14.625 -11.75 L 9.765625 -11.75 L 9.765625 -1.5625 L 14.515625 -1.5625 C 16.273438 -1.5625 17.753906 -2.066406 18.953125 -3.078125 C 20.148438 -4.097656 21.039062 -5.539062 21.625 -7.40625 L 21.984375 -7.40625 L 20.3125 0 L 1.53125 0 L 1.53125 -0.359375 Z M 2 -0.359375 "/></g></g></g><g fill="#07689f" fill-opacity="1"><g transform="translate(138.043305, 204.243448)"><g/></g></g><g fill="#07689f" fill-opacity="1"><g transform="translate(147.114178, 204.243448)"><g><path d="M 12.984375 0 L 1.53125 0 L 1.53125 -0.359375 L 2 -0.359375 C 2.863281 -0.359375 3.523438 -0.734375 3.984375 -1.484375 C 4.179688 -1.828125 4.289062 -2.203125 4.3125 -2.609375 L 4.3125 -22.78125 C 4.289062 -23.414062 4.054688 -23.945312 3.609375 -24.375 C 3.160156 -24.8125 2.625 -25.03125 2 -25.03125 L 1.53125 -25.03125 L 1.53125 -25.390625 L 12.046875 -25.390625 C 14.847656 -25.390625 17.078125 -24.878906 18.734375 -23.859375 C 20.390625 -22.847656 21.234375 -21.289062 21.265625 -19.1875 C 21.234375 -18.125 21.003906 -17.195312 20.578125 -16.40625 C 19.773438 -14.90625 18.515625 -14.046875 16.796875 -13.828125 C 18.660156 -13.648438 20.195312 -12.953125 21.40625 -11.734375 C 22.613281 -10.515625 23.21875 -8.960938 23.21875 -7.078125 C 23.21875 -4.804688 22.300781 -3.054688 20.46875 -1.828125 C 18.644531 -0.609375 16.148438 0 12.984375 0 Z M 15.453125 -18.71875 C 15.429688 -22.132812 13.882812 -23.84375 10.8125 -23.84375 L 9.765625 -23.84375 L 9.765625 -1.671875 L 11.421875 -1.671875 C 11.453125 -1.671875 11.476562 -1.671875 11.5 -1.671875 C 13.164062 -1.671875 14.492188 -2.15625 15.484375 -3.125 C 16.484375 -4.09375 16.984375 -5.566406 16.984375 -7.546875 C 16.984375 -9.523438 16.425781 -11 15.3125 -11.96875 C 14.195312 -12.9375 12.757812 -13.421875 11 -13.421875 L 11 -13.75 C 12.25 -13.75 13.296875 -14.15625 14.140625 -14.96875 C 14.992188 -15.78125 15.429688 -17.03125 15.453125 -18.71875 Z M 15.453125 -18.71875 "/></g></g></g><g fill="#07689f" fill-opacity="1"><g transform="translate(171.569262, 204.243448)"><g><path d="M 11.53125 -23.796875 L 9.984375 -23.796875 C 9.929688 -23.796875 9.894531 -23.796875 9.875 -23.796875 L 9.875 -2.65625 C 9.894531 -2.019531 10.128906 -1.476562 10.578125 -1.03125 C 11.023438 -0.582031 11.5625 -0.359375 12.1875 -0.359375 L 12.65625 -0.359375 L 12.65625 0 L 1.625 0 L 1.625 -0.359375 L 2.109375 -0.359375 C 2.972656 -0.359375 3.632812 -0.734375 4.09375 -1.484375 C 4.289062 -1.828125 4.398438 -2.203125 4.421875 -2.609375 L 4.421875 -22.75 C 4.398438 -23.375 4.164062 -23.910156 3.71875 -24.359375 C 3.269531 -24.804688 2.734375 -25.03125 2.109375 -25.03125 L 1.625 -25.03125 L 1.625 -25.390625 L 14.078125 -25.390625 C 16.421875 -25.390625 18.40625 -24.882812 20.03125 -23.875 C 20.851562 -23.363281 21.503906 -22.65625 21.984375 -21.75 C 22.472656 -20.84375 22.71875 -19.65625 22.71875 -18.1875 C 22.71875 -16.726562 22.207031 -15.320312 21.1875 -13.96875 C 20.175781 -12.613281 18.703125 -11.835938 16.765625 -11.640625 C 18.160156 -11.179688 19.394531 -10.117188 20.46875 -8.453125 C 23.070312 -4.265625 25.003906 -1.773438 26.265625 -0.984375 C 26.898438 -0.597656 27.6875 -0.390625 28.625 -0.359375 L 28.625 0 L 25.078125 0 C 22.960938 0 21.207031 -0.273438 19.8125 -0.828125 C 18.425781 -1.390625 17.335938 -2.367188 16.546875 -3.765625 C 16.085938 -4.566406 15.082031 -6.640625 13.53125 -9.984375 C 12.851562 -11.453125 12.03125 -12.257812 11.0625 -12.40625 L 11.0625 -12.765625 L 12.1875 -12.765625 C 13.28125 -12.765625 14.242188 -13.09375 15.078125 -13.75 C 15.910156 -14.40625 16.472656 -15.46875 16.765625 -16.9375 C 16.859375 -17.445312 16.90625 -17.847656 16.90625 -18.140625 C 16.90625 -20.117188 16.503906 -21.550781 15.703125 -22.4375 C 14.910156 -23.320312 13.882812 -23.773438 12.625 -23.796875 C 12.382812 -23.796875 12.019531 -23.796875 11.53125 -23.796875 Z M 11.53125 -23.796875 "/></g></g></g><g fill="#07689f" fill-opacity="1"><g transform="translate(198.673047, 204.243448)"><g><path d="M 2 -0.359375 C 2.625 -0.359375 3.160156 -0.582031 3.609375 -1.03125 C 4.054688 -1.476562 4.289062 -2.019531 4.3125 -2.65625 L 4.3125 -22.78125 C 4.289062 -23.414062 4.054688 -23.945312 3.609375 -24.375 C 3.160156 -24.8125 2.625 -25.03125 2 -25.03125 L 1.53125 -25.03125 L 1.53125 -25.390625 L 12.546875 -25.390625 L 12.515625 -25.03125 L 12.078125 -25.03125 C 11.453125 -25.03125 10.910156 -24.8125 10.453125 -24.375 C 9.992188 -23.945312 9.765625 -23.414062 9.765625 -22.78125 L 9.765625 -2.65625 C 9.765625 -2.019531 9.992188 -1.476562 10.453125 -1.03125 C 10.910156 -0.582031 11.453125 -0.359375 12.078125 -0.359375 L 12.515625 -0.359375 L 12.546875 0 L 1.53125 0 L 1.53125 -0.359375 Z M 2 -0.359375 "/></g></g></g><g fill="#07689f" fill-opacity="1"><g transform="translate(212.678486, 204.243448)"><g><path d="M 14.6875 -25.390625 C 18.96875 -25.390625 22.351562 -24.253906 24.84375 -21.984375 C 27.34375 -19.710938 28.59375 -16.617188 28.59375 -12.703125 C 28.59375 -8.785156 27.34375 -5.6875 24.84375 -3.40625 C 22.351562 -1.132812 18.96875 0 14.6875 0 L 1.53125 0 L 1.53125 -0.359375 L 2 -0.359375 C 2.625 -0.359375 3.160156 -0.582031 3.609375 -1.03125 C 4.054688 -1.476562 4.289062 -2.019531 4.3125 -2.65625 L 4.3125 -22.96875 C 4.3125 -23.550781 4.078125 -24.039062 3.609375 -24.4375 C 3.140625 -24.832031 2.601562 -25.03125 2 -25.03125 L 1.53125 -25.03125 L 1.53125 -25.390625 Z M 14.21875 -1.5625 C 15.957031 -1.5625 17.460938 -2.007812 18.734375 -2.90625 C 20.003906 -3.800781 20.976562 -5.085938 21.65625 -6.765625 C 22.332031 -8.441406 22.671875 -10.269531 22.671875 -12.25 C 22.671875 -14.238281 22.472656 -15.925781 22.078125 -17.3125 C 21.679688 -18.707031 21.117188 -19.890625 20.390625 -20.859375 C 18.890625 -22.867188 16.832031 -23.875 14.21875 -23.875 L 9.765625 -23.875 L 9.765625 -1.5625 Z M 14.21875 -1.5625 "/></g></g></g><g fill="#07689f" fill-opacity="1"><g transform="translate(242.721232, 204.243448)"><g><path d="M 15.34375 0.515625 C 11.207031 0.515625 7.882812 -0.675781 5.375 -3.0625 C 2.875 -5.445312 1.625 -8.664062 1.625 -12.71875 C 1.625 -16.769531 2.875 -19.976562 5.375 -22.34375 C 7.882812 -24.71875 11.28125 -25.90625 15.5625 -25.90625 C 17.5 -25.90625 19.375 -25.71875 21.1875 -25.34375 C 23 -24.96875 24.460938 -24.503906 25.578125 -23.953125 L 25.65625 -17.703125 L 25.328125 -17.703125 C 24.691406 -20.046875 23.613281 -21.742188 22.09375 -22.796875 C 20.570312 -23.847656 18.757812 -24.375 16.65625 -24.375 C 13.726562 -24.375 11.476562 -23.328125 9.90625 -21.234375 C 8.332031 -19.148438 7.546875 -16.285156 7.546875 -12.640625 C 7.546875 -9.003906 8.265625 -6.15625 9.703125 -4.09375 C 11.140625 -2.039062 13.175781 -1.015625 15.8125 -1.015625 C 17.726562 -1.015625 19.328125 -1.5625 20.609375 -2.65625 C 21.234375 -3.207031 21.691406 -3.859375 21.984375 -4.609375 L 21.984375 -10.15625 C 21.984375 -10.6875 21.816406 -11.09375 21.484375 -11.375 C 21.160156 -11.65625 20.695312 -11.796875 20.09375 -11.796875 L 19.515625 -11.796875 L 19.515625 -12.15625 L 29.71875 -12.15625 L 29.71875 -11.796875 L 29.171875 -11.796875 C 28.585938 -11.796875 28.140625 -11.65625 27.828125 -11.375 C 27.515625 -11.09375 27.359375 -10.6875 27.359375 -10.15625 L 27.359375 -4.171875 C 26.410156 -2.941406 24.847656 -1.851562 22.671875 -0.90625 C 20.492188 0.0390625 18.050781 0.515625 15.34375 0.515625 Z M 15.34375 0.515625 "/></g></g></g><g fill="#07689f" fill-opacity="1"><g transform="translate(273.054256, 204.243448)"><g><path d="M 2 -0.359375 C 2.625 -0.359375 3.160156 -0.582031 3.609375 -1.03125 C 4.054688 -1.476562 4.289062 -2.019531 4.3125 -2.65625 L 4.3125 -22.859375 C 4.269531 -23.484375 4.085938 -23.941406 3.765625 -24.234375 C 3.191406 -24.765625 2.601562 -25.03125 2 -25.03125 L 1.53125 -25.03125 L 1.53125 -25.390625 L 15.421875 -25.390625 C 16.609375 -25.390625 17.585938 -25.476562 18.359375 -25.65625 C 19.128906 -25.84375 19.597656 -25.972656 19.765625 -26.046875 L 19.765625 -19.703125 L 19.40625 -19.734375 L 19.40625 -20.140625 C 19.40625 -21.640625 18.847656 -22.703125 17.734375 -23.328125 C 17.203125 -23.640625 16.578125 -23.8125 15.859375 -23.84375 L 9.765625 -23.84375 L 9.765625 -13.28125 L 14.546875 -13.28125 C 15.441406 -13.300781 16.175781 -13.609375 16.75 -14.203125 C 17.332031 -14.796875 17.625 -15.53125 17.625 -16.40625 L 17.625 -16.71875 L 18 -16.71875 L 18 -8.34375 L 17.625 -8.34375 L 17.625 -8.640625 C 17.625 -9.535156 17.335938 -10.269531 16.765625 -10.84375 C 16.203125 -11.425781 15.488281 -11.726562 14.625 -11.75 L 9.765625 -11.75 L 9.765625 -1.5625 L 14.515625 -1.5625 C 16.273438 -1.5625 17.753906 -2.066406 18.953125 -3.078125 C 20.148438 -4.097656 21.039062 -5.539062 21.625 -7.40625 L 21.984375 -7.40625 L 20.3125 0 L 1.53125 0 L 1.53125 -0.359375 Z M 2 -0.359375 "/></g></g></g><g fill="#07689f" fill-opacity="1"><g transform="translate(295.949151, 204.243448)"><g><path d="M 1.8125 -3.375 C 1.8125 -5.113281 2.1875 -6.601562 2.9375 -7.84375 L 3.265625 -7.84375 C 3.242188 -7.644531 3.234375 -7.445312 3.234375 -7.25 C 3.234375 -5.582031 3.832031 -4.125 5.03125 -2.875 C 6.226562 -1.632812 7.863281 -1.015625 9.9375 -1.015625 C 11.5625 -1.015625 12.828125 -1.398438 13.734375 -2.171875 C 14.640625 -2.953125 15.09375 -3.929688 15.09375 -5.109375 C 15.09375 -5.816406 14.867188 -6.445312 14.421875 -7 C 13.972656 -7.5625 13.226562 -8.179688 12.1875 -8.859375 L 5.875 -13.03125 C 3.53125 -14.601562 2.359375 -16.535156 2.359375 -18.828125 C 2.359375 -19.066406 2.382812 -19.3125 2.4375 -19.5625 C 2.582031 -21.46875 3.320312 -23 4.65625 -24.15625 C 6 -25.320312 7.796875 -25.90625 10.046875 -25.90625 C 11.378906 -25.90625 13.023438 -25.785156 14.984375 -25.546875 L 17.265625 -25.546875 L 16.796875 -20.203125 L 16.4375 -20.203125 C 16.4375 -21.460938 15.96875 -22.472656 15.03125 -23.234375 C 14.101562 -23.992188 12.863281 -24.375 11.3125 -24.375 C 9.425781 -24.375 8.0625 -23.796875 7.21875 -22.640625 C 6.78125 -22.085938 6.5625 -21.53125 6.5625 -20.96875 C 6.5625 -20.414062 6.671875 -19.945312 6.890625 -19.5625 C 7.234375 -18.925781 7.972656 -18.25 9.109375 -17.53125 L 16.03125 -13.03125 C 18.207031 -11.601562 19.296875 -9.738281 19.296875 -7.4375 C 19.296875 -4.875 18.421875 -2.90625 16.671875 -1.53125 C 14.921875 -0.164062 12.59375 0.515625 9.6875 0.515625 C 8.039062 0.515625 6.519531 0.316406 5.125 -0.078125 C 3.738281 -0.484375 2.71875 -1.023438 2.0625 -1.703125 C 1.894531 -2.160156 1.8125 -2.71875 1.8125 -3.375 Z M 1.8125 -3.375 "/></g></g></g><g fill="#4f4c4c" fill-opacity="1"><g transform="translate(127.617072, 223.904709)"><g><path d="M 6.34375 -8.40625 L 6.34375 -7.28125 L 4.09375 -7.28125 L 4.09375 0 L 2.71875 0 L 2.71875 -7.28125 L 0.46875 -7.28125 L 0.46875 -8.40625 Z M 6.34375 -8.40625 "/></g></g></g><g fill="#4f4c4c" fill-opacity="1"><g transform="translate(136.882361, 223.904709)"><g><path d="M 2.28125 -7.296875 L 2.28125 -4.828125 L 5.1875 -4.828125 L 5.1875 -3.703125 L 2.28125 -3.703125 L 2.28125 -1.125 L 5.546875 -1.125 L 5.546875 0 L 0.90625 0 L 0.90625 -8.421875 L 5.546875 -8.421875 L 5.546875 -7.296875 Z M 2.28125 -7.296875 "/></g></g></g><g fill="#4f4c4c" fill-opacity="1"><g transform="translate(145.663883, 223.904709)"><g><path d="M 0.453125 -4.21875 C 0.453125 -5.039062 0.640625 -5.773438 1.015625 -6.421875 C 1.398438 -7.078125 1.921875 -7.585938 2.578125 -7.953125 C 3.234375 -8.328125 3.953125 -8.515625 4.734375 -8.515625 C 5.628906 -8.515625 6.425781 -8.296875 7.125 -7.859375 C 7.820312 -7.421875 8.328125 -6.796875 8.640625 -5.984375 L 6.984375 -5.984375 C 6.765625 -6.429688 6.460938 -6.757812 6.078125 -6.96875 C 5.691406 -7.1875 5.242188 -7.296875 4.734375 -7.296875 C 4.179688 -7.296875 3.6875 -7.171875 3.25 -6.921875 C 2.8125 -6.679688 2.46875 -6.328125 2.21875 -5.859375 C 1.976562 -5.390625 1.859375 -4.84375 1.859375 -4.21875 C 1.859375 -3.601562 1.976562 -3.0625 2.21875 -2.59375 C 2.46875 -2.125 2.8125 -1.757812 3.25 -1.5 C 3.6875 -1.25 4.179688 -1.125 4.734375 -1.125 C 5.242188 -1.125 5.691406 -1.234375 6.078125 -1.453125 C 6.460938 -1.671875 6.765625 -2 6.984375 -2.4375 L 8.640625 -2.4375 C 8.328125 -1.632812 7.820312 -1.015625 7.125 -0.578125 C 6.425781 -0.140625 5.628906 0.078125 4.734375 0.078125 C 3.953125 0.078125 3.234375 -0.101562 2.578125 -0.46875 C 1.921875 -0.84375 1.398438 -1.351562 1.015625 -2 C 0.640625 -2.65625 0.453125 -3.394531 0.453125 -4.21875 Z M 0.453125 -4.21875 "/></g></g></g><g fill="#4f4c4c" fill-opacity="1"><g transform="translate(157.456906, 223.904709)"><g><path d="M 7.625 -8.40625 L 7.625 0 L 6.234375 0 L 6.234375 -3.671875 L 2.28125 -3.671875 L 2.28125 0 L 0.90625 0 L 0.90625 -8.40625 L 2.28125 -8.40625 L 2.28125 -4.796875 L 6.234375 -4.796875 L 6.234375 -8.40625 Z M 7.625 -8.40625 "/></g></g></g><g fill="#4f4c4c" fill-opacity="1"><g transform="translate(168.42751, 223.904709)"><g><path d="M 7.8125 0 L 6.4375 0 L 2.28125 -6.28125 L 2.28125 0 L 0.90625 0 L 0.90625 -8.421875 L 2.28125 -8.421875 L 6.4375 -2.15625 L 6.4375 -8.421875 L 7.8125 -8.421875 Z M 7.8125 0 "/></g></g></g><g fill="#4f4c4c" fill-opacity="1"><g transform="translate(179.591632, 223.904709)"><g><path d="M 4.734375 0.078125 C 3.953125 0.078125 3.234375 -0.101562 2.578125 -0.46875 C 1.921875 -0.832031 1.398438 -1.34375 1.015625 -2 C 0.640625 -2.65625 0.453125 -3.394531 0.453125 -4.21875 C 0.453125 -5.039062 0.640625 -5.773438 1.015625 -6.421875 C 1.398438 -7.078125 1.921875 -7.585938 2.578125 -7.953125 C 3.234375 -8.328125 3.953125 -8.515625 4.734375 -8.515625 C 5.523438 -8.515625 6.25 -8.328125 6.90625 -7.953125 C 7.5625 -7.585938 8.078125 -7.078125 8.453125 -6.421875 C 8.835938 -5.773438 9.03125 -5.039062 9.03125 -4.21875 C 9.03125 -3.394531 8.835938 -2.65625 8.453125 -2 C 8.078125 -1.34375 7.5625 -0.832031 6.90625 -0.46875 C 6.25 -0.101562 5.523438 0.078125 4.734375 0.078125 Z M 4.734375 -1.109375 C 5.296875 -1.109375 5.789062 -1.234375 6.21875 -1.484375 C 6.65625 -1.742188 7 -2.109375 7.25 -2.578125 C 7.5 -3.054688 7.625 -3.601562 7.625 -4.21875 C 7.625 -4.84375 7.5 -5.390625 7.25 -5.859375 C 7 -6.328125 6.65625 -6.679688 6.21875 -6.921875 C 5.789062 -7.171875 5.296875 -7.296875 4.734375 -7.296875 C 4.179688 -7.296875 3.6875 -7.171875 3.25 -6.921875 C 2.8125 -6.679688 2.46875 -6.328125 2.21875 -5.859375 C 1.976562 -5.390625 1.859375 -4.84375 1.859375 -4.21875 C 1.859375 -3.601562 1.976562 -3.054688 2.21875 -2.578125 C 2.46875 -2.109375 2.8125 -1.742188 3.25 -1.484375 C 3.6875 -1.234375 4.179688 -1.109375 4.734375 -1.109375 Z M 4.734375 -1.109375 "/></g></g></g><g fill="#4f4c4c" fill-opacity="1"><g transform="translate(191.51771, 223.904709)"><g><path d="M 2.28125 -1.109375 L 5.125 -1.109375 L 5.125 0 L 0.90625 0 L 0.90625 -8.40625 L 2.28125 -8.40625 Z M 2.28125 -1.109375 "/></g></g></g><g fill="#4f4c4c" fill-opacity="1"><g transform="translate(199.331672, 223.904709)"><g><path d="M 4.734375 0.078125 C 3.953125 0.078125 3.234375 -0.101562 2.578125 -0.46875 C 1.921875 -0.832031 1.398438 -1.34375 1.015625 -2 C 0.640625 -2.65625 0.453125 -3.394531 0.453125 -4.21875 C 0.453125 -5.039062 0.640625 -5.773438 1.015625 -6.421875 C 1.398438 -7.078125 1.921875 -7.585938 2.578125 -7.953125 C 3.234375 -8.328125 3.953125 -8.515625 4.734375 -8.515625 C 5.523438 -8.515625 6.25 -8.328125 6.90625 -7.953125 C 7.5625 -7.585938 8.078125 -7.078125 8.453125 -6.421875 C 8.835938 -5.773438 9.03125 -5.039062 9.03125 -4.21875 C 9.03125 -3.394531 8.835938 -2.65625 8.453125 -2 C 8.078125 -1.34375 7.5625 -0.832031 6.90625 -0.46875 C 6.25 -0.101562 5.523438 0.078125 4.734375 0.078125 Z M 4.734375 -1.109375 C 5.296875 -1.109375 5.789062 -1.234375 6.21875 -1.484375 C 6.65625 -1.742188 7 -2.109375 7.25 -2.578125 C 7.5 -3.054688 7.625 -3.601562 7.625 -4.21875 C 7.625 -4.84375 7.5 -5.390625 7.25 -5.859375 C 7 -6.328125 6.65625 -6.679688 6.21875 -6.921875 C 5.789062 -7.171875 5.296875 -7.296875 4.734375 -7.296875 C 4.179688 -7.296875 3.6875 -7.171875 3.25 -6.921875 C 2.8125 -6.679688 2.46875 -6.328125 2.21875 -5.859375 C 1.976562 -5.390625 1.859375 -4.84375 1.859375 -4.21875 C 1.859375 -3.601562 1.976562 -3.054688 2.21875 -2.578125 C 2.46875 -2.109375 2.8125 -1.742188 3.25 -1.484375 C 3.6875 -1.234375 4.179688 -1.109375 4.734375 -1.109375 Z M 4.734375 -1.109375 "/></g></g></g><g fill="#4f4c4c" fill-opacity="1"><g transform="translate(211.257749, 223.904709)"><g><path d="M 6.984375 -5.984375 C 6.765625 -6.398438 6.460938 -6.710938 6.078125 -6.921875 C 5.691406 -7.140625 5.242188 -7.25 4.734375 -7.25 C 4.179688 -7.25 3.6875 -7.125 3.25 -6.875 C 2.8125 -6.625 2.46875 -6.269531 2.21875 -5.8125 C 1.976562 -5.351562 1.859375 -4.820312 1.859375 -4.21875 C 1.859375 -3.613281 1.976562 -3.078125 2.21875 -2.609375 C 2.46875 -2.148438 2.8125 -1.796875 3.25 -1.546875 C 3.6875 -1.296875 4.179688 -1.171875 4.734375 -1.171875 C 5.484375 -1.171875 6.09375 -1.378906 6.5625 -1.796875 C 7.03125 -2.222656 7.316406 -2.789062 7.421875 -3.5 L 4.265625 -3.5 L 4.265625 -4.609375 L 8.90625 -4.609375 L 8.90625 -3.53125 C 8.8125 -2.875 8.578125 -2.269531 8.203125 -1.71875 C 7.828125 -1.175781 7.335938 -0.738281 6.734375 -0.40625 C 6.140625 -0.0820312 5.472656 0.078125 4.734375 0.078125 C 3.953125 0.078125 3.234375 -0.101562 2.578125 -0.46875 C 1.921875 -0.84375 1.398438 -1.351562 1.015625 -2 C 0.640625 -2.65625 0.453125 -3.394531 0.453125 -4.21875 C 0.453125 -5.039062 0.640625 -5.773438 1.015625 -6.421875 C 1.398438 -7.078125 1.921875 -7.585938 2.578125 -7.953125 C 3.234375 -8.328125 3.953125 -8.515625 4.734375 -8.515625 C 5.628906 -8.515625 6.425781 -8.296875 7.125 -7.859375 C 7.820312 -7.421875 8.328125 -6.796875 8.640625 -5.984375 Z M 6.984375 -5.984375 "/></g></g></g><g fill="#4f4c4c" fill-opacity="1"><g transform="translate(223.050777, 223.904709)"><g><path d="M 7.140625 -8.40625 L 4.359375 -3.046875 L 4.359375 0 L 2.96875 0 L 2.96875 -3.046875 L 0.1875 -8.40625 L 1.71875 -8.40625 L 3.671875 -4.28125 L 5.609375 -8.40625 Z M 7.140625 -8.40625 "/></g></g></g></svg>