<svg xmlns="http://www.w3.org/2000/svg" xmlns:xlink="http://www.w3.org/1999/xlink" width="300" zoomAndPan="magnify" viewBox="0 0 224.87999 225" height="300" preserveAspectRatio="xMidYMid meet" version="1.0"><defs><g/><clipPath id="f0f426bc2a"><path d="M 0 0.0585938 L 224.761719 0.0585938 L 224.761719 224.9375 L 0 224.9375 Z M 0 0.0585938 " clip-rule="nonzero"/></clipPath><clipPath id="65ebde0135"><path d="M 40.4375 40.316406 L 159 40.316406 L 159 184.988281 L 40.4375 184.988281 Z M 40.4375 40.316406 " clip-rule="nonzero"/></clipPath><clipPath id="02af543d78"><path d="M 89 54 L 184.359375 54 L 184.359375 171 L 89 171 Z M 89 54 " clip-rule="nonzero"/></clipPath><clipPath id="598113401a"><path d="M 34.484375 94.636719 L 190.398438 94.636719 L 190.398438 137.511719 L 34.484375 137.511719 Z M 34.484375 94.636719 " clip-rule="nonzero"/></clipPath></defs><g clip-path="url(#f0f426bc2a)"><path fill="#ffffff" d="M 0 0.0585938 L 224.878906 0.0585938 L 224.878906 224.941406 L 0 224.941406 Z M 0 0.0585938 " fill-opacity="1" fill-rule="nonzero"/><path fill="#ffffff" d="M 0 0.0585938 L 224.878906 0.0585938 L 224.878906 224.941406 L 0 224.941406 Z M 0 0.0585938 " fill-opacity="1" fill-rule="nonzero"/></g><g clip-path="url(#65ebde0135)"><path fill="#07689f" d="M 127.4375 176.164062 C 92.273438 176.164062 63.765625 147.65625 63.765625 112.496094 C 63.765625 77.332031 92.273438 48.824219 127.4375 48.824219 C 138.847656 48.824219 149.546875 51.839844 158.808594 57.097656 C 146.289062 46.640625 130.171875 40.335938 112.582031 40.335938 C 72.730469 40.335938 40.421875 72.644531 40.421875 112.496094 C 40.421875 152.34375 72.730469 184.652344 112.582031 184.652344 C 130.171875 184.652344 146.285156 178.347656 158.808594 167.890625 C 149.546875 173.148438 138.847656 176.164062 127.4375 176.164062 " fill-opacity="1" fill-rule="nonzero"/></g><g clip-path="url(#02af543d78)"><path fill="#4f4c4c" d="M 114.925781 163.339844 C 143.007812 163.339844 165.769531 140.574219 165.769531 112.496094 C 165.769531 84.414062 143.007812 61.648438 114.925781 61.648438 C 105.816406 61.648438 97.269531 64.058594 89.875 68.253906 C 99.871094 59.902344 112.742188 54.871094 126.789062 54.871094 C 158.617188 54.871094 184.414062 80.667969 184.414062 112.496094 C 184.414062 144.320312 158.617188 170.117188 126.789062 170.117188 C 112.742188 170.117188 99.871094 165.085938 89.875 156.734375 C 97.269531 160.929688 105.816406 163.339844 114.925781 163.339844 " fill-opacity="1" fill-rule="nonzero"/></g><g clip-path="url(#598113401a)"><path fill="#ffffff" d="M 34.484375 94.636719 L 190.414062 94.636719 L 190.414062 137.511719 L 34.484375 137.511719 Z M 34.484375 94.636719 " fill-opacity="1" fill-rule="nonzero"/></g><g fill="#07689f" fill-opacity="1"><g transform="translate(2.706165, 125.818888)"><g><path d="M 10.328125 0 L 1.21875 0 L 1.21875 -0.28125 L 1.59375 -0.28125 C 2.28125 -0.28125 2.804688 -0.582031 3.171875 -1.1875 C 3.328125 -1.457031 3.414062 -1.753906 3.4375 -2.078125 L 3.4375 -18.125 C 3.414062 -18.625 3.226562 -19.046875 2.875 -19.390625 C 2.519531 -19.734375 2.09375 -19.90625 1.59375 -19.90625 L 1.21875 -19.90625 L 1.21875 -20.203125 L 9.578125 -20.203125 C 11.804688 -20.203125 13.578125 -19.796875 14.890625 -18.984375 C 16.210938 -18.179688 16.882812 -16.941406 16.90625 -15.265625 C 16.882812 -14.421875 16.703125 -13.679688 16.359375 -13.046875 C 15.722656 -11.847656 14.722656 -11.164062 13.359375 -11 C 14.835938 -10.863281 16.054688 -10.304688 17.015625 -9.328125 C 17.984375 -8.359375 18.46875 -7.125 18.46875 -5.625 C 18.46875 -3.820312 17.738281 -2.429688 16.28125 -1.453125 C 14.832031 -0.484375 12.847656 0 10.328125 0 Z M 12.296875 -14.890625 C 12.273438 -17.597656 11.039062 -18.953125 8.59375 -18.953125 L 7.765625 -18.953125 L 7.765625 -1.328125 L 9.09375 -1.328125 C 9.113281 -1.328125 9.128906 -1.328125 9.140625 -1.328125 C 10.472656 -1.328125 11.53125 -1.710938 12.3125 -2.484375 C 13.101562 -3.253906 13.5 -4.425781 13.5 -6 C 13.5 -7.582031 13.054688 -8.753906 12.171875 -9.515625 C 11.285156 -10.285156 10.144531 -10.671875 8.75 -10.671875 L 8.75 -10.9375 C 9.75 -10.9375 10.582031 -11.257812 11.25 -11.90625 C 11.925781 -12.550781 12.273438 -13.546875 12.296875 -14.890625 Z M 12.296875 -14.890625 "/></g></g></g><g fill="#07689f" fill-opacity="1"><g transform="translate(22.159404, 125.818888)"><g><path d="M 21.21875 -19.90625 L 20.8125 -19.90625 C 20.226562 -19.90625 19.675781 -19.742188 19.15625 -19.421875 C 18.644531 -19.097656 18.234375 -18.703125 17.921875 -18.234375 L 12.234375 -9.171875 L 12.234375 -2.109375 C 12.234375 -1.609375 12.414062 -1.175781 12.78125 -0.8125 C 13.144531 -0.457031 13.578125 -0.28125 14.078125 -0.28125 L 14.4375 -0.28125 L 14.46875 0 L 5.6875 0 L 5.6875 -0.28125 L 6.0625 -0.28125 C 6.5625 -0.28125 6.988281 -0.453125 7.34375 -0.796875 C 7.695312 -1.148438 7.882812 -1.578125 7.90625 -2.078125 L 7.90625 -9.203125 L 2.390625 -18.265625 C 2.109375 -18.722656 1.703125 -19.109375 1.171875 -19.421875 C 0.640625 -19.742188 0.0976562 -19.90625 -0.453125 -19.90625 L -0.859375 -19.90625 L -0.859375 -20.203125 L 8.6875 -20.203125 L 8.6875 -19.90625 L 8.3125 -19.90625 C 7.882812 -19.90625 7.554688 -19.710938 7.328125 -19.328125 C 7.210938 -19.117188 7.15625 -18.910156 7.15625 -18.703125 C 7.15625 -18.503906 7.203125 -18.3125 7.296875 -18.125 L 11.4375 -10.625 L 15.734375 -18.125 C 15.828125 -18.3125 15.875 -18.503906 15.875 -18.703125 C 15.875 -18.910156 15.804688 -19.113281 15.671875 -19.3125 C 15.441406 -19.707031 15.113281 -19.90625 14.6875 -19.90625 L 14.34375 -19.90625 L 14.34375 -20.203125 L 21.21875 -20.203125 Z M 21.21875 -19.90625 "/></g></g></g><g fill="#07689f" fill-opacity="1"><g transform="translate(42.420792, 125.818888)"><g><path d="M 11.796875 -19.015625 L 11.796875 -2.078125 C 11.816406 -1.578125 12.003906 -1.148438 12.359375 -0.796875 C 12.722656 -0.453125 13.15625 -0.28125 13.65625 -0.28125 L 14 -0.28125 L 14.03125 0 L 5.25 0 L 5.25 -0.28125 L 5.625 -0.28125 C 6.101562 -0.28125 6.519531 -0.453125 6.875 -0.796875 C 7.238281 -1.148438 7.4375 -1.566406 7.46875 -2.046875 L 7.46875 -19.015625 L 3.578125 -19.015625 C 2.691406 -18.992188 1.988281 -18.710938 1.46875 -18.171875 C 0.945312 -17.640625 0.6875 -16.941406 0.6875 -16.078125 L 0.6875 -15.734375 L 0.40625 -15.734375 L 0.40625 -20.75 C 1.195312 -20.425781 2.332031 -20.253906 3.8125 -20.234375 L 15.4375 -20.234375 C 16.03125 -20.234375 16.675781 -20.289062 17.375 -20.40625 C 18.082031 -20.519531 18.570312 -20.632812 18.84375 -20.75 L 18.84375 -15.734375 L 18.5625 -15.734375 L 18.5625 -16.078125 C 18.5625 -17.265625 18.109375 -18.109375 17.203125 -18.609375 C 16.773438 -18.859375 16.265625 -18.992188 15.671875 -19.015625 Z M 11.796875 -19.015625 "/></g></g></g><g fill="#07689f" fill-opacity="1"><g transform="translate(61.643137, 125.818888)"><g><path d="M 1.59375 -0.28125 C 2.09375 -0.28125 2.519531 -0.457031 2.875 -0.8125 C 3.226562 -1.175781 3.414062 -1.609375 3.4375 -2.109375 L 3.4375 -18.1875 C 3.394531 -18.6875 3.25 -19.050781 3 -19.28125 C 2.539062 -19.695312 2.070312 -19.90625 1.59375 -19.90625 L 1.21875 -19.90625 L 1.21875 -20.203125 L 12.265625 -20.203125 C 13.203125 -20.203125 13.976562 -20.273438 14.59375 -20.421875 C 15.21875 -20.566406 15.597656 -20.664062 15.734375 -20.71875 L 15.734375 -15.671875 L 15.4375 -15.703125 L 15.4375 -16.015625 C 15.4375 -17.210938 14.992188 -18.0625 14.109375 -18.5625 C 13.691406 -18.8125 13.191406 -18.941406 12.609375 -18.953125 L 7.765625 -18.953125 L 7.765625 -10.5625 L 11.578125 -10.5625 C 12.285156 -10.582031 12.867188 -10.828125 13.328125 -11.296875 C 13.796875 -11.765625 14.03125 -12.347656 14.03125 -13.046875 L 14.03125 -13.296875 L 14.3125 -13.296875 L 14.3125 -6.640625 L 14.03125 -6.640625 L 14.03125 -6.875 C 14.03125 -7.582031 13.800781 -8.164062 13.34375 -8.625 C 12.894531 -9.09375 12.320312 -9.332031 11.625 -9.34375 L 7.765625 -9.34375 L 7.765625 -1.234375 L 11.546875 -1.234375 C 12.953125 -1.234375 14.128906 -1.640625 15.078125 -2.453125 C 16.023438 -3.265625 16.734375 -4.410156 17.203125 -5.890625 L 17.484375 -5.890625 L 16.15625 0 L 1.21875 0 L 1.21875 -0.28125 Z M 1.59375 -0.28125 "/></g></g></g><g fill="#07689f" fill-opacity="1"><g transform="translate(79.855295, 125.818888)"><g/></g></g><g fill="#07689f" fill-opacity="1"><g transform="translate(87.070885, 125.818888)"><g><path d="M 10.328125 0 L 1.21875 0 L 1.21875 -0.28125 L 1.59375 -0.28125 C 2.28125 -0.28125 2.804688 -0.582031 3.171875 -1.1875 C 3.328125 -1.457031 3.414062 -1.753906 3.4375 -2.078125 L 3.4375 -18.125 C 3.414062 -18.625 3.226562 -19.046875 2.875 -19.390625 C 2.519531 -19.734375 2.09375 -19.90625 1.59375 -19.90625 L 1.21875 -19.90625 L 1.21875 -20.203125 L 9.578125 -20.203125 C 11.804688 -20.203125 13.578125 -19.796875 14.890625 -18.984375 C 16.210938 -18.179688 16.882812 -16.941406 16.90625 -15.265625 C 16.882812 -14.421875 16.703125 -13.679688 16.359375 -13.046875 C 15.722656 -11.847656 14.722656 -11.164062 13.359375 -11 C 14.835938 -10.863281 16.054688 -10.304688 17.015625 -9.328125 C 17.984375 -8.359375 18.46875 -7.125 18.46875 -5.625 C 18.46875 -3.820312 17.738281 -2.429688 16.28125 -1.453125 C 14.832031 -0.484375 12.847656 0 10.328125 0 Z M 12.296875 -14.890625 C 12.273438 -17.597656 11.039062 -18.953125 8.59375 -18.953125 L 7.765625 -18.953125 L 7.765625 -1.328125 L 9.09375 -1.328125 C 9.113281 -1.328125 9.128906 -1.328125 9.140625 -1.328125 C 10.472656 -1.328125 11.53125 -1.710938 12.3125 -2.484375 C 13.101562 -3.253906 13.5 -4.425781 13.5 -6 C 13.5 -7.582031 13.054688 -8.753906 12.171875 -9.515625 C 11.285156 -10.285156 10.144531 -10.671875 8.75 -10.671875 L 8.75 -10.9375 C 9.75 -10.9375 10.582031 -11.257812 11.25 -11.90625 C 11.925781 -12.550781 12.273438 -13.546875 12.296875 -14.890625 Z M 12.296875 -14.890625 "/></g></g></g><g fill="#07689f" fill-opacity="1"><g transform="translate(106.524124, 125.818888)"><g><path d="M 9.171875 -18.9375 L 7.9375 -18.9375 C 7.894531 -18.9375 7.863281 -18.9375 7.84375 -18.9375 L 7.84375 -2.109375 C 7.863281 -1.609375 8.050781 -1.175781 8.40625 -0.8125 C 8.769531 -0.457031 9.203125 -0.28125 9.703125 -0.28125 L 10.078125 -0.28125 L 10.078125 0 L 1.296875 0 L 1.296875 -0.28125 L 1.671875 -0.28125 C 2.367188 -0.28125 2.898438 -0.582031 3.265625 -1.1875 C 3.410156 -1.457031 3.492188 -1.753906 3.515625 -2.078125 L 3.515625 -18.09375 C 3.492188 -18.59375 3.304688 -19.019531 2.953125 -19.375 C 2.597656 -19.726562 2.171875 -19.90625 1.671875 -19.90625 L 1.296875 -19.90625 L 1.296875 -20.203125 L 11.203125 -20.203125 C 13.066406 -20.203125 14.644531 -19.796875 15.9375 -18.984375 C 16.582031 -18.585938 17.097656 -18.023438 17.484375 -17.296875 C 17.867188 -16.578125 18.0625 -15.632812 18.0625 -14.46875 C 18.0625 -13.3125 17.65625 -12.191406 16.84375 -11.109375 C 16.039062 -10.035156 14.867188 -9.421875 13.328125 -9.265625 C 14.441406 -8.898438 15.425781 -8.050781 16.28125 -6.71875 C 18.351562 -3.394531 19.890625 -1.414062 20.890625 -0.78125 C 21.390625 -0.46875 22.015625 -0.300781 22.765625 -0.28125 L 22.765625 0 L 19.9375 0 C 18.269531 0 16.878906 -0.21875 15.765625 -0.65625 C 14.660156 -1.101562 13.789062 -1.882812 13.15625 -3 C 12.789062 -3.632812 11.992188 -5.28125 10.765625 -7.9375 C 10.222656 -9.113281 9.566406 -9.757812 8.796875 -9.875 L 8.796875 -10.15625 L 9.703125 -10.15625 C 10.566406 -10.15625 11.328125 -10.414062 11.984375 -10.9375 C 12.648438 -11.457031 13.097656 -12.304688 13.328125 -13.484375 C 13.410156 -13.878906 13.453125 -14.195312 13.453125 -14.4375 C 13.453125 -16.007812 13.132812 -17.144531 12.5 -17.84375 C 11.863281 -18.550781 11.046875 -18.914062 10.046875 -18.9375 C 9.847656 -18.9375 9.554688 -18.9375 9.171875 -18.9375 Z M 9.171875 -18.9375 "/></g></g></g><g fill="#07689f" fill-opacity="1"><g transform="translate(128.084319, 125.818888)"><g><path d="M 1.59375 -0.28125 C 2.09375 -0.28125 2.519531 -0.457031 2.875 -0.8125 C 3.226562 -1.175781 3.414062 -1.609375 3.4375 -2.109375 L 3.4375 -18.125 C 3.414062 -18.625 3.226562 -19.046875 2.875 -19.390625 C 2.519531 -19.734375 2.09375 -19.90625 1.59375 -19.90625 L 1.21875 -19.90625 L 1.21875 -20.203125 L 9.984375 -20.203125 L 9.953125 -19.90625 L 9.609375 -19.90625 C 9.109375 -19.90625 8.675781 -19.734375 8.3125 -19.390625 C 7.945312 -19.046875 7.765625 -18.625 7.765625 -18.125 L 7.765625 -2.109375 C 7.765625 -1.609375 7.945312 -1.175781 8.3125 -0.8125 C 8.675781 -0.457031 9.109375 -0.28125 9.609375 -0.28125 L 9.953125 -0.28125 L 9.984375 0 L 1.21875 0 L 1.21875 -0.28125 Z M 1.59375 -0.28125 "/></g></g></g><g fill="#07689f" fill-opacity="1"><g transform="translate(139.225199, 125.818888)"><g><path d="M 11.6875 -20.203125 C 15.09375 -20.203125 17.785156 -19.296875 19.765625 -17.484375 C 21.742188 -15.679688 22.734375 -13.21875 22.734375 -10.09375 C 22.734375 -6.976562 21.742188 -4.515625 19.765625 -2.703125 C 17.785156 -0.898438 15.09375 0 11.6875 0 L 1.21875 0 L 1.21875 -0.28125 L 1.59375 -0.28125 C 2.09375 -0.28125 2.519531 -0.457031 2.875 -0.8125 C 3.226562 -1.175781 3.414062 -1.609375 3.4375 -2.109375 L 3.4375 -18.265625 C 3.4375 -18.722656 3.25 -19.109375 2.875 -19.421875 C 2.5 -19.742188 2.070312 -19.90625 1.59375 -19.90625 L 1.21875 -19.90625 L 1.21875 -20.203125 Z M 11.3125 -1.234375 C 12.695312 -1.234375 13.894531 -1.585938 14.90625 -2.296875 C 15.914062 -3.015625 16.6875 -4.039062 17.21875 -5.375 C 17.757812 -6.71875 18.03125 -8.175781 18.03125 -9.75 C 18.03125 -11.332031 17.867188 -12.675781 17.546875 -13.78125 C 17.234375 -14.882812 16.789062 -15.820312 16.21875 -16.59375 C 15.03125 -18.1875 13.394531 -18.984375 11.3125 -18.984375 L 7.765625 -18.984375 L 7.765625 -1.234375 Z M 11.3125 -1.234375 "/></g></g></g><g fill="#07689f" fill-opacity="1"><g transform="translate(163.123245, 125.818888)"><g><path d="M 12.203125 0.40625 C 8.910156 0.40625 6.269531 -0.539062 4.28125 -2.4375 C 2.289062 -4.332031 1.296875 -6.890625 1.296875 -10.109375 C 1.296875 -13.335938 2.289062 -15.894531 4.28125 -17.78125 C 6.269531 -19.664062 8.96875 -20.609375 12.375 -20.609375 C 13.914062 -20.609375 15.40625 -20.457031 16.84375 -20.15625 C 18.289062 -19.863281 19.457031 -19.492188 20.34375 -19.046875 L 20.40625 -14.078125 L 20.140625 -14.078125 C 19.640625 -15.941406 18.78125 -17.289062 17.5625 -18.125 C 16.351562 -18.96875 14.914062 -19.390625 13.25 -19.390625 C 10.914062 -19.390625 9.125 -18.554688 7.875 -16.890625 C 6.625 -15.234375 6 -12.957031 6 -10.0625 C 6 -7.164062 6.570312 -4.898438 7.71875 -3.265625 C 8.863281 -1.628906 10.484375 -0.8125 12.578125 -0.8125 C 14.097656 -0.8125 15.367188 -1.242188 16.390625 -2.109375 C 16.890625 -2.546875 17.253906 -3.066406 17.484375 -3.671875 L 17.484375 -8.078125 C 17.484375 -8.503906 17.351562 -8.828125 17.09375 -9.046875 C 16.832031 -9.265625 16.460938 -9.375 15.984375 -9.375 L 15.53125 -9.375 L 15.53125 -9.671875 L 23.640625 -9.671875 L 23.640625 -9.375 L 23.203125 -9.375 C 22.742188 -9.375 22.390625 -9.265625 22.140625 -9.046875 C 21.890625 -8.828125 21.765625 -8.503906 21.765625 -8.078125 L 21.765625 -3.3125 C 21.015625 -2.332031 19.769531 -1.46875 18.03125 -0.71875 C 16.300781 0.03125 14.359375 0.40625 12.203125 0.40625 Z M 12.203125 0.40625 "/></g></g></g><g fill="#07689f" fill-opacity="1"><g transform="translate(187.252197, 125.818888)"><g><path d="M 1.59375 -0.28125 C 2.09375 -0.28125 2.519531 -0.457031 2.875 -0.8125 C 3.226562 -1.175781 3.414062 -1.609375 3.4375 -2.109375 L 3.4375 -18.1875 C 3.394531 -18.6875 3.25 -19.050781 3 -19.28125 C 2.539062 -19.695312 2.070312 -19.90625 1.59375 -19.90625 L 1.21875 -19.90625 L 1.21875 -20.203125 L 12.265625 -20.203125 C 13.203125 -20.203125 13.976562 -20.273438 14.59375 -20.421875 C 15.21875 -20.566406 15.597656 -20.664062 15.734375 -20.71875 L 15.734375 -15.671875 L 15.4375 -15.703125 L 15.4375 -16.015625 C 15.4375 -17.210938 14.992188 -18.0625 14.109375 -18.5625 C 13.691406 -18.8125 13.191406 -18.941406 12.609375 -18.953125 L 7.765625 -18.953125 L 7.765625 -10.5625 L 11.578125 -10.5625 C 12.285156 -10.582031 12.867188 -10.828125 13.328125 -11.296875 C 13.796875 -11.765625 14.03125 -12.347656 14.03125 -13.046875 L 14.03125 -13.296875 L 14.3125 -13.296875 L 14.3125 -6.640625 L 14.03125 -6.640625 L 14.03125 -6.875 C 14.03125 -7.582031 13.800781 -8.164062 13.34375 -8.625 C 12.894531 -9.09375 12.320312 -9.332031 11.625 -9.34375 L 7.765625 -9.34375 L 7.765625 -1.234375 L 11.546875 -1.234375 C 12.953125 -1.234375 14.128906 -1.640625 15.078125 -2.453125 C 16.023438 -3.265625 16.734375 -4.410156 17.203125 -5.890625 L 17.484375 -5.890625 L 16.15625 0 L 1.21875 0 L 1.21875 -0.28125 Z M 1.59375 -0.28125 "/></g></g></g><g fill="#07689f" fill-opacity="1"><g transform="translate(205.464356, 125.818888)"><g><path d="M 1.4375 -2.6875 C 1.4375 -4.070312 1.738281 -5.253906 2.34375 -6.234375 L 2.59375 -6.234375 C 2.570312 -6.078125 2.5625 -5.921875 2.5625 -5.765625 C 2.5625 -4.441406 3.035156 -3.285156 3.984375 -2.296875 C 4.941406 -1.304688 6.25 -0.8125 7.90625 -0.8125 C 9.195312 -0.8125 10.203125 -1.117188 10.921875 -1.734375 C 11.640625 -2.347656 12 -3.125 12 -4.0625 C 12 -4.625 11.820312 -5.125 11.46875 -5.5625 C 11.113281 -6.007812 10.523438 -6.503906 9.703125 -7.046875 L 4.671875 -10.359375 C 2.804688 -11.609375 1.875 -13.148438 1.875 -14.984375 C 1.875 -15.171875 1.894531 -15.363281 1.9375 -15.5625 C 2.050781 -17.070312 2.640625 -18.289062 3.703125 -19.21875 C 4.773438 -20.144531 6.207031 -20.609375 8 -20.609375 C 9.050781 -20.609375 10.359375 -20.507812 11.921875 -20.3125 L 13.734375 -20.3125 L 13.359375 -16.078125 L 13.078125 -16.078125 C 13.078125 -17.078125 12.703125 -17.878906 11.953125 -18.484375 C 11.210938 -19.085938 10.226562 -19.390625 9 -19.390625 C 7.5 -19.390625 6.414062 -18.929688 5.75 -18.015625 C 5.394531 -17.566406 5.21875 -17.117188 5.21875 -16.671875 C 5.21875 -16.234375 5.304688 -15.863281 5.484375 -15.5625 C 5.753906 -15.0625 6.34375 -14.519531 7.25 -13.9375 L 12.75 -10.359375 C 14.488281 -9.222656 15.359375 -7.742188 15.359375 -5.921875 C 15.359375 -3.878906 14.660156 -2.3125 13.265625 -1.21875 C 11.867188 -0.132812 10.015625 0.40625 7.703125 0.40625 C 6.398438 0.40625 5.191406 0.25 4.078125 -0.0625 C 2.972656 -0.382812 2.160156 -0.816406 1.640625 -1.359375 C 1.503906 -1.722656 1.4375 -2.164062 1.4375 -2.6875 Z M 1.4375 -2.6875 "/></g></g></g><g fill="#4f4c4c" fill-opacity="1"><g transform="translate(71.561556, 141.458803)"><g><path d="M 5.046875 -6.6875 L 5.046875 -5.796875 L 3.265625 -5.796875 L 3.265625 0 L 2.171875 0 L 2.171875 -5.796875 L 0.375 -5.796875 L 0.375 -6.6875 Z M 5.046875 -6.6875 "/></g></g></g><g fill="#4f4c4c" fill-opacity="1"><g transform="translate(78.931798, 141.458803)"><g><path d="M 1.8125 -5.796875 L 1.8125 -3.84375 L 4.125 -3.84375 L 4.125 -2.9375 L 1.8125 -2.9375 L 1.8125 -0.890625 L 4.421875 -0.890625 L 4.421875 0 L 0.71875 0 L 0.71875 -6.703125 L 4.421875 -6.703125 L 4.421875 -5.796875 Z M 1.8125 -5.796875 "/></g></g></g><g fill="#4f4c4c" fill-opacity="1"><g transform="translate(85.917218, 141.458803)"><g><path d="M 0.359375 -3.359375 C 0.359375 -4.015625 0.507812 -4.601562 0.8125 -5.125 C 1.113281 -5.644531 1.523438 -6.050781 2.046875 -6.34375 C 2.578125 -6.632812 3.148438 -6.78125 3.765625 -6.78125 C 4.484375 -6.78125 5.117188 -6.601562 5.671875 -6.25 C 6.222656 -5.90625 6.625 -5.410156 6.875 -4.765625 L 5.5625 -4.765625 C 5.382812 -5.117188 5.140625 -5.378906 4.828125 -5.546875 C 4.523438 -5.722656 4.171875 -5.8125 3.765625 -5.8125 C 3.328125 -5.8125 2.929688 -5.710938 2.578125 -5.515625 C 2.234375 -5.316406 1.960938 -5.03125 1.765625 -4.65625 C 1.578125 -4.28125 1.484375 -3.847656 1.484375 -3.359375 C 1.484375 -2.867188 1.578125 -2.4375 1.765625 -2.0625 C 1.960938 -1.6875 2.234375 -1.394531 2.578125 -1.1875 C 2.929688 -0.988281 3.328125 -0.890625 3.765625 -0.890625 C 4.171875 -0.890625 4.523438 -0.976562 4.828125 -1.15625 C 5.140625 -1.332031 5.382812 -1.59375 5.5625 -1.9375 L 6.875 -1.9375 C 6.625 -1.300781 6.222656 -0.804688 5.671875 -0.453125 C 5.117188 -0.109375 4.484375 0.0625 3.765625 0.0625 C 3.140625 0.0625 2.566406 -0.0820312 2.046875 -0.375 C 1.523438 -0.664062 1.113281 -1.070312 0.8125 -1.59375 C 0.507812 -2.113281 0.359375 -2.703125 0.359375 -3.359375 Z M 0.359375 -3.359375 "/></g></g></g><g fill="#4f4c4c" fill-opacity="1"><g transform="translate(95.298192, 141.458803)"><g><path d="M 6.0625 -6.6875 L 6.0625 0 L 4.96875 0 L 4.96875 -2.921875 L 1.8125 -2.921875 L 1.8125 0 L 0.71875 0 L 0.71875 -6.6875 L 1.8125 -6.6875 L 1.8125 -3.828125 L 4.96875 -3.828125 L 4.96875 -6.6875 Z M 6.0625 -6.6875 "/></g></g></g><g fill="#4f4c4c" fill-opacity="1"><g transform="translate(104.024957, 141.458803)"><g><path d="M 6.21875 0 L 5.125 0 L 1.8125 -5 L 1.8125 0 L 0.71875 0 L 0.71875 -6.703125 L 1.8125 -6.703125 L 5.125 -1.71875 L 5.125 -6.703125 L 6.21875 -6.703125 Z M 6.21875 0 "/></g></g></g><g fill="#4f4c4c" fill-opacity="1"><g transform="translate(112.90566, 141.458803)"><g><path d="M 3.765625 0.0625 C 3.148438 0.0625 2.578125 -0.0820312 2.046875 -0.375 C 1.523438 -0.664062 1.113281 -1.070312 0.8125 -1.59375 C 0.507812 -2.113281 0.359375 -2.703125 0.359375 -3.359375 C 0.359375 -4.015625 0.507812 -4.601562 0.8125 -5.125 C 1.113281 -5.644531 1.523438 -6.050781 2.046875 -6.34375 C 2.578125 -6.632812 3.148438 -6.78125 3.765625 -6.78125 C 4.398438 -6.78125 4.976562 -6.632812 5.5 -6.34375 C 6.019531 -6.050781 6.429688 -5.644531 6.734375 -5.125 C 7.035156 -4.601562 7.1875 -4.015625 7.1875 -3.359375 C 7.1875 -2.703125 7.035156 -2.113281 6.734375 -1.59375 C 6.429688 -1.070312 6.019531 -0.664062 5.5 -0.375 C 4.976562 -0.0820312 4.398438 0.0625 3.765625 0.0625 Z M 3.765625 -0.890625 C 4.210938 -0.890625 4.609375 -0.988281 4.953125 -1.1875 C 5.304688 -1.382812 5.578125 -1.671875 5.765625 -2.046875 C 5.960938 -2.429688 6.0625 -2.867188 6.0625 -3.359375 C 6.0625 -3.847656 5.960938 -4.28125 5.765625 -4.65625 C 5.578125 -5.03125 5.304688 -5.316406 4.953125 -5.515625 C 4.609375 -5.710938 4.210938 -5.8125 3.765625 -5.8125 C 3.328125 -5.8125 2.929688 -5.710938 2.578125 -5.515625 C 2.234375 -5.316406 1.960938 -5.03125 1.765625 -4.65625 C 1.578125 -4.28125 1.484375 -3.847656 1.484375 -3.359375 C 1.484375 -2.867188 1.578125 -2.429688 1.765625 -2.046875 C 1.960938 -1.671875 2.234375 -1.382812 2.578125 -1.1875 C 2.929688 -0.988281 3.328125 -0.890625 3.765625 -0.890625 Z M 3.765625 -0.890625 "/></g></g></g><g fill="#4f4c4c" fill-opacity="1"><g transform="translate(122.392474, 141.458803)"><g><path d="M 1.8125 -0.890625 L 4.078125 -0.890625 L 4.078125 0 L 0.71875 0 L 0.71875 -6.6875 L 1.8125 -6.6875 Z M 1.8125 -0.890625 "/></g></g></g><g fill="#4f4c4c" fill-opacity="1"><g transform="translate(128.608231, 141.458803)"><g><path d="M 3.765625 0.0625 C 3.148438 0.0625 2.578125 -0.0820312 2.046875 -0.375 C 1.523438 -0.664062 1.113281 -1.070312 0.8125 -1.59375 C 0.507812 -2.113281 0.359375 -2.703125 0.359375 -3.359375 C 0.359375 -4.015625 0.507812 -4.601562 0.8125 -5.125 C 1.113281 -5.644531 1.523438 -6.050781 2.046875 -6.34375 C 2.578125 -6.632812 3.148438 -6.78125 3.765625 -6.78125 C 4.398438 -6.78125 4.976562 -6.632812 5.5 -6.34375 C 6.019531 -6.050781 6.429688 -5.644531 6.734375 -5.125 C 7.035156 -4.601562 7.1875 -4.015625 7.1875 -3.359375 C 7.1875 -2.703125 7.035156 -2.113281 6.734375 -1.59375 C 6.429688 -1.070312 6.019531 -0.664062 5.5 -0.375 C 4.976562 -0.0820312 4.398438 0.0625 3.765625 0.0625 Z M 3.765625 -0.890625 C 4.210938 -0.890625 4.609375 -0.988281 4.953125 -1.1875 C 5.304688 -1.382812 5.578125 -1.671875 5.765625 -2.046875 C 5.960938 -2.429688 6.0625 -2.867188 6.0625 -3.359375 C 6.0625 -3.847656 5.960938 -4.28125 5.765625 -4.65625 C 5.578125 -5.03125 5.304688 -5.316406 4.953125 -5.515625 C 4.609375 -5.710938 4.210938 -5.8125 3.765625 -5.8125 C 3.328125 -5.8125 2.929688 -5.710938 2.578125 -5.515625 C 2.234375 -5.316406 1.960938 -5.03125 1.765625 -4.65625 C 1.578125 -4.28125 1.484375 -3.847656 1.484375 -3.359375 C 1.484375 -2.867188 1.578125 -2.429688 1.765625 -2.046875 C 1.960938 -1.671875 2.234375 -1.382812 2.578125 -1.1875 C 2.929688 -0.988281 3.328125 -0.890625 3.765625 -0.890625 Z M 3.765625 -0.890625 "/></g></g></g><g fill="#4f4c4c" fill-opacity="1"><g transform="translate(138.095045, 141.458803)"><g><path d="M 5.5625 -4.765625 C 5.382812 -5.097656 5.140625 -5.347656 4.828125 -5.515625 C 4.523438 -5.691406 4.171875 -5.78125 3.765625 -5.78125 C 3.328125 -5.78125 2.929688 -5.675781 2.578125 -5.46875 C 2.234375 -5.269531 1.960938 -4.988281 1.765625 -4.625 C 1.578125 -4.257812 1.484375 -3.835938 1.484375 -3.359375 C 1.484375 -2.878906 1.578125 -2.453125 1.765625 -2.078125 C 1.960938 -1.710938 2.234375 -1.429688 2.578125 -1.234375 C 2.929688 -1.035156 3.328125 -0.9375 3.765625 -0.9375 C 4.367188 -0.9375 4.851562 -1.101562 5.21875 -1.4375 C 5.59375 -1.769531 5.820312 -2.222656 5.90625 -2.796875 L 3.390625 -2.796875 L 3.390625 -3.671875 L 7.078125 -3.671875 L 7.078125 -2.8125 C 7.015625 -2.289062 6.832031 -1.8125 6.53125 -1.375 C 6.226562 -0.9375 5.835938 -0.585938 5.359375 -0.328125 C 4.890625 -0.0664062 4.359375 0.0625 3.765625 0.0625 C 3.140625 0.0625 2.566406 -0.0820312 2.046875 -0.375 C 1.523438 -0.664062 1.113281 -1.070312 0.8125 -1.59375 C 0.507812 -2.113281 0.359375 -2.703125 0.359375 -3.359375 C 0.359375 -4.015625 0.507812 -4.601562 0.8125 -5.125 C 1.113281 -5.644531 1.523438 -6.050781 2.046875 -6.34375 C 2.578125 -6.632812 3.148438 -6.78125 3.765625 -6.78125 C 4.484375 -6.78125 5.117188 -6.601562 5.671875 -6.25 C 6.222656 -5.90625 6.625 -5.410156 6.875 -4.765625 Z M 5.5625 -4.765625 "/></g></g></g><g fill="#4f4c4c" fill-opacity="1"><g transform="translate(147.476022, 141.458803)"><g><path d="M 5.671875 -6.6875 L 3.46875 -2.421875 L 3.46875 0 L 2.375 0 L 2.375 -2.421875 L 0.140625 -6.6875 L 1.359375 -6.6875 L 2.921875 -3.40625 L 4.46875 -6.6875 Z M 5.671875 -6.6875 "/></g></g></g></svg>