<?xml version="1.0" encoding="iso-8859-1"?>
<!-- Uploaded to: SVG Repo, www.svgrepo.com, Generator: SVG Repo Mixer Tools -->
<svg fill="#000000" height="800px" width="800px" version="1.1" id="Layer_1" xmlns="http://www.w3.org/2000/svg" xmlns:xlink="http://www.w3.org/1999/xlink" 
	 viewBox="0 0 512 512" xml:space="preserve">
<g>
	<g>
		<path d="M375.626,164.164l-117.56-31.35c-1.354-0.361-2.778-0.361-4.131,0l-117.56,31.35c-4.871,1.3-8.144,5.56-8.144,10.601
			c0,5.041,3.272,9.3,8.143,10.6l51.752,13.8v35.456c0,9.136,7.432,16.568,16.568,16.568h102.614
			c9.136,0,16.568-7.432,16.568-16.568v-35.456l18.097-4.826l0.074,48.845c0.006,4.423,3.595,8.005,8.017,8.005
			c0.004,0,0.009,0,0.013,0c4.427-0.006,8.011-3.601,8.005-8.029L358,190.066l17.627-4.7c4.871-1.3,8.144-5.56,8.144-10.601
			C383.771,169.724,380.498,165.464,375.626,164.164z M307.841,234.622c0,0.295-0.239,0.534-0.534,0.534H204.693
			c-0.295,0-0.534-0.239-0.534-0.534V203.44l49.775,13.273c0.677,0.181,1.371,0.27,2.066,0.27s1.388-0.09,2.066-0.27l49.775-13.273
			V234.622z M256,200.671l-97.155-25.907L256,148.856l97.155,25.908L256,200.671z"/>
	</g>
</g>
<g>
	<g>
		<path d="M486.881,38.48H25.119C11.268,38.48,0,49.748,0,63.599v384.802c0,13.851,11.268,25.119,25.119,25.119h461.762
			c13.851,0,25.119-11.268,25.119-25.119V63.599C512,49.748,500.732,38.48,486.881,38.48z M426.489,54.514h26.722v26.722h-26.722
			V54.514z M383.733,54.514h26.722v26.722h-26.722V54.514z M58.789,54.514h308.91v26.722H58.789V54.514z M16.033,63.599
			c0-5.01,4.076-9.086,9.086-9.086h17.637v26.722H16.033V63.599z M495.967,448.401c0,5.01-4.076,9.086-9.086,9.086H25.119
			c-5.01,0-9.086-4.076-9.086-9.086V97.269h479.933V448.401z M495.967,81.236h-26.722V54.514h17.637c5.01,0,9.086,4.076,9.086,9.086
			V81.236z"/>
	</g>
</g>
<g>
	<g>
		<path d="M427.023,295.015H221.795c-9.136,0-16.568,7.432-16.568,16.568v17.102c0,9.136,7.432,16.568,16.568,16.568h205.228
			c9.136,0,16.568-7.432,16.568-16.568v-17.102C443.591,302.447,436.159,295.015,427.023,295.015z M427.557,328.685
			c0,0.295-0.239,0.534-0.534,0.534H221.795c-0.295,0-0.534-0.239-0.534-0.534v-17.102c0-0.295,0.239-0.534,0.534-0.534h205.228
			c0.295,0,0.534,0.239,0.534,0.534V328.685z"/>
	</g>
</g>
<g>
	<g>
		<path d="M427.023,363.424H221.795c-9.136,0-16.568,7.432-16.568,16.568v17.102c0,9.136,7.432,16.568,16.568,16.568h205.228
			c9.136,0,16.568-7.432,16.568-16.568v-17.102C443.591,370.856,436.159,363.424,427.023,363.424z M427.557,397.094
			c0,0.295-0.239,0.534-0.534,0.534H221.795c-0.295,0-0.534-0.239-0.534-0.534v-17.102c0-0.295,0.239-0.534,0.534-0.534h205.228
			c0.295,0,0.534,0.239,0.534,0.534V397.094z"/>
	</g>
</g>
<g>
	<g>
		<path d="M161.937,337.77h-0.534v-17.637c0-23.281-18.941-42.221-42.221-42.221S76.96,296.853,76.96,320.134v17.637h-0.534
			c-4.427,0-8.017,3.589-8.017,8.017v25.653c0,27.995,22.777,50.772,50.772,50.772c27.995,0,50.772-22.777,50.772-50.772v-25.653
			C169.954,341.36,166.365,337.77,161.937,337.77z M92.994,320.134c0-14.44,11.748-26.188,26.188-26.188
			s26.188,11.748,26.188,26.188v17.637H92.994V320.134z M153.921,371.44c0,19.155-15.584,34.739-34.739,34.739
			c-19.155,0-34.739-15.584-34.739-34.739v-17.637h69.478V371.44z"/>
	</g>
</g>
<g>
	<g>
		<path d="M119.182,363.424c-4.427,0-8.017,3.589-8.017,8.017v8.551c0,4.427,3.589,8.017,8.017,8.017s8.017-3.589,8.017-8.017
			v-8.551C127.198,367.013,123.609,363.424,119.182,363.424z"/>
	</g>
</g>
<g>
	<g>
		<circle cx="350.063" cy="268.827" r="8.017"/>
	</g>
</g>
</svg>