<svg xmlns="http://www.w3.org/2000/svg" width="575" height="552" viewBox="0 0 575 552" fill="none">
<path d="M64.5217 426.712C91.6195 418.492 124.438 427.295 134.412 458.006C167.886 427.361 239.43 371.958 328.384 378.56C354.672 380.511 417.828 385.195 434.698 430.521C443.181 453.313 436.75 477.756 431.441 492.202C439.529 489.037 448.532 486.31 458.389 484.49C502.794 476.294 540.464 490.942 562.174 502.256H54.7593C19.3115 503.596 -5.36855 447.915 64.5217 426.712Z" stroke="#1A1A1A" stroke-width="2" stroke-miterlimit="10" stroke-linecap="round" stroke-linejoin="round"/>
<path d="M305.697 274.223C305.697 274.223 324.873 272.731 324.661 262.931C324.45 253.131 317.629 252.491 317.629 252.491C317.629 252.491 338.721 225.431 323.593 206.468C308.465 187.504 290.217 190.243 290.217 190.243C290.217 190.243 292.782 169.185 277.23 164.073C261.674 158.961 250.726 168.756 250.726 168.756C250.726 168.756 229.635 151.073 207.898 176.64C198.664 189.212 195.825 199.44 186.308 198.301C176.791 197.167 161.164 199.294 174.094 217.194C187.019 235.09 201.549 228.458 209.358 228.312C217.166 228.166 279.207 263.642 279.207 263.642L305.697 274.223Z" fill="black"/>
<path d="M401.793 385.658C401.793 382.674 383.469 308.527 337.022 299.579C290.574 290.632 246.683 302.135 235.175 323.867C223.671 345.598 216.851 501.885 216.851 501.885H421.82L401.793 385.658Z" fill="#C4C4C4" stroke="#1A1A1A" stroke-width="2" stroke-miterlimit="10" stroke-linecap="round" stroke-linejoin="round"/>
<path d="M559.625 549.819H16.3746C8.98995 549.819 3.00001 539.07 3.00001 525.814C3.00001 512.557 8.9858 501.809 16.3746 501.809H559.625C567.01 501.809 573 512.557 573 525.814C573 539.07 567.014 549.819 559.625 549.819Z" stroke="#1A1A1A" stroke-width="3" stroke-miterlimit="10" stroke-linecap="round" stroke-linejoin="round"/>
<path d="M298.666 462.578C298.666 462.578 268.838 474.082 260.954 482.606C261.915 485.802 262.87 485.802 262.87 485.802L313.262 484.201L298.666 462.578Z" fill="white" stroke="#1A1A1A" stroke-width="2" stroke-miterlimit="10" stroke-linecap="round" stroke-linejoin="round"/>
<path d="M401.365 450.43C401.365 450.43 326.366 436.365 287.162 464.065C318.27 501.141 318.27 501.141 318.27 501.141H451.648C451.648 501.141 486.592 488.781 470.4 456.821C454.209 424.862 416.431 345.895 402.217 329.407C388.011 312.928 370.398 306.113 348.238 302.987" fill="#C4C4C4"/>
<path d="M401.365 450.43C401.365 450.43 326.366 436.365 287.162 464.065C318.27 501.141 318.27 501.141 318.27 501.141H451.648C451.648 501.141 486.592 488.781 470.4 456.821C454.209 424.862 416.431 345.895 402.217 329.407C388.011 312.928 370.398 306.113 348.238 302.987" stroke="#1A1A1A" stroke-width="2" stroke-miterlimit="10" stroke-linecap="round" stroke-linejoin="round"/>
<path d="M303.25 460.686C303.25 460.686 323.885 474.274 333.614 493.233" stroke="#1A1A1A" stroke-width="3" stroke-miterlimit="10" stroke-linecap="round" stroke-linejoin="round" stroke-dasharray="12 12"/>
<path d="M267.422 484.238H337.733V499.154H267.422V484.238Z" fill="white" stroke="#1A1A1A" stroke-width="2" stroke-miterlimit="10" stroke-linecap="round" stroke-linejoin="round"/>
<path d="M143.98 484.238H267.417V499.154H143.98V484.238Z" fill="white" stroke="#1A1A1A" stroke-width="2" stroke-miterlimit="10" stroke-linecap="round" stroke-linejoin="round"/>
<path d="M250.373 394.183C223.384 480.69 149.096 459.806 127.788 436.229C111.13 417.792 70.1194 324.013 70.1194 324.013C67.1729 316.407 99.2407 302.771 104.776 311.799C104.776 311.799 126.936 339.922 141.706 368.05C156.476 396.178 180.627 404.415 195.967 376.574C211.306 348.733 236.634 321.316 237.377 320.356" fill="#C4C4C4"/>
<path d="M250.373 394.183C223.384 480.69 149.096 459.806 127.788 436.229C111.13 417.792 70.1194 324.013 70.1194 324.013C67.1729 316.407 99.2407 302.771 104.776 311.799C104.776 311.799 126.936 339.922 141.706 368.05C156.476 396.178 180.627 404.415 195.967 376.574C211.306 348.733 236.634 321.316 237.377 320.356" stroke="#1A1A1A" stroke-width="2" stroke-miterlimit="10" stroke-linecap="round" stroke-linejoin="round"/>
<path d="M366.209 411.014C366.209 411.014 369.476 436.007 382.758 448.014" stroke="#1A1A1A" stroke-width="2" stroke-miterlimit="10" stroke-linecap="round" stroke-linejoin="round"/>
<path d="M255.636 279.152C269.982 299.18 261.806 321.311 263.51 324.507C267.558 332.391 298.666 333.243 319.334 327.063C340.001 320.883 336.594 315.559 329.562 310.871C313.153 300.22 304.418 250.148 303.994 249.08C303.994 249.08 301.438 241.408 299.518 240.984C303.354 233.74 303.566 221.596 291.422 220.744C279.278 219.893 276.082 233.105 276.082 233.105C276.082 233.105 262.447 230.549 258.469 210.521C252.929 227 239.294 230.266 227.644 211.232C219.831 198.872 211.608 216.16 208.963 224.138C207.692 227.974 206.623 273.447 244.833 278.563C283.044 283.675 291.568 255.693 291.568 255.693" fill="white"/>
<path d="M255.636 279.152C269.982 299.18 261.806 321.311 263.51 324.507C267.558 332.391 298.666 333.243 319.334 327.063C340.001 320.883 336.594 315.559 329.562 310.871C313.153 300.22 304.418 250.148 303.994 249.08C303.994 249.08 301.438 241.408 299.518 240.984C303.354 233.74 303.566 221.596 291.422 220.744C279.278 219.893 276.082 233.105 276.082 233.105C276.082 233.105 262.447 230.549 258.469 210.521C252.929 227 239.294 230.266 227.644 211.232C219.831 198.872 211.608 216.16 208.963 224.138C207.692 227.974 206.623 273.447 244.833 278.563C283.044 283.675 291.568 255.693 291.568 255.693" stroke="#1A1A1A" stroke-width="2" stroke-miterlimit="10" stroke-linecap="round" stroke-linejoin="round"/>
<path d="M277.231 273.07C277.231 273.07 266.669 286.631 258.912 284.461C255.636 279.152 255.636 279.152 255.636 279.152C255.636 279.152 269.978 278.055 277.231 273.07Z" fill="#1A1A1A"/>
<path class="laptop" d="M258.469 480.831C258.469 479.979 222.956 406.114 222.956 406.114H99.9471L143.98 480.831H258.469Z" fill="white" stroke="#1A1A1A" stroke-width="2" stroke-miterlimit="10" stroke-linecap="round" stroke-linejoin="round"/>
<path class="laptop" d="M231.871 407.498L222.956 406.114L258.469 480.831H269.549L231.871 407.498Z" fill="#1A1A1A"/>
<path d="M143.985 499.155H337.733V501.89H143.985V499.155Z" fill="#1A1A1A"/>
<path d="M175.412 453.27C169.435 453.27 164.589 448.424 164.589 442.447C164.589 436.47 169.435 431.624 175.412 431.624C181.389 431.624 186.235 436.47 186.235 442.447C186.235 448.424 181.389 453.27 175.412 453.27Z" fill="#07689F" stroke="#1A1A1A" stroke-width="6"/>
<path d="M288.729 346.479C288.729 346.479 281.693 358.345 282.027 381.498" stroke="#1A1A1A" stroke-width="2" stroke-miterlimit="10" stroke-linecap="round" stroke-linejoin="round"/>
<path d="M104.193 315.4C104.193 315.4 106.541 325.971 91.6112 329.492C76.6811 333.017 72.8214 327.059 72.652 325.468C72.4825 323.872 73.4051 315.903 85.4028 313.136C97.3959 310.368 102.851 310.283 104.193 315.4Z" fill="#1A1A1A"/>
<path d="M99.9472 319.183C99.9472 319.183 102.362 298.516 93.9836 294.896C85.6054 291.277 66.8533 296.812 59.8213 291.488C52.7892 286.165 38.9417 269.969 31.0577 272.524C23.1737 275.08 40.4337 288.66 44.2698 295.72C48.1059 302.78 53.4294 314.924 61.5299 315.776C69.6256 316.628 76.6577 323.02 78.5734 327.708C89.5827 330.574 101.025 323.933 99.9472 319.183Z" fill="white" stroke="#1A1A1A" stroke-width="2" stroke-miterlimit="10" stroke-linecap="round" stroke-linejoin="round"/>
<path d="M20.1233 501.697H57.0062C60.268 501.697 62.918 499.051 62.918 495.785C62.918 492.523 60.2727 489.873 57.0062 489.873H20.1233C16.8614 489.873 14.2115 492.518 14.2115 495.785C14.2162 499.051 16.8614 501.697 20.1233 501.697Z" fill="#1A1A1A"/>
<path d="M16.659 463.171V474.867C16.659 478.76 17.6757 482.408 19.4454 485.571C20.5515 487.533 21.9448 489.313 23.5734 490.838C27.4942 494.514 32.7705 496.768 38.5694 496.768C50.666 496.768 60.4751 486.964 60.4751 474.863V463.166H16.659V463.171Z" fill="white" stroke="#1A1A1A" stroke-width="2" stroke-miterlimit="10" stroke-linecap="round" stroke-linejoin="round"/>
<path d="M5.47053 466.795C5.98358 466.296 6.68018 466.013 7.39562 466.032C7.40032 466.032 7.86632 466.037 8.65237 466.051C10.361 466.079 13.5381 466.126 16.654 466.159V471.53C14.2535 471.506 11.8153 471.478 10.0314 471.445V484.314C11.6647 484.827 14.7195 485.523 19.4404 485.57C20.5466 487.533 21.9398 489.312 23.5684 490.837C22.2975 490.908 21.102 490.946 19.977 490.946C10.8222 490.95 6.43074 488.714 6.06831 488.512C5.20225 488.046 4.66091 487.133 4.66091 486.149V468.715C4.66561 467.995 4.95748 467.303 5.47053 466.795Z" fill="white" stroke="#1A1A1A" stroke-width="2" stroke-miterlimit="10" stroke-linecap="round" stroke-linejoin="round"/>
<path d="M468.588 501.889C468.588 501.889 510.196 508.291 466.912 507.98C423.628 507.669 337.732 503.504 337.732 503.504V501.146L468.588 501.889Z" fill="#1A1A1A"/>
<path class="bar bar1" d="M537.129 192.099H556.695V253.504H537.129V192.099Z" fill="#1A1A1A" stroke="#1A1A1A" stroke-width="2" stroke-miterlimit="10" stroke-linecap="round" stroke-linejoin="round"/>
<path class="bar bar2" d="M506.116 192.099H525.682V253.504H506.116V192.099Z" fill="#89c1e1" stroke="#89c1e1" stroke-width="2" stroke-miterlimit="10" stroke-linecap="round" stroke-linejoin="round"/>
<path class="bar bar3" d="M474.227 228.11H493.793V253.499H474.227V228.11Z" fill="#1A1A1A" stroke="#1A1A1A" stroke-width="2" stroke-miterlimit="10" stroke-linecap="round" stroke-linejoin="round"/>
<path class="bar bar4" d="M446.937 228.11H466.503V253.499H446.937V228.11Z" fill="#07689F" stroke="#07689F" stroke-width="2" stroke-miterlimit="10" stroke-linecap="round" stroke-linejoin="round"/>
<path d="M405.907 253.499H562.108V269.017H405.907V253.499Z" stroke="#1A1A1A" stroke-width="2" stroke-miterlimit="10" stroke-linecap="round" stroke-linejoin="round"/>
<path class="bubble bubble1" d="M19.7941 434.629C10.8543 434.629 3.6072 427.382 3.6072 418.442C3.6072 409.502 10.8543 402.255 19.7941 402.255C28.7338 402.255 35.981 409.502 35.981 418.442C35.981 427.382 28.7338 434.629 19.7941 434.629Z" fill="#07689F"/>
<path class="bubble bubble2" d="M45.2017 394.206C41.5363 394.206 38.565 391.235 38.565 387.569C38.565 383.904 41.5363 380.933 45.2017 380.933C48.867 380.933 51.8384 383.904 51.8384 387.569C51.8384 391.235 48.867 394.206 45.2017 394.206Z" fill="#1A1A1A"/>
<path class="bubble bubble3" d="M14.1228 371.99C12.1653 371.99 10.5785 370.403 10.5785 368.446C10.5785 366.488 12.1653 364.901 14.1228 364.901C16.0802 364.901 17.667 366.488 17.667 368.446C17.667 370.403 16.0802 371.99 14.1228 371.99Z" fill="#1A1A1A"/>
<path class="bulb-light" d="M446.776 12.7441L462.252 71.128H427.911L446.776 12.7441Z" fill="#07689F"/>
<path class="bulb-frame" d="M462.252 71.127L478.985 134.246H407.517L427.911 71.127H462.252Z" stroke="#1A1A1A" stroke-width="2" stroke-miterlimit="10" stroke-linecap="round" stroke-linejoin="round"/>
<path class="bulb-light" d="M75.2032 12.7441L90.6841 71.128H56.3382L75.2032 12.7441Z" fill="#07689F"/>
<path class="bulb-frame" d="M90.6841 71.127L107.417 134.246H35.9481L56.3382 71.127H90.6841Z" stroke="#1A1A1A" stroke-width="2" stroke-miterlimit="10" stroke-linecap="round" stroke-linejoin="round"/>
<path d="M441.919 1H451.026V27.782H441.919V1Z" fill="white" stroke="#1A1A1A" stroke-width="2" stroke-miterlimit="10" stroke-linecap="round" stroke-linejoin="round"/>
<path d="M70.2326 1H79.3403V27.782H70.2326V1Z" fill="white" stroke="#1A1A1A" stroke-width="2" stroke-miterlimit="10" stroke-linecap="round" stroke-linejoin="round"/>
<path d="M345.795 388.958C345.795 388.958 315.596 387.875 306.201 385.192C304.526 420.757 312.913 426.688 312.913 426.688H339.756C339.756 426.688 346.981 409.047 345.795 388.958Z" stroke="#1A1A1A" stroke-width="2" stroke-miterlimit="10" stroke-linecap="round" stroke-linejoin="round"/>
<path d="M341.686 397.27L345.795 388.958L306.201 385.192L310.649 394.253L341.686 397.27Z" fill="white" stroke="#1A1A1A" stroke-width="2" stroke-miterlimit="10" stroke-linecap="round" stroke-linejoin="round"/>
<path d="M339.601 312.858C339.601 312.858 343.767 288.89 319.503 296.619C316.533 297.565 323.565 300.578 322.148 304.696C320.727 308.815 305.787 328.376 300.549 330.179C293.738 333.554 306.936 340.628 318.938 336.439C330.941 332.245 342.233 318.36 339.601 312.858Z" fill="#07689F" stroke="#1A1A1A" stroke-width="2" stroke-miterlimit="10" stroke-linecap="round" stroke-linejoin="round"/>
<path d="M285.374 333.38C283.707 323.552 272.623 330.062 268.019 319.546C265.143 312.976 264.409 307.568 264.099 302.635C263.986 300.851 259.848 303.51 257.085 305.049C249.724 309.154 251.607 325.369 256.666 329.765C261.731 334.166 287.04 343.208 285.374 333.38Z" fill="#07689F" stroke="#1A1A1A" stroke-width="2" stroke-miterlimit="10" stroke-linecap="round" stroke-linejoin="round"/>
<path d="M111.935 323.452C111.935 323.452 105.783 342.021 83.3033 337.432" stroke="#1A1A1A" stroke-width="3" stroke-miterlimit="10" stroke-linecap="round" stroke-linejoin="round" stroke-dasharray="12 12"/>
<style>
.bulb-light{
  animation: redlight 3s ease  infinite;
}

@keyframes redlight {
  0%{
    fill:transparent;
  }
  100%{
    fill:#07689F;
  }
}

.bulb-frame{
  stroke-dasharray: 1000;
  stroke-dashoffset: 1000;
  animation: frame 3s linear forwards infinite;
}

@keyframes frame {
  to {
    stroke-dashoffset: 0;
  }
}

.bar1{
  stroke-dasharray: 1000;
  stroke-dashoffset: 1000;
  animation: bar_stroke 3s linear forwards infinite,bar_fill 3s forwards infinite;
}

@keyframes bar_stroke {
  to {
    stroke-dashoffset: 0;
  }
}
   @keyframes bar_fill {
    0% {
    fill: none;
    }

      100% {
    fill: #fff;
      }
    }    

.bar2{
  stroke-dasharray: 1000;
  stroke-dashoffset: 1000;
  animation: bar_stroke 3s linear forwards infinite,bar_fill2 3s forwards infinite;
}


   @keyframes bar_fill2 {
    0% {
    fill: none;
    }

      100% {
    fill: #89c1e1;
      }
    }    

.bar3{
  
  stroke-dasharray: 1000;
  stroke-dashoffset: 1000;
  animation: bar_stroke 3s linear forwards infinite,bar_fill3 3s forwards infinite;
}


   @keyframes bar_fill3 {
    0% {
    fill: none;
    }

      100% {
    fill: #1A1A1A;
      }
    }   


.bar4{
  stroke-dasharray: 1000;
  stroke-dashoffset: 1000;
  animation: bar_stroke 3s linear forwards infinite,bar_fill4 3s forwards infinite;
}


   @keyframes bar_fill4 {
    0% {
    fill: none;
    }

      100% {
    fill: #07689F;
      }
    }   

.bubble{
  animation:circle_fill 3s forwards infinite;
}


 @keyframes circle_fill {
    0% {
    fill: none;
    }

      100% {
    fill: #1A1A1A;
      }
    }  

.bubble1 {
			animation-delay: .1s;
		}

		.bubble2{
			animation-delay: .25s;
		}

		.bubble3 {
			animation-delay: .35s;
		}
</style>
</svg>