<svg xmlns="http://www.w3.org/2000/svg" xmlns:xlink="http://www.w3.org/1999/xlink" width="500" zoomAndPan="magnify" viewBox="0 0 375 374.999991" height="500" preserveAspectRatio="xMidYMid meet" version="1.0"><defs><g/><clipPath id="0f2e9237d4"><path d="M 6.863281 213.820312 L 183.367188 213.820312 L 183.367188 225.429688 L 6.863281 225.429688 Z M 6.863281 213.820312 " clip-rule="nonzero"/></clipPath><clipPath id="b9333935c5"><path d="M 196.957031 147.824219 L 357.253906 147.824219 L 357.253906 159.4375 L 196.957031 159.4375 Z M 196.957031 147.824219 " clip-rule="nonzero"/></clipPath></defs><g clip-path="url(#0f2e9237d4)"><path fill="#0b1e3f" d="M 6.863281 213.820312 L 183.347656 213.820312 L 183.347656 225.429688 L 6.863281 225.429688 Z M 6.863281 213.820312 " fill-opacity="1" fill-rule="nonzero"/></g><g clip-path="url(#b9333935c5)"><path fill="#0b1e3f" d="M 196.957031 147.824219 L 357.25 147.824219 L 357.25 159.4375 L 196.957031 159.4375 Z M 196.957031 147.824219 " fill-opacity="1" fill-rule="nonzero"/></g><g fill="#07689f" fill-opacity="1"><g transform="translate(0.811632, 195.274969)"><g><path d="M 5.671875 0 L 5.671875 -47.203125 L 24.34375 -47.203125 C 29.332031 -47.203125 33.691406 -46.210938 37.421875 -44.234375 C 41.160156 -42.253906 44.0625 -39.488281 46.125 -35.9375 C 48.195312 -32.382812 49.234375 -28.273438 49.234375 -23.609375 C 49.234375 -18.878906 48.195312 -14.75 46.125 -11.21875 C 44.0625 -7.695312 41.160156 -4.945312 37.421875 -2.96875 C 33.691406 -0.988281 29.332031 0 24.34375 0 Z M 16.390625 -9.84375 L 24.140625 -9.84375 C 26.929688 -9.84375 29.378906 -10.414062 31.484375 -11.5625 C 33.597656 -12.707031 35.25 -14.3125 36.4375 -16.375 C 37.632812 -18.445312 38.234375 -20.859375 38.234375 -23.609375 C 38.234375 -26.390625 37.632812 -28.800781 36.4375 -30.84375 C 35.25 -32.894531 33.585938 -34.492188 31.453125 -35.640625 C 29.316406 -36.785156 26.832031 -37.359375 24 -37.359375 L 16.390625 -37.359375 Z M 16.390625 -9.84375 "/></g></g></g><g fill="#07689f" fill-opacity="1"><g transform="translate(66.824584, 195.274969)"><g><path d="M 28.046875 0.9375 C 23.148438 0.9375 18.800781 -0.101562 15 -2.1875 C 11.207031 -4.28125 8.242188 -7.171875 6.109375 -10.859375 C 3.972656 -14.546875 2.90625 -18.796875 2.90625 -23.609375 C 2.90625 -28.410156 3.972656 -32.65625 6.109375 -36.34375 C 8.242188 -40.03125 11.207031 -42.921875 15 -45.015625 C 18.800781 -47.109375 23.148438 -48.15625 28.046875 -48.15625 C 32.992188 -48.15625 37.351562 -47.109375 41.125 -45.015625 C 44.90625 -42.921875 47.875 -40.03125 50.03125 -36.34375 C 52.195312 -32.65625 53.28125 -28.410156 53.28125 -23.609375 C 53.28125 -18.796875 52.195312 -14.546875 50.03125 -10.859375 C 47.875 -7.171875 44.90625 -4.28125 41.125 -2.1875 C 37.351562 -0.101562 32.992188 0.9375 28.046875 0.9375 Z M 13.828125 -23.609375 C 13.828125 -20.773438 14.429688 -18.273438 15.640625 -16.109375 C 16.859375 -13.953125 18.535156 -12.265625 20.671875 -11.046875 C 22.804688 -9.835938 25.265625 -9.234375 28.046875 -9.234375 C 30.878906 -9.234375 33.363281 -9.835938 35.5 -11.046875 C 37.632812 -12.265625 39.296875 -13.953125 40.484375 -16.109375 C 41.679688 -18.273438 42.28125 -20.773438 42.28125 -23.609375 C 42.28125 -26.441406 41.679688 -28.9375 40.484375 -31.09375 C 39.296875 -33.25 37.632812 -34.929688 35.5 -36.140625 C 33.363281 -37.359375 30.878906 -37.96875 28.046875 -37.96875 C 25.265625 -37.96875 22.804688 -37.359375 20.671875 -36.140625 C 18.535156 -34.929688 16.859375 -33.25 15.640625 -31.09375 C 14.429688 -28.9375 13.828125 -26.441406 13.828125 -23.609375 Z M 13.828125 -23.609375 "/></g></g></g><g fill="#07689f" fill-opacity="1"><g transform="translate(136.950611, 195.274969)"><g><path d="M 17 0 L 17 -37.15625 L 2.015625 -37.15625 L 2.015625 -47.203125 L 42.6875 -47.203125 L 42.6875 -37.15625 L 27.71875 -37.15625 L 27.71875 0 Z M 17 0 "/></g></g></g><g fill="#07689f" fill-opacity="1"><g transform="translate(190.345391, 220.971184)"><g><path d="M 5.671875 0 L 5.671875 -47.203125 L 14.765625 -47.203125 L 35.609375 -18.484375 L 35.609375 -47.203125 L 46.265625 -47.203125 L 46.265625 0 L 37.15625 0 L 16.3125 -28.9375 L 16.3125 0 Z M 5.671875 0 "/></g></g></g><g fill="#07689f" fill-opacity="1"><g transform="translate(256.223485, 220.971184)"><g><path d="M 5.671875 0 L 5.671875 -47.203125 L 36.6875 -47.203125 L 36.6875 -38.171875 L 16.3125 -38.171875 L 16.3125 -28.390625 L 34.859375 -28.390625 L 34.859375 -19.421875 L 16.3125 -19.421875 L 16.3125 -9.109375 L 37.421875 -9.109375 L 37.421875 0 Z M 5.671875 0 "/></g></g></g><g fill="#07689f" fill-opacity="1"><g transform="translate(311.043453, 220.971184)"><g><path d="M 17 0 L 17 -37.15625 L 2.015625 -37.15625 L 2.015625 -47.203125 L 42.6875 -47.203125 L 42.6875 -37.15625 L 27.71875 -37.15625 L 27.71875 0 Z M 17 0 "/></g></g></g></svg>