<svg xmlns="http://www.w3.org/2000/svg" width="916" height="766" viewBox="0 0 916 766" fill="none">
<path d="M43.9476 196.839C40.8253 232.63 57.3056 248.373 63.8889 276.765C78.057 337.873 24.345 362.583 14.9487 430.589C10.7439 461.002 14.6467 505.578 54.824 563.299C79.4267 654.06 123.985 691.242 161.762 708.075C210.334 729.723 246.351 717.129 361.146 732.204C455.698 744.62 463.924 757.453 513.401 762.366C630.752 774.017 805.74 723.793 879.54 597.987C964.976 452.341 855.394 306.67 841.476 288.832C792.521 226.076 728.831 191.369 691.033 174.217C655.104 93.6177 597.813 56.209 571.407 41.5078C383.864 -62.908 113.308 64.454 65.7004 138.028C46.4955 167.712 43.9476 196.839 43.9476 196.839Z" stroke="#1A1A1A" stroke-width="3" stroke-miterlimit="10" stroke-linecap="round" stroke-linejoin="round"/>
<path class="stroke-circle" d="M859.008 673.944C869.694 673.944 878.357 665.278 878.357 654.588C878.357 643.899 869.694 635.233 859.008 635.233C848.323 635.233 839.66 643.899 839.66 654.588C839.66 665.278 848.323 673.944 859.008 673.944Z" fill="#07689F" stroke="#1A1A1A" stroke-width="14" stroke-miterlimit="10" stroke-linecap="round" stroke-linejoin="round"/>
<path d="M40.1812 578.102C26.7477 533.239 41.3957 485.979 60.3425 442.526C79.2892 399.066 102.844 356.102 107.849 310.056C115.32 241.321 81.1074 169.062 110.83 104.635C133.31 55.917 190.46 21.8038 251.746 10.9066C313.032 0.00952148 377.564 9.96279 435.494 29.8632C467.889 40.9871 498.907 55.2122 532.635 63.1184C568.254 71.4659 605.809 72.5078 641.744 79.8747C677.68 87.2416 714.042 102.846 730.361 130.505C750.39 164.465 734.741 205.382 743.029 242.578C751.435 280.313 783.388 310.804 807.679 343.416C877.452 437.083 884.6 560.929 825.941 659.738C808.776 688.654 784.964 716.51 750.324 730.944C713.733 746.186 670.356 744.36 630.026 738.58C589.703 732.801 549.594 723.399 508.705 724.661C457.385 726.243 409.105 744.458 358.765 752.891C308.424 761.324 248.794 757.108 216.664 723.748C201.14 707.635 193.816 686.571 176.224 671.727C163.313 660.829 148.849 660.235 131.713 656.797C86.1716 647.646 51.4138 615.617 40.1812 578.102Z" fill="white" stroke="#1A1A1A" stroke-width="2" stroke-miterlimit="10" stroke-linecap="round" stroke-linejoin="round"/>
<path d="M258.162 579.184H113.64C113.64 579.184 107.212 583.1 101.794 590.89H258.398C258.302 584.168 258.162 579.184 258.162 579.184Z" fill="#1A1A1A" stroke="#1A1A1A" stroke-width="2" stroke-miterlimit="10" stroke-linecap="round" stroke-linejoin="round"/>
<path d="M101.794 590.89C97.2733 597.383 93.4597 606.571 94.6671 618.454C94.6671 618.454 104.577 628.725 132.892 635.52C161.208 642.315 182.168 659.308 182.168 659.308C182.168 659.308 257.477 630.308 258.155 616.488C258.523 609.03 258.493 598.76 258.39 590.882H101.794V590.89Z" fill="white" stroke="#1A1A1A" stroke-width="2" stroke-miterlimit="10" stroke-linecap="round" stroke-linejoin="round"/>
<path d="M864.846 493.236H466.788V383.574H669.303C669.303 383.574 685.162 366.803 713.021 366.354C740.88 365.905 758.1 379.267 758.1 379.267L768.746 380.173C768.746 380.173 781.888 368.393 797.746 366.354C809.769 364.808 836.376 364.042 854.076 368.702C855.298 373.635 856.417 378.597 857.44 383.574C864.847 419.554 867.342 456.579 864.846 493.236Z" fill="white" stroke="#1A1A1A" stroke-width="2" stroke-miterlimit="10" stroke-linecap="round" stroke-linejoin="round"/>
<path d="M342.277 266.734C342.277 266.734 441.359 261.573 445.813 261.529C462.481 261.374 461.576 292.34 461.576 292.34L459.764 387.498L377.005 391.422L342.277 266.734Z" fill="white" stroke="#1A1A1A" stroke-width="2" stroke-miterlimit="10" stroke-linecap="round" stroke-linejoin="round"/>
<path d="M343.182 394.147C343.182 394.147 314.793 282.976 329.29 272.705C343.786 262.435 364.327 265.939 369.76 279.14C375.194 292.34 381.842 388.713 381.842 388.713L343.182 394.147Z" fill="white" stroke="#1A1A1A" stroke-width="2" stroke-miterlimit="10" stroke-linecap="round" stroke-linejoin="round"/>
<path d="M327.927 413.936C327.927 413.936 328.833 386.747 356.015 385.385C383.196 384.023 466.104 383.574 466.104 383.574C466.104 383.574 492.365 387.653 494.412 395.81C496.458 403.968 498.719 486.89 498.719 486.89L358.275 537.645L338.794 497.315L327.927 413.936Z" fill="white" stroke="#1A1A1A" stroke-width="2" stroke-miterlimit="10" stroke-linecap="round" stroke-linejoin="round"/>
<path d="M857.425 383.574H466.781V391.732H859.008C858.508 389.008 857.985 386.291 857.425 383.574Z" fill="white" stroke="#1A1A1A" stroke-width="2" stroke-miterlimit="10" stroke-linecap="round" stroke-linejoin="round"/>
<path d="M466.788 391.732V493.236H864.854C867.158 459.347 865.185 425.142 859.016 391.732H466.788Z" fill="white" stroke="#1A1A1A" stroke-width="2" stroke-miterlimit="10" stroke-linecap="round" stroke-linejoin="round"/>
<path d="M796.826 240.841C796.826 240.841 755.303 239.781 735.218 244.007C715.134 248.233 714.228 260.771 714.228 260.771C714.228 260.771 712.719 256.692 706.226 249.897C696.029 240.377 638.271 245.141 638.271 245.141L454.685 276.018V383.655H857.543C854.37 340.983 839.248 298.554 796.826 240.841Z" fill="white" stroke="#1A1A1A" stroke-width="2" stroke-miterlimit="10" stroke-linecap="round" stroke-linejoin="round"/>
<path d="M857.425 383.574H669.303C669.303 383.574 685.162 366.803 713.021 366.354C740.88 365.905 758.1 379.267 758.1 379.267L768.746 380.173C768.746 380.173 781.888 368.393 797.747 366.354C809.769 364.808 836.377 364.042 854.076 368.702C855.283 373.635 856.402 378.597 857.425 383.574Z" fill="white" stroke="#1A1A1A" stroke-width="2" stroke-miterlimit="10" stroke-linecap="round" stroke-linejoin="round"/>
<path d="M505.124 201.703C524.663 196.328 577.783 188.502 592.279 202.549C606.775 216.597 631.012 304.731 613.799 337.361C608.366 350.952 608.366 350.952 608.366 350.952C608.366 350.952 514.643 363.276 496.466 355.494C496.466 355.494 485.128 290.146 488.986 263.002" fill="#07689F"/>
<path d="M505.124 201.703C524.663 196.328 577.783 188.502 592.279 202.549C606.775 216.597 631.012 304.731 613.799 337.361C608.366 350.952 608.366 350.952 608.366 350.952C608.366 350.952 514.643 363.276 496.466 355.494C496.466 355.494 485.128 290.146 488.986 263.002" stroke="#1A1A1A" stroke-width="2" stroke-miterlimit="10" stroke-linecap="round" stroke-linejoin="round"/>
<path d="M520.408 201.504C520.408 201.504 522.042 229.959 548.554 231.778C546.979 242.88 545.396 305.931 550.373 328.894" stroke="#1A1A1A" stroke-width="2" stroke-miterlimit="10" stroke-linecap="round" stroke-linejoin="round"/>
<path d="M692.627 383.574C691.722 357.291 627.39 338.716 627.39 338.716L529.986 344.606C529.986 344.606 463.387 353.212 439.378 372.251C415.37 391.283 450.252 493.244 450.252 493.244L523.647 487.803C523.647 487.803 497.371 435.692 498.041 423C498.711 410.314 549.018 398.984 549.018 398.984C561.703 405.33 595.805 399.889 595.805 399.889C595.805 399.889 612.444 412.126 627.39 415.07C611.988 430.701 595.805 493.236 595.805 493.236L666.808 489.614L672.697 475.11C672.697 475.11 693.54 409.858 692.627 383.574Z" fill="#1A1A1A" stroke="#1A1A1A" stroke-width="2" stroke-miterlimit="10" stroke-linecap="round" stroke-linejoin="round"/>
<path d="M865.229 486.89C865.067 489.945 864.883 493 864.648 496.056C860.952 545.405 848.222 594.004 826.275 638.406C809.106 673.142 785.289 706.603 750.642 723.942C714.044 742.252 670.658 740.058 630.327 733.115C589.996 726.172 549.879 714.886 508.982 716.403C457.651 718.302 409.362 740.183 359.004 750.306C308.653 760.429 249.011 755.371 216.867 715.291C205.036 700.537 197.968 682.322 187.476 666.604C185.813 664.101 184.06 661.656 182.176 659.308L423.976 486.882H865.229V486.89Z" fill="white" stroke="#1A1A1A" stroke-width="2" stroke-miterlimit="10" stroke-linecap="round" stroke-linejoin="round"/>
<path d="M408.243 21.1421L408.243 138.939" stroke="#1A1A1A" stroke-width="2" stroke-miterlimit="10" stroke-linecap="round" stroke-linejoin="round"/>
<path class="bulb" d="M405.673 137.216L393.54 168.771C395.587 174.072 419.448 174.676 423.159 168.771L411.026 137.216H405.673Z" fill="#1A1A1A" stroke="#1A1A1A" stroke-width="2" stroke-miterlimit="10" stroke-linecap="round" stroke-linejoin="round"/>
<path d="M552.486 191.742C552.486 191.742 545.838 202.918 529.228 196.881C508.768 189.437 522.889 138.88 522.889 138.88C522.889 138.88 540.102 124.376 559.134 134.654C578.158 144.925 568.801 158.825 568.801 158.825C568.801 158.825 572.725 157.315 576.052 159.127C579.373 160.938 580.58 166.378 575.751 172.114C570.921 175.132 569.714 172.982 569.714 172.982C569.714 172.982 568.808 192.956 576.362 194.466C568.808 218.938 548.569 223.164 548.569 223.164C548.569 223.164 531.061 214.101 531.061 203.227L531.996 197.757" fill="white"/>
<path d="M552.486 191.742C552.486 191.742 545.838 202.918 529.228 196.881C508.768 189.437 522.889 138.88 522.889 138.88C522.889 138.88 540.102 124.376 559.134 134.654C578.158 144.925 568.801 158.825 568.801 158.825C568.801 158.825 572.725 157.315 576.052 159.127C579.373 160.938 580.58 166.378 575.751 172.114C570.921 175.132 569.714 172.982 569.714 172.982C569.714 172.982 568.808 192.956 576.362 194.466C568.808 218.938 548.569 223.164 548.569 223.164C548.569 223.164 531.061 214.101 531.061 203.227L531.996 197.757" stroke="#1A1A1A" stroke-width="2" stroke-miterlimit="10" stroke-linecap="round" stroke-linejoin="round"/>
<path d="M514.312 199.531C514.312 199.531 476.676 206.548 471.544 223.164C466.413 239.781 428.659 338.569 453.728 353.367C478.796 368.173 516.594 304.084 520.651 290.566C520.82 290.183 521.917 287.54 523.191 285.81C525.333 272.676 515.792 266.514 507.141 271.866C507.09 271.91 507.045 271.947 506.994 271.991C503.335 275.12 496.061 281.592 488.978 289.087" fill="#07689F"/>
<path d="M514.312 199.531C514.312 199.531 476.676 206.548 471.544 223.164C466.413 239.781 428.659 338.569 453.728 353.367C478.796 368.173 516.594 304.084 520.651 290.566C520.82 290.183 521.917 287.54 523.191 285.81C525.333 272.676 515.792 266.514 507.141 271.866C507.09 271.91 507.045 271.947 506.994 271.991C503.335 275.12 496.061 281.592 488.978 289.087" stroke="#1A1A1A" stroke-width="2" stroke-miterlimit="10" stroke-linecap="round" stroke-linejoin="round"/>
<path d="M507.487 273.081C507.487 273.081 508.128 285.692 517.191 289.086C521.27 288.284 522.852 283.292 522.852 283.292C522.852 283.292 516.926 272.101 514.43 271.196C511.941 270.29 507.406 270.887 507.48 272.654" fill="#1A1A1A"/>
<path d="M507.487 273.081C507.487 273.081 508.128 285.692 517.191 289.086C521.27 288.284 522.852 283.292 522.852 283.292C522.852 283.292 516.926 272.101 514.43 271.196C511.941 270.29 507.406 270.887 507.48 272.654" stroke="#1A1A1A" stroke-width="2" stroke-miterlimit="10" stroke-linecap="round" stroke-linejoin="round"/>
<path d="M573.247 192.36C573.247 192.36 620.602 210.928 629.657 220.219C638.72 229.511 648.232 248.542 649.138 278.676C650.044 308.81 650.044 339.85 633.28 348.464C616.516 357.07 555.357 365.684 545.845 362.054C539.049 352.314 542.222 338.944 550.829 335.322C559.436 331.7 598.316 321.201 616.214 322.335C617.429 290.839 611.767 273.699 611.767 273.699" fill="#07689F"/>
<path d="M573.247 192.36C573.247 192.36 620.602 210.928 629.657 220.219C638.72 229.511 648.232 248.542 649.138 278.676C650.044 308.81 650.044 339.85 633.28 348.464C616.516 357.07 555.357 365.684 545.845 362.054C539.049 352.314 542.222 338.944 550.829 335.322C559.436 331.7 598.316 321.201 616.214 322.335C617.429 290.839 611.767 273.699 611.767 273.699" stroke="#1A1A1A" stroke-width="2" stroke-miterlimit="10" stroke-linecap="round" stroke-linejoin="round"/>
<path d="M550.373 337.81C550.373 337.81 555.202 339.017 556.262 346.873C557.323 354.729 554.9 360.994 550.373 361.524C545.845 362.054 543.577 357.747 544.181 351.099C544.785 344.451 545.086 338.561 550.373 337.81Z" fill="#1A1A1A" stroke="#1A1A1A" stroke-width="2" stroke-miterlimit="10" stroke-linecap="round" stroke-linejoin="round"/>
<path d="M549.018 343.7C549.018 343.7 540.794 344.458 535.39 338.414C529.986 332.369 506.883 340.137 500.235 343.729C496.613 345.968 496.156 350.046 504.461 353.514C512.766 356.989 517.146 355.944 522.882 355.487C526.968 358.329 530.855 363.004 550.365 359.102C552.184 349.435 549.018 343.7 549.018 343.7Z" fill="white" stroke="#1A1A1A" stroke-width="2" stroke-miterlimit="10" stroke-linecap="round" stroke-linejoin="round"/>
<path d="M427.827 593.835C458.229 593.835 482.875 587.275 482.875 579.184C482.875 571.092 458.229 564.533 427.827 564.533C397.425 564.533 372.779 571.092 372.779 579.184C372.779 587.275 397.425 593.835 427.827 593.835Z" fill="white" stroke="#1A1A1A" stroke-width="2" stroke-miterlimit="10" stroke-linecap="round" stroke-linejoin="round"/>
<path d="M461.355 533.567L427.827 532.661L394.299 533.567C394.299 533.567 389.771 582.659 427.827 579.184C465.882 582.659 461.355 533.567 461.355 533.567Z" fill="white" stroke="#1A1A1A" stroke-width="2" stroke-miterlimit="10" stroke-linecap="round" stroke-linejoin="round"/>
<path d="M427.783 540.016C446.365 540.016 461.429 537.307 461.429 533.964C461.429 530.622 446.365 527.913 427.783 527.913C409.201 527.913 394.137 530.622 394.137 533.964C394.137 537.307 409.201 540.016 427.783 540.016Z" fill="white" stroke="#1A1A1A" stroke-width="2" stroke-miterlimit="10" stroke-linecap="round" stroke-linejoin="round"/>
<path d="M427.783 537.557C411.585 537.557 402.419 535.334 400.498 533.964C402.412 532.602 411.585 530.372 427.783 530.372C443.972 530.372 453.146 532.595 455.067 533.964C453.146 535.334 443.972 537.557 427.783 537.557Z" fill="#1A1A1A" stroke="#1A1A1A" stroke-width="2" stroke-miterlimit="10" stroke-linecap="round" stroke-linejoin="round"/>
<path d="M456.37 540.016C456.37 540.016 481.984 532.89 482.654 547.504C483.324 562.118 452.52 565.74 452.52 565.74L453.536 561.323C453.536 561.323 475.284 556.795 476.418 549.992C477.552 543.189 472.568 543.079 469.512 543.079C466.457 543.079 457.622 545.457 457.622 545.457L456.37 540.016Z" fill="white" stroke="#1A1A1A" stroke-width="2" stroke-miterlimit="10" stroke-linecap="round" stroke-linejoin="round"/>
<path d="M663.458 526.197C693.86 526.197 718.506 519.638 718.506 511.546C718.506 503.454 693.86 496.895 663.458 496.895C633.056 496.895 608.41 503.454 608.41 511.546C608.41 519.638 633.056 526.197 663.458 526.197Z" fill="white" stroke="#1A1A1A" stroke-width="2" stroke-miterlimit="10" stroke-linecap="round" stroke-linejoin="round"/>
<path d="M700.601 465.929L667.073 465.023L633.545 465.929C633.545 465.929 629.017 515.021 667.073 511.546C705.136 515.021 700.601 465.929 700.601 465.929Z" fill="white" stroke="#1A1A1A" stroke-width="2" stroke-miterlimit="10" stroke-linecap="round" stroke-linejoin="round"/>
<path d="M667.028 472.379C685.61 472.379 700.674 469.669 700.674 466.327C700.674 462.984 685.61 460.275 667.028 460.275C648.446 460.275 633.383 462.984 633.383 466.327C633.383 469.669 648.446 472.379 667.028 472.379Z" fill="white" stroke="#1A1A1A" stroke-width="2" stroke-miterlimit="10" stroke-linecap="round" stroke-linejoin="round"/>
<path d="M667.028 469.949C650.691 469.949 641.437 467.704 639.501 466.327C641.43 464.95 650.684 462.705 667.028 462.705C683.365 462.705 692.62 464.95 694.556 466.327C692.627 467.704 683.373 469.949 667.028 469.949Z" fill="#1A1A1A" stroke="#1A1A1A" stroke-width="2" stroke-miterlimit="10" stroke-linecap="round" stroke-linejoin="round"/>
<path d="M695.616 472.379C695.616 472.379 721.23 465.252 721.9 479.866C722.57 494.48 691.766 498.102 691.766 498.102L692.782 493.685C692.782 493.685 714.53 489.157 715.664 482.354C716.798 475.559 711.813 475.441 708.758 475.441C705.703 475.441 696.868 477.819 696.868 477.819L695.616 472.379Z" fill="white" stroke="#1A1A1A" stroke-width="2" stroke-miterlimit="10" stroke-linecap="round" stroke-linejoin="round"/>
<path d="M573.704 550.338V557.354L522.285 563.031L489.979 547.518L490.149 540.576L522.285 556.014L573.704 550.338Z" fill="#1A1A1A" stroke="#1A1A1A" stroke-width="2" stroke-miterlimit="10" stroke-linecap="round" stroke-linejoin="round"/>
<path d="M573.704 550.338L522.285 556.014L490.149 540.576L489.979 540.502L537.459 536.512L573.704 550.338Z" fill="white" stroke="#1A1A1A" stroke-width="2" stroke-miterlimit="10" stroke-linecap="round" stroke-linejoin="round"/>
<path d="M538.026 536.511L554.79 519.291L593.413 534.133L573.704 550.338L538.026 536.511Z" fill="white" stroke="#1A1A1A" stroke-width="2" stroke-miterlimit="10" stroke-linecap="round" stroke-linejoin="round"/>
<path d="M596.019 539.229L593.413 534.134L573.704 550.338V557.355L596.019 539.229Z" fill="#1A1A1A" stroke="#1A1A1A" stroke-width="2" stroke-miterlimit="10" stroke-linecap="round" stroke-linejoin="round"/>
<path d="M761.038 498.102L746.093 556.014L835.339 559.85L824.016 496.895L761.038 498.102Z" fill="#E52A3D" fill-opacity="0.7" stroke="#1A1A1A" stroke-width="2" stroke-miterlimit="10" stroke-linecap="round" stroke-linejoin="round"/>
<path d="M369.156 616.489L482.661 636.433L438.929 688.993L315.492 654.589L369.156 616.489Z" fill="#E52A3D" fill-opacity="0.7" stroke="#1A1A1A" stroke-width="2" stroke-miterlimit="10" stroke-linecap="round" stroke-linejoin="round"/>
<path d="M524.7 143.71C524.7 143.71 518.207 144.468 515.792 136.915C513.377 129.361 514.128 124.377 516.55 122.713C518.965 121.049 527.424 117.574 532.556 122.713C535.427 115.461 537.687 115.314 539.808 115.763C542.981 107.907 550.38 110.322 550.38 110.322C550.38 110.322 556.417 108.209 564.574 110.322C572.732 112.435 573.939 121.196 573.939 121.196C573.939 121.196 579.976 119.223 582.848 126.548C585.719 133.881 582.391 134.485 582.848 135.545C583.304 136.605 592.213 133.432 593.118 139.926C594.024 146.419 592.36 147.48 592.36 147.48C592.36 147.48 596.674 149.143 593.383 157.75C590.092 166.357 587.221 162.587 588.126 166.658C589.032 170.737 591.3 179.042 586.764 180.102C582.237 181.162 571.51 180.654 569.095 177.054C566.68 173.454 569.095 172.099 569.095 172.099C569.095 172.099 578.231 172.629 576.869 164.398C575.507 156.167 567.276 160.548 567.276 160.548C567.276 160.548 571.583 151.256 569.161 147.104C565.612 147.561 561.085 150.204 557.757 146.427C554.436 142.65 548.694 138.726 542.2 141.288C535.707 143.857 532.828 133.285 532.828 133.285C532.828 133.285 530.288 143.563 524.7 143.71Z" fill="#1A1A1A" stroke="#1A1A1A" stroke-width="2" stroke-miterlimit="10" stroke-linecap="round" stroke-linejoin="round"/>
<path d="M134.026 462.874C134.026 462.874 89.1747 566.189 188.846 565.74C243.666 561.662 253.178 557.355 253.178 557.355C253.178 557.355 268.882 560.955 261.335 579.361C253.781 597.766 247.428 612.786 247.428 612.786L361.544 531.417C361.544 531.417 380.038 494.142 369.164 462.874C358.29 431.606 316.155 422.543 288.524 428.89C260.893 435.236 245.941 447.472 245.941 447.472L134.026 462.874Z" fill="#07689F" stroke="#1A1A1A" stroke-width="2" stroke-miterlimit="10" stroke-linecap="round" stroke-linejoin="round"/>
<path d="M268.58 264.032C273.108 268.649 284.799 270.504 297.786 261.529C310.773 252.555 310.258 216.369 310.258 216.369C310.258 216.369 269.787 205.34 258.008 225.277C246.228 245.214 232.527 288.637 232.527 288.637L263.743 302.007C263.743 302.007 272.21 272.529 274.632 267.839" fill="white"/>
<path d="M268.58 264.032C273.108 268.649 284.799 270.504 297.786 261.529C310.773 252.555 310.258 216.369 310.258 216.369C310.258 216.369 269.787 205.34 258.008 225.277C246.228 245.214 232.527 288.637 232.527 288.637L263.743 302.007C263.743 302.007 272.21 272.529 274.632 267.839" stroke="#1A1A1A" stroke-width="2" stroke-miterlimit="10" stroke-linecap="round" stroke-linejoin="round"/>
<path d="M182.051 311.07C182.051 311.07 170.727 326.023 168.46 352.763C166.192 379.496 168.46 388.11 151.696 412.125C134.932 436.141 115.252 452.751 121.797 466.327C128.335 479.903 139.467 468.734 154.869 472.379C170.271 476.023 185.224 487.346 198.358 493.243C211.5 499.133 257.478 504.574 261.556 471.267C265.635 437.96 261.785 430.487 257.478 419.605C253.171 408.731 262.005 391.437 262.005 391.437C262.005 391.437 287.832 324.904 274.013 304.51C260.194 284.117 243.659 278.227 230.296 282.306C216.933 286.377 191.401 291.162 182.051 311.07Z" fill="white" stroke="#1A1A1A" stroke-width="2" stroke-miterlimit="10" stroke-linecap="round" stroke-linejoin="round"/>
<path d="M272.887 309.487C272.887 309.487 283.533 313.33 286.249 333.157C288.966 352.984 286.853 386.593 296.667 394.603C306.481 402.606 335.326 399.285 335.326 399.285C335.326 399.285 338.905 399.749 338.345 405.33C330.188 412.427 306.635 413.031 293.339 407.296C280.057 401.553 272.887 309.487 272.887 309.487Z" fill="white" stroke="#1A1A1A" stroke-width="2" stroke-miterlimit="10" stroke-linecap="round" stroke-linejoin="round"/>
<path d="M340.274 405.669C340.274 405.669 343.028 398.837 349.374 397.018C355.713 395.207 360.999 397.173 362.059 399.735C363.119 402.304 364.776 409.556 363.421 414.54C362.067 419.525 356.191 423.147 351.347 423.147C346.503 423.147 342.505 421.034 340.274 421.034C338.043 421.034 337.594 407.443 337.594 407.443L340.274 405.669Z" fill="white" stroke="#1A1A1A" stroke-width="2" stroke-miterlimit="10" stroke-linecap="round" stroke-linejoin="round"/>
<path d="M336.386 424.568C336.386 424.568 348.468 431.157 353.6 431.459C358.731 431.761 370.57 425.024 370.769 419.937C370.967 414.849 365.379 408.805 361.757 408.046C358.135 407.288 349.55 411.882 348.917 412.884C348.917 412.884 346.502 416.057 347.71 418.17C348.917 420.283 349.521 422.668 347.253 424.575" fill="white"/>
<path d="M336.386 424.568C336.386 424.568 348.468 431.157 353.6 431.459C358.731 431.761 370.57 425.024 370.769 419.937C370.967 414.849 365.379 408.805 361.757 408.046C358.135 407.288 349.55 411.882 348.917 412.884C348.917 412.884 346.502 416.057 347.71 418.17C348.917 420.283 349.521 422.668 347.253 424.575" stroke="#1A1A1A" stroke-width="2" stroke-miterlimit="10" stroke-linecap="round" stroke-linejoin="round"/>
<path d="M248.275 391.43C252.729 419.716 276.185 435.979 291.837 436.745C318.997 438.07 320.469 433.24 328.737 429.839C337.189 426.364 338.654 423.758 338.654 423.758C345.906 422.999 346.51 406.236 338.654 403.821C338.654 403.821 309.963 413.487 296.071 402.01C282.178 390.532 283.231 355.664 281.191 335.034C279.152 314.405 279.38 311.556 274.021 304.51L265.951 294.49" fill="white"/>
<path d="M248.275 391.43C252.729 419.716 276.185 435.979 291.837 436.745C318.997 438.07 320.469 433.24 328.737 429.839C337.189 426.364 338.654 423.758 338.654 423.758C345.906 422.999 346.51 406.236 338.654 403.821C338.654 403.821 309.963 413.487 296.071 402.01C282.178 390.532 283.231 355.664 281.191 335.034C279.152 314.405 279.38 311.556 274.021 304.51L265.951 294.49" stroke="#1A1A1A" stroke-width="2" stroke-miterlimit="10" stroke-linecap="round" stroke-linejoin="round"/>
<path d="M253.737 583.41H113.529C106.336 583.41 100.498 577.579 100.498 570.378C100.498 563.185 106.329 557.347 113.529 557.347H253.737C260.93 557.347 266.769 563.178 266.769 570.378C266.769 577.579 260.938 583.41 253.737 583.41Z" fill="white" stroke="#1A1A1A" stroke-width="2" stroke-miterlimit="10" stroke-linecap="round" stroke-linejoin="round"/>
<path d="M158.491 327.539C158.491 327.539 138.252 352.343 153.205 360.331C168.158 368.319 172.082 365.301 176.61 376.631C181.138 387.962 195.943 389.471 202.584 383.581C209.232 377.692 213.156 367.87 213.156 367.87C213.156 367.87 240.677 389.353 247.075 364.866C253.472 340.379 240.971 332.524 247.075 316.216C253.178 299.901 251.661 274.752 262.234 262.368C268.801 255.234 271.297 243.565 271.297 243.565C271.297 243.565 263.596 237.675 267.674 230.725C271.753 223.775 278.696 226.801 279.152 231.483C280.514 235.106 282.627 232.242 282.627 232.242C282.627 232.242 286.102 221.817 291.234 219.704C296.365 217.591 304.376 232.691 312.077 226.197C316.001 224.99 315.478 216.604 315.478 216.604C315.478 216.604 316.133 203.462 304.155 197.572C289.518 190.379 262.248 180.617 243.217 213.504C243.217 213.504 224.192 253.187 213.016 261.389C201.833 269.576 157.586 294.534 158.491 327.539Z" fill="#1A1A1A" stroke="#1A1A1A" stroke-width="2" stroke-miterlimit="10" stroke-linecap="round" stroke-linejoin="round"/>
<path d="M488.986 289.086C493.447 273.765 493.69 262.979 496.466 252.164L488.986 289.086Z" fill="white"/>
<path d="M488.986 289.086C493.447 273.765 493.69 262.979 496.466 252.164" stroke="#1A1A1A" stroke-width="2" stroke-miterlimit="10" stroke-linecap="round" stroke-linejoin="round"/>
<path d="M473.812 306.992L489.98 288.041" stroke="#1A1A1A" stroke-width="2" stroke-miterlimit="10" stroke-linecap="round" stroke-linejoin="round"/>
<path d="M560.231 252.275C556.491 246.414 536.222 246.952 526.482 254.881C517.728 262.008 514.054 266.469 508.422 271.424C509.217 277.439 510.704 283.498 518.899 285.361C520.879 282.416 523.581 278.47 527.741 278.249C534.632 277.888 539.8 271.159 544.387 270.629C552.198 269.723 546.485 264.231 540.537 264.172C550.601 259.416 563.625 257.598 560.231 252.275Z" fill="white" stroke="#1A1A1A" stroke-width="2" stroke-miterlimit="10" stroke-linecap="round" stroke-linejoin="round"/>
<path d="M540.824 264.032C537.12 266.197 530.737 269.952 530.737 269.952C530.737 269.952 522.749 276.614 520.651 281.275" stroke="#1A1A1A" stroke-width="2" stroke-miterlimit="10" stroke-linecap="round" stroke-linejoin="round"/>
<path d="M714.228 260.771C714.228 260.771 713.595 275.274 717.387 296.117C718.609 279.235 715.016 257.826 715.016 257.826L714.228 260.771Z" fill="#1A1A1A" stroke="#1A1A1A" stroke-width="2" stroke-miterlimit="10" stroke-linecap="round" stroke-linejoin="round"/>
<path class="right-circle" d="M865.789 249.462C892.487 249.462 914.13 227.991 914.13 201.504C914.13 175.018 892.487 153.546 865.789 153.546C839.091 153.546 817.448 175.018 817.448 201.504C817.448 227.991 839.091 249.462 865.789 249.462Z" fill="#1A1A1A" stroke="#1A1A1A" stroke-width="2" stroke-miterlimit="10" stroke-linecap="round" stroke-linejoin="round"/>
<path class="left-circle" d="M40.3037 314.287C61.9516 314.287 79.5007 296.877 79.5007 275.399C79.5007 253.922 61.9516 236.512 40.3037 236.512C18.6558 236.512 1.10669 253.922 1.10669 275.399C1.10669 296.877 18.6558 314.287 40.3037 314.287Z" fill="#1A1A1A" stroke="#1A1A1A" stroke-width="2" stroke-miterlimit="10" stroke-linecap="round" stroke-linejoin="round"/>
<path d="M736.308 47.0352H665.041C644.249 47.0352 627.39 63.8949 627.39 84.6934V85.091C627.39 104.712 642.387 120.813 661.543 122.58C660.38 127.049 658.886 132.548 657.509 137.54C656.36 141.722 661.308 144.866 664.606 142.046L687.15 122.742H736.3C757.092 122.742 773.951 105.882 773.951 85.0836V84.686C773.959 63.9022 757.106 47.0352 736.308 47.0352Z" fill="#07689F" stroke="#1A1A1A" stroke-width="2" stroke-miterlimit="10" stroke-linecap="round" stroke-linejoin="round"/>
<path class="dot dot2" d="M666.454 89.3093C670.089 89.3093 673.036 86.3625 673.036 82.7274C673.036 79.0923 670.089 76.1455 666.454 76.1455C662.819 76.1455 659.872 79.0923 659.872 82.7274C659.872 86.3625 662.819 89.3093 666.454 89.3093Z" fill="#1A1A1A" stroke-width="6" stroke-miterlimit="10" stroke-linecap="round" stroke-linejoin="round"/>
<path class="dot dot1" d="M703.141 89.3093C706.776 89.3093 709.722 86.3625 709.722 82.7274C709.722 79.0923 706.776 76.1455 703.141 76.1455C699.505 76.1455 696.559 79.0923 696.559 82.7274C696.559 86.3625 699.505 89.3093 703.141 89.3093Z" fill="#1A1A1A" stroke-width="6" stroke-miterlimit="10" stroke-linecap="round" stroke-linejoin="round"/>
<path class="dot dot3" d="M740.629 89.3093C744.265 89.3093 747.211 86.3625 747.211 82.7274C747.211 79.0923 744.265 76.1455 740.629 76.1455C736.994 76.1455 734.048 79.0923 734.048 82.7274C734.048 86.3625 736.994 89.3093 740.629 89.3093Z" fill="#1A1A1A" stroke-width="6" stroke-miterlimit="10" stroke-linecap="round" stroke-linejoin="round"/>
<style>
.bulb{
  animation: bulbLight 2s infinite ease-in-out;
}

@keyframes bulbLight {
			0%, 100% {
				fill:#1a1a1a;
			}

			50% {
				fill:yellow;
			}
		}

.dot{
  animation: 1s blink infinite ease-in-out;
}

@keyframes blink { 50% { 
  stroke: transparent;
  fill:transparent;
  }}

.dot1 { animation-delay: 0ms }
.dot2 { animation-delay: 250ms }
.dot3 { animation-delay: 500ms }

.right-circle{
  animation: rightcricle 2s infinite linear ;
}

@keyframes rightcricle {
			0% {
				transform: translate(140px,20px);
			}

			100% {
				transform:translate(-50px,40px);
			}
		}

.left-circle{
   animation: leftcricle 2s infinite linear ;
}

@keyframes leftcricle {
			0% {
				transform: translate(-140px,20px);
			}

			100% {
				transform:translate(0,0);
			}
		}

.stroke-circle{
  stroke-dasharray: 1000;
  stroke-dashoffset: 1000;
  animation: dash 2s linear forwards infinite;
}

@keyframes dash {
  to {
    stroke-dashoffset: 0;
  }
}
</style>
</svg>