<svg width="275" height="272" viewBox="0 0 275 272" fill="none" xmlns="http://www.w3.org/2000/svg">
<path d="M102 86.5L110.5 101.5H128L137 86.5L128 71H110.5L102 86.5Z" stroke="black" stroke-width="2"/>
<path d="M133 103.5L141.5 118.5H159L168 103.5L159 88H141.5L133 103.5Z" stroke="black" stroke-width="2"/>
<path d="M102 121.5L110.5 136.5H128L137 121.5L128 106H110.5L102 121.5Z" stroke="black" stroke-width="2"/>
<path d="M80.7493 163.293C80.6 163.418 80.488 163.53 80.4133 163.629L79.592 169.491C79.8409 169.69 80.0773 169.876 80.3013 170.051C80.5253 170.2 80.7867 170.275 81.0853 170.275C81.9564 170.275 82.616 169.988 83.064 169.416C83.5369 168.819 83.8853 167.848 84.1093 166.504C84.3084 164.986 84.2711 163.928 83.9973 163.331C83.7484 162.733 83.3129 162.435 82.6907 162.435C82.0684 162.435 81.4213 162.721 80.7493 163.293ZM78.2107 154.483L81.7573 153.997L80.7493 161.277C80.9484 161.128 81.1724 160.954 81.4213 160.755C81.6951 160.531 81.9938 160.332 82.3173 160.157C83.0391 159.709 83.7236 159.485 84.3707 159.485C85.0178 159.485 85.5778 159.622 86.0507 159.896C86.5236 160.145 86.9093 160.543 87.208 161.091C87.88 162.335 88.0542 164.04 87.7307 166.205C87.3822 168.495 86.6729 170.237 85.6027 171.432C84.6071 172.577 83.4373 173.149 82.0933 173.149C80.9733 173.149 80.1022 172.776 79.48 172.029C79.3307 171.83 79.1938 171.644 79.0693 171.469L78.5467 173H75.6347L78.2107 154.483ZM89.1877 176.024C90.3077 176.397 91.3904 176.584 92.4357 176.584C93.1824 176.584 93.6677 176.484 93.8917 176.285C94.3646 175.862 94.6881 175.153 94.8624 174.157L95.3104 171.32H95.2357C93.9166 172.639 92.6224 173.299 91.353 173.299C90.0837 173.299 89.2499 172.925 88.8517 172.179C88.4535 171.407 88.3539 170.237 88.553 168.669L89.8224 159.784H93.3317L92.1744 167.811C92.0748 168.856 92.0624 169.491 92.137 169.715C92.3112 170.088 92.6597 170.275 93.1824 170.275C93.7797 170.275 94.4641 169.914 95.2357 169.192C95.4099 169.043 95.5468 168.931 95.6464 168.856L96.9157 159.784H100.388L98.3717 174.083C98.1228 175.825 97.5504 177.107 96.6544 177.928C95.7584 178.774 94.4392 179.197 92.697 179.197C91.4775 179.197 90.0837 178.936 88.5157 178.413L89.1877 176.024ZM108.819 159.784L108.52 162.323H105.645L104.749 168.669C104.65 169.242 104.65 169.665 104.749 169.939C104.849 170.212 105.098 170.349 105.496 170.349C105.919 170.349 106.28 170.3 106.579 170.2C106.877 170.076 107.076 170.001 107.176 169.976V172.44C107.076 172.465 106.927 172.527 106.728 172.627C106.529 172.726 106.305 172.826 106.056 172.925C105.434 173.199 104.737 173.336 103.965 173.336C102.771 173.336 101.962 173.025 101.539 172.403C101.116 171.756 101.004 170.673 101.203 169.155L102.211 162.323H100.792L101.128 159.784H102.547L102.995 156.611L106.541 156.051L105.981 159.784H108.819ZM116.63 165.272C116.804 164.003 116.767 163.132 116.518 162.659C116.269 162.186 115.908 161.949 115.435 161.949C114.987 161.949 114.527 162.198 114.054 162.696C113.606 163.169 113.295 164.028 113.121 165.272H116.63ZM114.987 170.685C116.083 170.685 117.178 170.374 118.273 169.752L118.646 172.067C118.049 172.515 117.053 172.876 115.659 173.149C115.137 173.274 114.539 173.336 113.867 173.336C113.195 173.336 112.536 173.212 111.889 172.963C111.267 172.714 110.756 172.328 110.358 171.805C109.437 170.611 109.139 168.931 109.462 166.765C109.786 164.426 110.557 162.596 111.777 161.277C112.922 160.083 114.266 159.485 115.809 159.485C118.148 159.485 119.53 160.605 119.953 162.845C120.177 164.015 120.09 165.359 119.691 166.877C119.617 167.201 119.555 167.388 119.505 167.437H112.822C112.648 168.582 112.772 169.416 113.195 169.939C113.643 170.436 114.241 170.685 114.987 170.685ZM125.787 163.293C125.637 163.418 125.525 163.53 125.451 163.629L124.629 169.491C124.878 169.69 125.115 169.876 125.339 170.051C125.563 170.2 125.824 170.275 126.123 170.275C126.994 170.275 127.653 169.988 128.101 169.416C128.574 168.819 128.923 167.848 129.147 166.504C129.346 164.986 129.308 163.928 129.035 163.331C128.786 162.733 128.35 162.435 127.728 162.435C127.106 162.435 126.459 162.721 125.787 163.293ZM123.248 154.483L126.795 153.997L125.787 161.277C125.986 161.128 126.21 160.954 126.459 160.755C126.732 160.531 127.031 160.332 127.355 160.157C128.076 159.709 128.761 159.485 129.408 159.485C130.055 159.485 130.615 159.622 131.088 159.896C131.561 160.145 131.947 160.543 132.245 161.091C132.917 162.335 133.092 164.04 132.768 166.205C132.42 168.495 131.71 170.237 130.64 171.432C129.644 172.577 128.475 173.149 127.131 173.149C126.011 173.149 125.14 172.776 124.517 172.029C124.368 171.83 124.231 171.644 124.107 171.469L123.584 173H120.672L123.248 154.483ZM136.764 173H133.292L135.158 159.784H138.22L138.108 161.539H138.145C138.518 160.941 138.991 160.444 139.564 160.045C140.136 159.647 140.634 159.448 141.057 159.448C141.48 159.448 141.754 159.485 141.878 159.56C142.028 159.61 142.165 159.66 142.289 159.709L141.58 162.733C141.43 162.708 141.231 162.659 140.982 162.584C140.758 162.509 140.497 162.472 140.198 162.472C139.9 162.472 139.589 162.572 139.265 162.771C138.941 162.97 138.531 163.293 138.033 163.741L136.764 173ZM147.22 153.624C147.792 153.624 148.228 153.823 148.526 154.221C148.85 154.62 148.962 155.13 148.862 155.752C148.788 156.349 148.539 156.847 148.116 157.245C147.692 157.619 147.195 157.805 146.622 157.805C146.075 157.805 145.639 157.619 145.316 157.245C144.992 156.847 144.868 156.349 144.942 155.752C145.067 155.13 145.34 154.62 145.764 154.221C146.187 153.823 146.672 153.624 147.22 153.624ZM146.212 173H142.74L144.532 160.008L148.116 159.523L146.212 173ZM157.948 162.659C157.4 162.36 156.877 162.211 156.38 162.211C155.533 162.211 154.861 162.509 154.364 163.107C153.891 163.704 153.542 164.787 153.318 166.355C153.119 167.898 153.132 168.956 153.356 169.528C153.604 170.1 154.077 170.387 154.774 170.387C155.197 170.387 155.608 170.262 156.006 170.013C156.429 169.74 156.765 169.453 157.014 169.155L157.948 162.659ZM152.049 161.165C152.621 160.593 153.256 160.182 153.953 159.933C154.65 159.684 155.359 159.56 156.081 159.56C156.803 159.56 157.537 159.747 158.284 160.12L159.068 154.483L162.577 153.997L159.926 173H157.014V171.432C155.596 172.701 154.214 173.336 152.87 173.336C150.929 173.336 149.821 172.129 149.548 169.715C149.448 168.868 149.485 167.823 149.66 166.579C149.834 165.309 150.132 164.227 150.556 163.331C150.979 162.435 151.476 161.713 152.049 161.165ZM166.915 169.565C167.015 169.864 167.176 170.076 167.4 170.2C167.624 170.3 167.935 170.349 168.334 170.349C168.732 170.349 169.143 170.2 169.566 169.901C169.989 169.603 170.325 169.304 170.574 169.005L171.283 163.741C170.885 163.244 170.549 162.908 170.275 162.733C170.001 162.559 169.678 162.472 169.304 162.472C168.483 162.472 167.898 162.82 167.55 163.517C167.226 164.189 166.99 165.197 166.84 166.541C166.616 167.836 166.641 168.844 166.915 169.565ZM164.152 176.024C165.272 176.397 166.355 176.584 167.4 176.584C168.097 176.584 168.583 176.484 168.856 176.285C169.404 175.837 169.727 175.128 169.827 174.157L170.238 171.544H170.2C169.802 171.942 169.267 172.34 168.595 172.739C167.948 173.137 167.276 173.336 166.579 173.336C165.907 173.336 165.322 173.212 164.824 172.963C164.351 172.689 163.966 172.278 163.667 171.731C163.02 170.561 162.858 168.943 163.182 166.877C163.505 164.538 164.215 162.721 165.31 161.427C166.33 160.207 167.487 159.597 168.782 159.597C169.528 159.597 170.126 159.784 170.574 160.157C171.047 160.506 171.482 160.979 171.88 161.576L172.366 159.784H175.278L173.299 174.083C173.05 175.825 172.478 177.107 171.582 177.928C170.686 178.774 169.379 179.197 167.662 179.197C166.716 179.197 165.87 179.098 165.123 178.899C164.401 178.7 163.841 178.538 163.443 178.413L164.152 176.024ZM183.079 165.272C183.253 164.003 183.216 163.132 182.967 162.659C182.718 162.186 182.357 161.949 181.884 161.949C181.436 161.949 180.976 162.198 180.503 162.696C180.055 163.169 179.744 164.028 179.569 165.272H183.079ZM181.436 170.685C182.531 170.685 183.626 170.374 184.721 169.752L185.095 172.067C184.497 172.515 183.502 172.876 182.108 173.149C181.585 173.274 180.988 173.336 180.316 173.336C179.644 173.336 178.984 173.212 178.337 172.963C177.715 172.714 177.205 172.328 176.807 171.805C175.886 170.611 175.587 168.931 175.911 166.765C176.234 164.426 177.006 162.596 178.225 161.277C179.37 160.083 180.714 159.485 182.257 159.485C184.597 159.485 185.978 160.605 186.401 162.845C186.625 164.015 186.538 165.359 186.14 166.877C186.065 167.201 186.003 167.388 185.953 167.437H179.271C179.096 168.582 179.221 169.416 179.644 169.939C180.092 170.436 180.689 170.685 181.436 170.685ZM188.054 169.976C188.129 170.001 188.265 170.063 188.465 170.163C188.664 170.262 188.9 170.362 189.174 170.461C189.871 170.685 190.456 170.797 190.929 170.797C191.401 170.797 191.775 170.723 192.049 170.573C192.347 170.399 192.521 170.113 192.571 169.715C192.646 169.292 192.584 168.943 192.385 168.669C192.185 168.371 191.924 168.084 191.601 167.811C191.302 167.537 190.966 167.263 190.593 166.989C190.219 166.691 189.883 166.355 189.585 165.981C188.888 165.16 188.614 164.202 188.763 163.107C188.913 162.012 189.41 161.14 190.257 160.493C191.128 159.821 192.285 159.485 193.729 159.485C194.849 159.485 195.931 159.66 196.977 160.008L196.454 162.547C196.255 162.522 195.906 162.435 195.409 162.285C194.936 162.136 194.425 162.061 193.878 162.061C192.833 162.061 192.248 162.41 192.123 163.107C192.073 163.43 192.148 163.729 192.347 164.003C192.571 164.252 192.845 164.513 193.169 164.787C193.492 165.036 193.853 165.309 194.251 165.608C194.649 165.882 195.01 166.193 195.334 166.541C196.081 167.338 196.367 168.284 196.193 169.379C196.093 170.474 195.62 171.407 194.774 172.179C193.878 172.95 192.658 173.336 191.115 173.336C190.095 173.336 189.323 173.236 188.801 173.037C187.905 172.714 187.345 172.465 187.121 172.291L188.054 169.976Z" fill="black"/>
<path d="M92.7531 15.6883C67.5531 31.6883 31.9198 72.355 17.2531 90.6883C-6.24689 126.688 2.75311 153.688 9.25311 168.188C15.7531 182.688 60.7531 240.188 97.7531 259.188C134.753 278.188 162.753 270.188 184.253 254.688C205.753 239.188 247.753 203.188 263.753 170.688C279.753 138.188 272.753 115.688 253.753 87.1883C234.753 58.6883 187.253 18.1883 170.753 9.68832C154.253 1.18832 124.253 -4.31168 92.7531 15.6883Z" stroke="black" stroke-width="3"/>
<path d="M64.608 199.288C64.512 199.952 64.528 200.432 64.656 200.728C64.8 201.048 65.096 201.208 65.544 201.208C65.744 201.208 65.928 201.18 66.096 201.124C66.272 201.068 66.404 201.028 66.492 201.004C66.5 201.148 66.504 201.292 66.504 201.436C66.504 201.58 66.512 201.724 66.528 201.868C66.328 201.948 66.104 202.012 65.856 202.06C65.608 202.108 65.396 202.132 65.22 202.132C64.476 202.132 63.952 201.9 63.648 201.436C63.352 200.972 63.272 200.256 63.408 199.288C63.544 198.312 63.828 197.596 64.26 197.14C64.692 196.684 65.28 196.456 66.024 196.456C66.272 196.456 66.496 196.48 66.696 196.528C66.896 196.576 67.028 196.616 67.092 196.648C67.164 196.68 67.216 196.7 67.248 196.708L66.972 197.572C66.884 197.548 66.76 197.508 66.6 197.452C66.448 197.396 66.28 197.368 66.096 197.368C65.616 197.368 65.268 197.528 65.052 197.848C64.836 198.16 64.688 198.64 64.608 199.288ZM69.5136 201.196C69.8416 201.196 70.0976 201.032 70.2816 200.704C70.4656 200.368 70.5976 199.896 70.6776 199.288C70.7656 198.672 70.7616 198.2 70.6656 197.872C70.5696 197.536 70.3616 197.368 70.0416 197.368C69.7296 197.368 69.4816 197.536 69.2976 197.872C69.1136 198.2 68.9776 198.672 68.8896 199.288C68.8016 199.896 68.8016 200.368 68.8896 200.704C68.9776 201.032 69.1856 201.196 69.5136 201.196ZM70.1736 196.456C70.8456 196.456 71.3296 196.684 71.6256 197.14C71.9216 197.596 72.0016 198.312 71.8656 199.288C71.7296 200.256 71.4496 200.968 71.0256 201.424C70.6016 201.88 70.0536 202.108 69.3816 202.108C67.9976 202.108 67.4376 201.168 67.7016 199.288C67.8376 198.312 68.1176 197.596 68.5416 197.14C68.9656 196.684 69.5096 196.456 70.1736 196.456ZM73.9868 196.552L75.2228 199.972H75.2348C75.2508 199.924 75.2708 199.724 75.2948 199.372L75.6908 196.552H76.7108L75.9428 202H74.9228L73.6508 198.568C73.6428 198.624 73.6348 198.708 73.6268 198.82C73.6188 198.932 73.6028 199.052 73.5788 199.18L73.1948 202H72.1868L72.9548 196.552H73.9868ZM78.6759 196.552L79.9119 199.972H79.9239C79.9399 199.924 79.9599 199.724 79.9839 199.372L80.3799 196.552H81.3999L80.6319 202H79.6119L78.3399 198.568C78.3319 198.624 78.3239 198.708 78.3159 198.82C78.3079 198.932 78.2919 199.052 78.2679 199.18L77.8839 202H76.8759L77.6439 196.552H78.6759ZM81.5651 202L82.3331 196.552H85.2731L85.1291 197.488H83.3651L83.1851 198.748H84.5291L84.4091 199.624H83.0531L82.8491 201.064H84.6371L84.5171 202H81.5651ZM86.8408 199.288C86.7448 199.952 86.7608 200.432 86.8888 200.728C87.0328 201.048 87.3288 201.208 87.7768 201.208C87.9768 201.208 88.1608 201.18 88.3288 201.124C88.5048 201.068 88.6368 201.028 88.7248 201.004C88.7328 201.148 88.7368 201.292 88.7368 201.436C88.7368 201.58 88.7448 201.724 88.7608 201.868C88.5608 201.948 88.3368 202.012 88.0888 202.06C87.8408 202.108 87.6288 202.132 87.4528 202.132C86.7088 202.132 86.1848 201.9 85.8808 201.436C85.5848 200.972 85.5048 200.256 85.6408 199.288C85.7768 198.312 86.0608 197.596 86.4928 197.14C86.9248 196.684 87.5128 196.456 88.2568 196.456C88.5048 196.456 88.7288 196.48 88.9288 196.528C89.1288 196.576 89.2608 196.616 89.3248 196.648C89.3968 196.68 89.4488 196.7 89.4808 196.708L89.2048 197.572C89.1168 197.548 88.9928 197.508 88.8328 197.452C88.6808 197.396 88.5128 197.368 88.3288 197.368C87.8488 197.368 87.5008 197.528 87.2848 197.848C87.0688 198.16 86.9208 198.64 86.8408 199.288ZM93.1144 197.488H92.0104L91.3744 202H90.2224L90.8464 197.488H89.7304L89.8504 196.552H93.2584L93.1144 197.488ZM94.6048 202H93.4528L94.2208 196.552H95.3728L94.6048 202ZM97.2964 196.552L98.5324 199.972H98.5444C98.5604 199.924 98.5804 199.724 98.6044 199.372L99.0004 196.552H100.02L99.2524 202H98.2324L96.9604 198.568C96.9524 198.624 96.9444 198.708 96.9364 198.82C96.9284 198.932 96.9124 199.052 96.8884 199.18L96.5044 202H95.4964L96.2644 196.552H97.2964ZM103.822 201.868C103.622 201.932 103.35 201.992 103.006 202.048C102.662 202.104 102.394 202.132 102.202 202.132C101.458 202.132 100.934 201.9 100.63 201.436C100.334 200.972 100.254 200.256 100.39 199.288C100.526 198.312 100.81 197.596 101.242 197.14C101.674 196.684 102.262 196.456 103.006 196.456C103.23 196.456 103.466 196.48 103.714 196.528C103.962 196.576 104.126 196.616 104.206 196.648C104.286 196.68 104.342 196.7 104.374 196.708L104.098 197.572C103.954 197.5 103.77 197.448 103.546 197.416C103.322 197.384 103.166 197.368 103.078 197.368C102.598 197.368 102.25 197.528 102.034 197.848C101.818 198.16 101.67 198.64 101.59 199.288C101.494 199.952 101.51 200.432 101.638 200.728C101.782 201.048 102.078 201.208 102.526 201.208H102.766L102.97 199.756H102.394L102.526 198.844H104.242L103.822 201.868ZM110.663 197.488H109.559L108.923 202H107.771L108.395 197.488H107.279L107.399 196.552H110.807L110.663 197.488ZM113.017 201.196C113.345 201.196 113.601 201.032 113.785 200.704C113.969 200.368 114.101 199.896 114.181 199.288C114.269 198.672 114.265 198.2 114.169 197.872C114.073 197.536 113.865 197.368 113.545 197.368C113.233 197.368 112.985 197.536 112.801 197.872C112.617 198.2 112.481 198.672 112.393 199.288C112.305 199.896 112.305 200.368 112.393 200.704C112.481 201.032 112.689 201.196 113.017 201.196ZM113.677 196.456C114.349 196.456 114.833 196.684 115.129 197.14C115.425 197.596 115.505 198.312 115.369 199.288C115.233 200.256 114.953 200.968 114.529 201.424C114.105 201.88 113.557 202.108 112.885 202.108C111.501 202.108 110.941 201.168 111.205 199.288C111.341 198.312 111.621 197.596 112.045 197.14C112.469 196.684 113.013 196.456 113.677 196.456ZM120.07 198.532L118.774 201.544H117.982C117.966 201.416 117.914 201.092 117.826 200.572C117.738 200.044 117.678 199.68 117.646 199.48C117.582 198.984 117.538 198.668 117.514 198.532L116.806 202H115.69L116.962 196.552H118.09C118.098 196.632 118.118 196.76 118.15 196.936C118.182 197.104 118.214 197.296 118.246 197.512C118.286 197.72 118.326 197.948 118.366 198.196C118.406 198.444 118.442 198.684 118.474 198.916C118.506 199.14 118.534 199.348 118.558 199.54C118.582 199.732 118.602 199.884 118.618 199.996C118.65 199.892 118.706 199.744 118.786 199.552C118.874 199.36 118.966 199.148 119.062 198.916C119.158 198.684 119.262 198.448 119.374 198.208C119.486 197.96 119.59 197.728 119.686 197.512C119.79 197.296 119.878 197.104 119.95 196.936C120.03 196.76 120.09 196.632 120.13 196.552H121.258L120.994 202H119.83C119.838 201.912 119.846 201.78 119.854 201.604C119.862 201.428 119.874 201.232 119.89 201.016C119.914 200.792 119.93 200.56 119.938 200.32C119.954 200.08 119.97 199.848 119.986 199.624C120.002 199.4 120.018 199.192 120.034 199C120.05 198.8 120.062 198.644 120.07 198.532ZM125.77 198.532L124.474 201.544H123.682C123.666 201.416 123.614 201.092 123.526 200.572C123.438 200.044 123.378 199.68 123.346 199.48C123.282 198.984 123.238 198.668 123.214 198.532L122.506 202H121.39L122.662 196.552H123.79C123.798 196.632 123.818 196.76 123.85 196.936C123.882 197.104 123.914 197.296 123.946 197.512C123.986 197.72 124.026 197.948 124.066 198.196C124.106 198.444 124.142 198.684 124.174 198.916C124.206 199.14 124.234 199.348 124.258 199.54C124.282 199.732 124.302 199.884 124.318 199.996C124.35 199.892 124.406 199.744 124.486 199.552C124.574 199.36 124.666 199.148 124.762 198.916C124.858 198.684 124.962 198.448 125.074 198.208C125.186 197.96 125.29 197.728 125.386 197.512C125.49 197.296 125.578 197.104 125.65 196.936C125.73 196.76 125.79 196.632 125.83 196.552H126.958L126.694 202H125.53C125.538 201.912 125.546 201.78 125.554 201.604C125.562 201.428 125.574 201.232 125.59 201.016C125.614 200.792 125.63 200.56 125.638 200.32C125.654 200.08 125.67 199.848 125.686 199.624C125.702 199.4 125.718 199.192 125.734 199C125.75 198.8 125.762 198.644 125.77 198.532ZM129.106 201.196C129.434 201.196 129.69 201.032 129.874 200.704C130.058 200.368 130.19 199.896 130.27 199.288C130.358 198.672 130.354 198.2 130.258 197.872C130.162 197.536 129.954 197.368 129.634 197.368C129.322 197.368 129.074 197.536 128.89 197.872C128.706 198.2 128.57 198.672 128.482 199.288C128.394 199.896 128.394 200.368 128.482 200.704C128.57 201.032 128.778 201.196 129.106 201.196ZM129.766 196.456C130.438 196.456 130.922 196.684 131.218 197.14C131.514 197.596 131.594 198.312 131.458 199.288C131.322 200.256 131.042 200.968 130.618 201.424C130.194 201.88 129.646 202.108 128.974 202.108C127.59 202.108 127.03 201.168 127.294 199.288C127.43 198.312 127.71 197.596 128.134 197.14C128.558 196.684 129.102 196.456 129.766 196.456ZM133.279 199.084L133.783 199.108C134.239 199.108 134.511 198.824 134.599 198.256C134.695 197.672 134.487 197.38 133.975 197.38C133.855 197.38 133.699 197.388 133.507 197.404L133.279 199.084ZM133.579 199.936L133.159 199.924L132.871 202H131.779L132.547 196.552C132.547 196.552 133.035 196.54 134.011 196.516C134.707 196.516 135.187 196.648 135.451 196.912C135.731 197.176 135.831 197.632 135.751 198.28C135.687 198.712 135.547 199.052 135.331 199.3C135.115 199.54 134.879 199.7 134.623 199.78L135.379 202H134.155L133.579 199.936ZM138.054 201.196C138.382 201.196 138.638 201.032 138.822 200.704C139.006 200.368 139.138 199.896 139.218 199.288C139.306 198.672 139.302 198.2 139.206 197.872C139.11 197.536 138.902 197.368 138.582 197.368C138.27 197.368 138.022 197.536 137.838 197.872C137.654 198.2 137.518 198.672 137.43 199.288C137.342 199.896 137.342 200.368 137.43 200.704C137.518 201.032 137.726 201.196 138.054 201.196ZM138.714 196.456C139.386 196.456 139.87 196.684 140.166 197.14C140.462 197.596 140.542 198.312 140.406 199.288C140.27 200.256 139.99 200.968 139.566 201.424C139.142 201.88 138.594 202.108 137.922 202.108C136.538 202.108 135.978 201.168 136.242 199.288C136.378 198.312 136.658 197.596 137.082 197.14C137.506 196.684 138.05 196.456 138.714 196.456ZM146.667 196.552L144.771 202H143.679L143.415 198.532L142.167 202H141.099L140.727 196.552H141.879L142.035 200.236L143.211 196.996H144.099L144.351 200.236L145.539 196.552H146.667ZM148.041 195.673C147.987 195.883 147.918 196.111 147.834 196.357C147.75 196.603 147.657 196.849 147.555 197.095C147.459 197.335 147.363 197.563 147.267 197.779H146.682C146.724 197.611 146.766 197.431 146.808 197.239C146.856 197.047 146.898 196.855 146.934 196.663C146.976 196.465 147.012 196.273 147.042 196.087C147.078 195.901 147.108 195.73 147.132 195.574H147.978L148.041 195.673ZM150.739 196.456C151.123 196.456 151.407 196.492 151.591 196.564C151.775 196.636 151.903 196.692 151.975 196.732C152.055 196.772 152.115 196.8 152.155 196.816L151.759 197.644L151.603 197.56C151.275 197.4 150.987 197.32 150.739 197.32C150.531 197.32 150.347 197.392 150.187 197.536C150.043 197.672 149.971 197.8 149.971 197.92C149.947 198.088 149.975 198.232 150.055 198.352C150.143 198.472 150.255 198.584 150.391 198.688C150.527 198.792 150.675 198.896 150.835 199C151.003 199.104 151.151 199.224 151.279 199.36C151.599 199.672 151.723 200.064 151.651 200.536C151.587 201.008 151.383 201.388 151.039 201.676C150.695 201.964 150.223 202.108 149.623 202.108C149.135 202.108 148.711 202.008 148.351 201.808C148.279 201.76 148.219 201.724 148.171 201.7L148.555 200.872C148.595 200.888 148.647 200.916 148.711 200.956C148.783 200.996 148.863 201.032 148.951 201.064C149.175 201.16 149.383 201.208 149.575 201.208C149.927 201.208 150.191 201.088 150.367 200.848C150.423 200.776 150.459 200.676 150.475 200.548C150.499 200.412 150.467 200.292 150.379 200.188C150.291 200.076 150.179 199.972 150.043 199.876C149.907 199.772 149.759 199.668 149.599 199.564C149.439 199.452 149.291 199.328 149.155 199.192C148.843 198.88 148.719 198.488 148.783 198.016C148.847 197.536 149.051 197.156 149.395 196.876C149.739 196.596 150.187 196.456 150.739 196.456ZM158.517 197.488H157.413L156.777 202H155.625L156.249 197.488H155.133L155.253 196.552H158.661L158.517 197.488ZM158.855 202L159.623 196.552H162.563L162.419 197.488H160.655L160.475 198.748H161.819L161.699 199.624H160.343L160.139 201.064H161.927L161.807 202H158.855ZM164.131 199.288C164.035 199.952 164.051 200.432 164.179 200.728C164.323 201.048 164.619 201.208 165.067 201.208C165.267 201.208 165.451 201.18 165.619 201.124C165.795 201.068 165.927 201.028 166.015 201.004C166.023 201.148 166.027 201.292 166.027 201.436C166.027 201.58 166.035 201.724 166.051 201.868C165.851 201.948 165.627 202.012 165.379 202.06C165.131 202.108 164.919 202.132 164.743 202.132C163.999 202.132 163.475 201.9 163.171 201.436C162.875 200.972 162.795 200.256 162.931 199.288C163.067 198.312 163.351 197.596 163.783 197.14C164.215 196.684 164.803 196.456 165.547 196.456C165.795 196.456 166.019 196.48 166.219 196.528C166.419 196.576 166.551 196.616 166.615 196.648C166.687 196.68 166.739 196.7 166.771 196.708L166.495 197.572C166.407 197.548 166.283 197.508 166.123 197.452C165.971 197.396 165.803 197.368 165.619 197.368C165.139 197.368 164.791 197.528 164.575 197.848C164.359 198.16 164.211 198.64 164.131 199.288ZM170.788 202H169.648L169.972 199.756H168.484L168.172 202H167.02L167.788 196.552H168.94L168.616 198.844H170.092L170.404 196.552H171.556L170.788 202ZM173.448 196.552L174.684 199.972H174.696C174.712 199.924 174.732 199.724 174.756 199.372L175.152 196.552H176.172L175.404 202H174.384L173.112 198.568C173.104 198.624 173.096 198.708 173.088 198.82C173.08 198.932 173.064 199.052 173.04 199.18L172.656 202H171.648L172.416 196.552H173.448ZM178.353 201.196C178.681 201.196 178.937 201.032 179.121 200.704C179.305 200.368 179.437 199.896 179.517 199.288C179.605 198.672 179.601 198.2 179.505 197.872C179.409 197.536 179.201 197.368 178.881 197.368C178.569 197.368 178.321 197.536 178.137 197.872C177.953 198.2 177.817 198.672 177.729 199.288C177.641 199.896 177.641 200.368 177.729 200.704C177.817 201.032 178.025 201.196 178.353 201.196ZM179.013 196.456C179.685 196.456 180.169 196.684 180.465 197.14C180.761 197.596 180.841 198.312 180.705 199.288C180.569 200.256 180.289 200.968 179.865 201.424C179.441 201.88 178.893 202.108 178.221 202.108C176.837 202.108 176.277 201.168 176.541 199.288C176.677 198.312 176.957 197.596 177.381 197.14C177.805 196.684 178.349 196.456 179.013 196.456ZM181.026 202L181.794 196.552H182.946L182.298 201.064H183.918L183.714 202H181.026ZM186.114 201.196C186.442 201.196 186.698 201.032 186.882 200.704C187.066 200.368 187.198 199.896 187.278 199.288C187.366 198.672 187.362 198.2 187.266 197.872C187.17 197.536 186.962 197.368 186.642 197.368C186.33 197.368 186.082 197.536 185.898 197.872C185.714 198.2 185.578 198.672 185.49 199.288C185.402 199.896 185.402 200.368 185.49 200.704C185.578 201.032 185.786 201.196 186.114 201.196ZM186.774 196.456C187.446 196.456 187.93 196.684 188.226 197.14C188.522 197.596 188.602 198.312 188.466 199.288C188.33 200.256 188.05 200.968 187.626 201.424C187.202 201.88 186.654 202.108 185.982 202.108C184.598 202.108 184.038 201.168 184.302 199.288C184.438 198.312 184.718 197.596 185.142 197.14C185.566 196.684 186.11 196.456 186.774 196.456ZM192.423 201.868C192.223 201.932 191.951 201.992 191.607 202.048C191.263 202.104 190.995 202.132 190.803 202.132C190.059 202.132 189.535 201.9 189.231 201.436C188.935 200.972 188.855 200.256 188.991 199.288C189.127 198.312 189.411 197.596 189.843 197.14C190.275 196.684 190.863 196.456 191.607 196.456C191.831 196.456 192.067 196.48 192.315 196.528C192.563 196.576 192.727 196.616 192.807 196.648C192.887 196.68 192.943 196.7 192.975 196.708L192.699 197.572C192.555 197.5 192.371 197.448 192.147 197.416C191.923 197.384 191.767 197.368 191.679 197.368C191.199 197.368 190.851 197.528 190.635 197.848C190.419 198.16 190.271 198.64 190.191 199.288C190.095 199.952 190.111 200.432 190.239 200.728C190.383 201.048 190.679 201.208 191.127 201.208H191.367L191.571 199.756H190.995L191.127 198.844H192.843L192.423 201.868ZM195.097 202H193.945L194.197 200.2L194.101 199.864C193.933 199.312 193.761 198.764 193.585 198.22C193.417 197.676 193.249 197.12 193.081 196.552H194.305C194.369 196.808 194.429 197.068 194.485 197.332C194.549 197.596 194.609 197.848 194.665 198.088C194.721 198.32 194.769 198.532 194.809 198.724C194.849 198.916 194.885 199.068 194.917 199.18C194.917 199.18 194.993 199.028 195.145 198.724C195.241 198.532 195.349 198.32 195.469 198.088C195.589 197.848 195.717 197.596 195.853 197.332L196.237 196.552H197.473C197.145 197.12 196.821 197.676 196.501 198.22C196.181 198.764 195.861 199.312 195.541 199.864L195.349 200.2L195.097 202ZM203.76 197.488H202.656L202.02 202H200.868L201.492 197.488H200.376L200.496 196.552H203.904L203.76 197.488ZM206.115 201.196C206.443 201.196 206.699 201.032 206.883 200.704C207.067 200.368 207.199 199.896 207.279 199.288C207.367 198.672 207.363 198.2 207.267 197.872C207.171 197.536 206.963 197.368 206.643 197.368C206.331 197.368 206.083 197.536 205.899 197.872C205.715 198.2 205.579 198.672 205.491 199.288C205.403 199.896 205.403 200.368 205.491 200.704C205.579 201.032 205.787 201.196 206.115 201.196ZM206.775 196.456C207.447 196.456 207.931 196.684 208.227 197.14C208.523 197.596 208.603 198.312 208.467 199.288C208.331 200.256 208.051 200.968 207.627 201.424C207.203 201.88 206.655 202.108 205.983 202.108C204.599 202.108 204.039 201.168 204.303 199.288C204.439 198.312 204.719 197.596 205.143 197.14C205.567 196.684 206.111 196.456 206.775 196.456ZM210.456 201.148C210.84 201.148 211.136 200.996 211.344 200.692C211.56 200.38 211.716 199.912 211.812 199.288C211.9 198.632 211.876 198.156 211.74 197.86C211.612 197.564 211.36 197.416 210.984 197.416C210.984 197.416 210.916 197.416 210.78 197.416C210.716 197.416 210.652 197.42 210.588 197.428L210.06 201.148C210.196 201.148 210.328 201.148 210.456 201.148ZM209.556 196.552C209.556 196.552 210.036 196.54 210.996 196.516C211.38 196.516 211.712 196.556 211.992 196.636C212.28 196.708 212.512 196.848 212.688 197.056C213.024 197.472 213.124 198.216 212.988 199.288C212.788 200.8 212.208 201.68 211.248 201.928C210.944 202.008 210.616 202.048 210.264 202.048C209.912 202.048 209.612 202.04 209.364 202.024C209.116 202.008 208.924 202 208.788 202L209.556 196.552ZM216.141 197.62C216.085 197.756 216.021 197.928 215.949 198.136C215.877 198.344 215.797 198.568 215.709 198.808C215.621 199.04 215.529 199.284 215.433 199.54C215.345 199.788 215.253 200.032 215.157 200.272H216.333C216.317 200.032 216.297 199.788 216.273 199.54C216.249 199.284 216.229 199.04 216.213 198.808C216.197 198.568 216.181 198.344 216.165 198.136C216.149 197.928 216.141 197.756 216.141 197.62ZM215.625 196.552H217.005L217.725 202H216.513L216.405 201.052H214.881L214.497 202H213.345L215.625 196.552ZM219.954 202H218.802L219.054 200.2L218.958 199.864C218.79 199.312 218.618 198.764 218.442 198.22C218.274 197.676 218.106 197.12 217.938 196.552H219.162C219.226 196.808 219.286 197.068 219.342 197.332C219.406 197.596 219.466 197.848 219.522 198.088C219.578 198.32 219.626 198.532 219.666 198.724C219.706 198.916 219.742 199.068 219.774 199.18C219.774 199.18 219.85 199.028 220.002 198.724C220.098 198.532 220.206 198.32 220.326 198.088C220.446 197.848 220.574 197.596 220.71 197.332L221.094 196.552H222.33C222.002 197.12 221.678 197.676 221.358 198.22C221.038 198.764 220.718 199.312 220.398 199.864L220.206 200.2L219.954 202Z" fill="black"/>
</svg>
