<svg width="274" height="272" viewBox="0 0 274 272" fill="none" xmlns="http://www.w3.org/2000/svg">
<path d="M101.5 86.0001L110 101H127.5L136.5 86.0001L127.5 70.5001H110L101.5 86.0001Z" stroke="white" stroke-width="2"/>
<path d="M132.5 103L141 118H158.5L167.5 103L158.5 87.5001H141L132.5 103Z" stroke="white" stroke-width="2"/>
<path d="M101.5 121L110 136H127.5L136.5 121L127.5 105.5H110L101.5 121Z" stroke="white" stroke-width="2"/>
<path d="M80.2495 162.793C80.1001 162.918 79.9881 163.03 79.9135 163.129L79.0921 168.991C79.341 169.19 79.5775 169.377 79.8015 169.551C80.0255 169.7 80.2868 169.775 80.5855 169.775C81.4566 169.775 82.1161 169.489 82.5641 168.916C83.037 168.319 83.3855 167.348 83.6095 166.004C83.8086 164.486 83.7712 163.428 83.4975 162.831C83.2486 162.233 82.813 161.935 82.1908 161.935C81.5686 161.935 80.9215 162.221 80.2495 162.793ZM77.7108 153.983L81.2575 153.497L80.2495 160.777C80.4486 160.628 80.6726 160.454 80.9215 160.255C81.1952 160.031 81.4939 159.832 81.8175 159.657C82.5392 159.209 83.2237 158.985 83.8708 158.985C84.5179 158.985 85.0779 159.122 85.5508 159.396C86.0237 159.645 86.4095 160.043 86.7081 160.591C87.3801 161.835 87.5543 163.54 87.2308 165.705C86.8823 167.995 86.173 169.737 85.1028 170.932C84.1072 172.077 82.9375 172.649 81.5935 172.649C80.4735 172.649 79.6023 172.276 78.9801 171.529C78.8308 171.33 78.6939 171.144 78.5695 170.969L78.0468 172.5H75.1348L77.7108 153.983ZM88.6878 175.524C89.8078 175.897 90.8905 176.084 91.9358 176.084C92.6825 176.084 93.1678 175.985 93.3918 175.785C93.8647 175.362 94.1883 174.653 94.3625 173.657L94.8105 170.82H94.7358C93.4167 172.139 92.1225 172.799 90.8531 172.799C89.5838 172.799 88.75 172.425 88.3518 171.679C87.9536 170.907 87.854 169.737 88.0531 168.169L89.3225 159.284H92.8318L91.6745 167.311C91.5749 168.356 91.5625 168.991 91.6371 169.215C91.8114 169.588 92.1598 169.775 92.6825 169.775C93.2798 169.775 93.9643 169.414 94.7358 168.692C94.91 168.543 95.0469 168.431 95.1465 168.356L96.4158 159.284H99.8878L97.8718 173.583C97.6229 175.325 97.0505 176.607 96.1545 177.428C95.2585 178.274 93.9394 178.697 92.1971 178.697C90.9776 178.697 89.5838 178.436 88.0158 177.913L88.6878 175.524ZM108.319 159.284L108.02 161.823H105.145L104.249 168.169C104.15 168.742 104.15 169.165 104.249 169.439C104.349 169.713 104.598 169.849 104.996 169.849C105.419 169.849 105.78 169.8 106.079 169.7C106.377 169.576 106.577 169.501 106.676 169.476V171.94C106.577 171.965 106.427 172.027 106.228 172.127C106.029 172.226 105.805 172.326 105.556 172.425C104.934 172.699 104.237 172.836 103.465 172.836C102.271 172.836 101.462 172.525 101.039 171.903C100.616 171.256 100.504 170.173 100.703 168.655L101.711 161.823H100.292L100.628 159.284H102.047L102.495 156.111L106.041 155.551L105.481 159.284H108.319ZM116.13 164.772C116.304 163.503 116.267 162.632 116.018 162.159C115.769 161.686 115.408 161.449 114.936 161.449C114.488 161.449 114.027 161.698 113.554 162.196C113.106 162.669 112.795 163.528 112.621 164.772H116.13ZM114.488 170.185C115.583 170.185 116.678 169.874 117.773 169.252L118.146 171.567C117.549 172.015 116.553 172.376 115.16 172.649C114.637 172.774 114.04 172.836 113.368 172.836C112.696 172.836 112.036 172.712 111.389 172.463C110.767 172.214 110.256 171.828 109.858 171.305C108.937 170.111 108.639 168.431 108.962 166.265C109.286 163.926 110.057 162.097 111.277 160.777C112.422 159.583 113.766 158.985 115.309 158.985C117.648 158.985 119.03 160.105 119.453 162.345C119.677 163.515 119.59 164.859 119.192 166.377C119.117 166.701 119.055 166.888 119.005 166.937H112.322C112.148 168.082 112.272 168.916 112.696 169.439C113.144 169.937 113.741 170.185 114.488 170.185ZM125.287 162.793C125.137 162.918 125.025 163.03 124.951 163.129L124.129 168.991C124.378 169.19 124.615 169.377 124.839 169.551C125.063 169.7 125.324 169.775 125.623 169.775C126.494 169.775 127.153 169.489 127.601 168.916C128.074 168.319 128.423 167.348 128.647 166.004C128.846 164.486 128.809 163.428 128.535 162.831C128.286 162.233 127.85 161.935 127.228 161.935C126.606 161.935 125.959 162.221 125.287 162.793ZM122.748 153.983L126.295 153.497L125.287 160.777C125.486 160.628 125.71 160.454 125.959 160.255C126.233 160.031 126.531 159.832 126.855 159.657C127.577 159.209 128.261 158.985 128.908 158.985C129.555 158.985 130.115 159.122 130.588 159.396C131.061 159.645 131.447 160.043 131.745 160.591C132.417 161.835 132.592 163.54 132.268 165.705C131.92 167.995 131.21 169.737 130.14 170.932C129.145 172.077 127.975 172.649 126.631 172.649C125.511 172.649 124.64 172.276 124.017 171.529C123.868 171.33 123.731 171.144 123.607 170.969L123.084 172.5H120.172L122.748 153.983ZM136.264 172.5H132.792L134.658 159.284H137.72L137.608 161.039H137.645C138.018 160.441 138.491 159.944 139.064 159.545C139.636 159.147 140.134 158.948 140.557 158.948C140.98 158.948 141.254 158.985 141.378 159.06C141.528 159.11 141.665 159.16 141.789 159.209L141.08 162.233C140.93 162.209 140.731 162.159 140.482 162.084C140.258 162.009 139.997 161.972 139.698 161.972C139.4 161.972 139.089 162.072 138.765 162.271C138.442 162.47 138.031 162.793 137.533 163.241L136.264 172.5ZM146.72 153.124C147.292 153.124 147.728 153.323 148.026 153.721C148.35 154.12 148.462 154.63 148.362 155.252C148.288 155.849 148.039 156.347 147.616 156.745C147.193 157.119 146.695 157.305 146.122 157.305C145.575 157.305 145.139 157.119 144.816 156.745C144.492 156.347 144.368 155.849 144.442 155.252C144.567 154.63 144.841 154.12 145.264 153.721C145.687 153.323 146.172 153.124 146.72 153.124ZM145.712 172.5H142.24L144.032 159.508L147.616 159.023L145.712 172.5ZM157.448 162.159C156.9 161.86 156.377 161.711 155.88 161.711C155.033 161.711 154.361 162.009 153.864 162.607C153.391 163.204 153.042 164.287 152.818 165.855C152.619 167.398 152.632 168.456 152.856 169.028C153.105 169.601 153.577 169.887 154.274 169.887C154.697 169.887 155.108 169.762 155.506 169.513C155.929 169.24 156.265 168.953 156.514 168.655L157.448 162.159ZM151.549 160.665C152.121 160.093 152.756 159.682 153.453 159.433C154.15 159.185 154.859 159.06 155.581 159.06C156.303 159.06 157.037 159.247 157.784 159.62L158.568 153.983L162.077 153.497L159.426 172.5H156.514V170.932C155.096 172.201 153.714 172.836 152.37 172.836C150.429 172.836 149.321 171.629 149.048 169.215C148.948 168.369 148.985 167.323 149.16 166.079C149.334 164.809 149.633 163.727 150.056 162.831C150.479 161.935 150.977 161.213 151.549 160.665ZM166.415 169.065C166.515 169.364 166.676 169.576 166.9 169.7C167.124 169.8 167.436 169.849 167.834 169.849C168.232 169.849 168.643 169.7 169.066 169.401C169.489 169.103 169.825 168.804 170.074 168.505L170.783 163.241C170.385 162.744 170.049 162.408 169.775 162.233C169.501 162.059 169.178 161.972 168.804 161.972C167.983 161.972 167.398 162.321 167.05 163.017C166.726 163.689 166.49 164.697 166.34 166.041C166.116 167.336 166.141 168.344 166.415 169.065ZM163.652 175.524C164.772 175.897 165.855 176.084 166.9 176.084C167.597 176.084 168.083 175.985 168.356 175.785C168.904 175.337 169.228 174.628 169.327 173.657L169.738 171.044H169.7C169.302 171.442 168.767 171.841 168.095 172.239C167.448 172.637 166.776 172.836 166.079 172.836C165.407 172.836 164.822 172.712 164.324 172.463C163.852 172.189 163.466 171.778 163.167 171.231C162.52 170.061 162.358 168.443 162.682 166.377C163.005 164.038 163.715 162.221 164.81 160.927C165.83 159.707 166.988 159.097 168.282 159.097C169.028 159.097 169.626 159.284 170.074 159.657C170.547 160.006 170.982 160.479 171.38 161.076L171.866 159.284H174.778L172.799 173.583C172.55 175.325 171.978 176.607 171.082 177.428C170.186 178.274 168.879 178.697 167.162 178.697C166.216 178.697 165.37 178.598 164.623 178.399C163.901 178.2 163.341 178.038 162.943 177.913L163.652 175.524ZM182.579 164.772C182.753 163.503 182.716 162.632 182.467 162.159C182.218 161.686 181.857 161.449 181.384 161.449C180.936 161.449 180.476 161.698 180.003 162.196C179.555 162.669 179.244 163.528 179.069 164.772H182.579ZM180.936 170.185C182.031 170.185 183.126 169.874 184.221 169.252L184.595 171.567C183.997 172.015 183.002 172.376 181.608 172.649C181.085 172.774 180.488 172.836 179.816 172.836C179.144 172.836 178.485 172.712 177.837 172.463C177.215 172.214 176.705 171.828 176.307 171.305C175.386 170.111 175.087 168.431 175.411 166.265C175.734 163.926 176.506 162.097 177.725 160.777C178.87 159.583 180.214 158.985 181.757 158.985C184.097 158.985 185.478 160.105 185.901 162.345C186.125 163.515 186.038 164.859 185.64 166.377C185.565 166.701 185.503 166.888 185.453 166.937H178.771C178.597 168.082 178.721 168.916 179.144 169.439C179.592 169.937 180.189 170.185 180.936 170.185ZM187.554 169.476C187.629 169.501 187.766 169.563 187.965 169.663C188.164 169.762 188.4 169.862 188.674 169.961C189.371 170.185 189.956 170.297 190.429 170.297C190.902 170.297 191.275 170.223 191.549 170.073C191.847 169.899 192.022 169.613 192.071 169.215C192.146 168.792 192.084 168.443 191.885 168.169C191.686 167.871 191.424 167.585 191.101 167.311C190.802 167.037 190.466 166.763 190.093 166.489C189.719 166.191 189.383 165.855 189.085 165.481C188.388 164.66 188.114 163.702 188.263 162.607C188.413 161.512 188.911 160.641 189.757 159.993C190.628 159.321 191.785 158.985 193.229 158.985C194.349 158.985 195.431 159.16 196.477 159.508L195.954 162.047C195.755 162.022 195.407 161.935 194.909 161.785C194.436 161.636 193.926 161.561 193.378 161.561C192.333 161.561 191.748 161.91 191.623 162.607C191.574 162.93 191.648 163.229 191.847 163.503C192.071 163.752 192.345 164.013 192.669 164.287C192.992 164.536 193.353 164.809 193.751 165.108C194.15 165.382 194.511 165.693 194.834 166.041C195.581 166.838 195.867 167.784 195.693 168.879C195.593 169.974 195.12 170.907 194.274 171.679C193.378 172.45 192.159 172.836 190.615 172.836C189.595 172.836 188.823 172.737 188.301 172.537C187.405 172.214 186.845 171.965 186.621 171.791L187.554 169.476Z" fill="white"/>
<path d="M92.2532 15.1884C67.0532 31.1884 31.4199 71.8551 16.7532 90.1884C-6.74677 126.188 2.25323 153.188 8.75323 167.688C15.2532 182.188 60.2532 239.688 97.2532 258.688C134.253 277.688 162.253 269.688 183.753 254.188C205.253 238.688 247.253 202.688 263.253 170.188C279.253 137.688 272.253 115.188 253.253 86.6884C234.253 58.1884 186.753 17.6884 170.253 9.18839C153.753 0.688393 123.753 -4.81161 92.2532 15.1884Z" stroke="white" stroke-width="3"/>
<path d="M64.1081 198.788C64.0121 199.452 64.0281 199.932 64.1561 200.228C64.3001 200.548 64.5961 200.708 65.0441 200.708C65.2441 200.708 65.4281 200.68 65.5961 200.624C65.7721 200.568 65.9041 200.528 65.9921 200.504C66.0001 200.648 66.0041 200.792 66.0041 200.936C66.0041 201.08 66.0121 201.224 66.0281 201.368C65.8281 201.448 65.6041 201.512 65.3561 201.56C65.1081 201.608 64.8961 201.632 64.7201 201.632C63.9761 201.632 63.4521 201.4 63.1481 200.936C62.8521 200.472 62.7721 199.756 62.9081 198.788C63.0441 197.812 63.3281 197.096 63.7601 196.64C64.1921 196.184 64.7801 195.956 65.5241 195.956C65.7721 195.956 65.9961 195.98 66.1961 196.028C66.3961 196.076 66.5281 196.116 66.5921 196.148C66.6641 196.18 66.7161 196.2 66.7481 196.208L66.4721 197.072C66.3841 197.048 66.2601 197.008 66.1001 196.952C65.9481 196.896 65.7801 196.868 65.5961 196.868C65.1161 196.868 64.7681 197.028 64.5521 197.348C64.3361 197.66 64.1881 198.14 64.1081 198.788ZM69.0138 200.696C69.3418 200.696 69.5978 200.532 69.7818 200.204C69.9658 199.868 70.0978 199.396 70.1778 198.788C70.2658 198.172 70.2618 197.7 70.1658 197.372C70.0698 197.036 69.8618 196.868 69.5418 196.868C69.2298 196.868 68.9818 197.036 68.7978 197.372C68.6138 197.7 68.4778 198.172 68.3898 198.788C68.3018 199.396 68.3018 199.868 68.3898 200.204C68.4778 200.532 68.6858 200.696 69.0138 200.696ZM69.6738 195.956C70.3458 195.956 70.8298 196.184 71.1258 196.64C71.4218 197.096 71.5018 197.812 71.3658 198.788C71.2298 199.756 70.9498 200.468 70.5258 200.924C70.1018 201.38 69.5538 201.608 68.8818 201.608C67.4978 201.608 66.9378 200.668 67.2018 198.788C67.3378 197.812 67.6178 197.096 68.0418 196.64C68.4658 196.184 69.0098 195.956 69.6738 195.956ZM73.4869 196.052L74.7229 199.472H74.7349C74.7509 199.424 74.7709 199.224 74.7949 198.872L75.1909 196.052H76.2109L75.4429 201.5H74.4229L73.1509 198.068C73.1429 198.124 73.1349 198.208 73.1269 198.32C73.1189 198.432 73.1029 198.552 73.0789 198.68L72.6949 201.5H71.6869L72.4549 196.052H73.4869ZM78.176 196.052L79.412 199.472H79.424C79.44 199.424 79.46 199.224 79.484 198.872L79.88 196.052H80.9L80.132 201.5H79.112L77.84 198.068C77.832 198.124 77.824 198.208 77.816 198.32C77.808 198.432 77.792 198.552 77.768 198.68L77.384 201.5H76.376L77.144 196.052H78.176ZM81.0652 201.5L81.8332 196.052H84.7732L84.6292 196.988H82.8652L82.6852 198.248H84.0292L83.9092 199.124H82.5532L82.3492 200.564H84.1372L84.0172 201.5H81.0652ZM86.3409 198.788C86.2449 199.452 86.2609 199.932 86.3889 200.228C86.5329 200.548 86.8289 200.708 87.2769 200.708C87.4769 200.708 87.6609 200.68 87.8289 200.624C88.0049 200.568 88.1369 200.528 88.2249 200.504C88.2329 200.648 88.2369 200.792 88.2369 200.936C88.2369 201.08 88.2449 201.224 88.2609 201.368C88.0609 201.448 87.8369 201.512 87.5889 201.56C87.3409 201.608 87.1289 201.632 86.9529 201.632C86.2089 201.632 85.6849 201.4 85.3809 200.936C85.0849 200.472 85.0049 199.756 85.1409 198.788C85.2769 197.812 85.5609 197.096 85.9929 196.64C86.4249 196.184 87.0129 195.956 87.7569 195.956C88.0049 195.956 88.2289 195.98 88.4289 196.028C88.6289 196.076 88.7609 196.116 88.8249 196.148C88.8969 196.18 88.9489 196.2 88.9809 196.208L88.7049 197.072C88.6169 197.048 88.4929 197.008 88.3329 196.952C88.1809 196.896 88.0129 196.868 87.8289 196.868C87.3489 196.868 87.0009 197.028 86.7849 197.348C86.5689 197.66 86.4209 198.14 86.3409 198.788ZM92.6146 196.988H91.5106L90.8746 201.5H89.7226L90.3466 196.988H89.2306L89.3506 196.052H92.7586L92.6146 196.988ZM94.1049 201.5H92.9529L93.7209 196.052H94.8729L94.1049 201.5ZM96.7965 196.052L98.0325 199.472H98.0445C98.0605 199.424 98.0805 199.224 98.1045 198.872L98.5005 196.052H99.5205L98.7525 201.5H97.7325L96.4605 198.068C96.4525 198.124 96.4445 198.208 96.4365 198.32C96.4285 198.432 96.4125 198.552 96.3885 198.68L96.0045 201.5H94.9965L95.7645 196.052H96.7965ZM103.322 201.368C103.122 201.432 102.85 201.492 102.506 201.548C102.162 201.604 101.894 201.632 101.702 201.632C100.958 201.632 100.434 201.4 100.13 200.936C99.8337 200.472 99.7537 199.756 99.8897 198.788C100.026 197.812 100.31 197.096 100.742 196.64C101.174 196.184 101.762 195.956 102.506 195.956C102.73 195.956 102.966 195.98 103.214 196.028C103.462 196.076 103.626 196.116 103.706 196.148C103.786 196.18 103.842 196.2 103.874 196.208L103.598 197.072C103.454 197 103.27 196.948 103.046 196.916C102.822 196.884 102.666 196.868 102.578 196.868C102.098 196.868 101.75 197.028 101.534 197.348C101.318 197.66 101.17 198.14 101.09 198.788C100.994 199.452 101.01 199.932 101.138 200.228C101.282 200.548 101.578 200.708 102.026 200.708H102.266L102.47 199.256H101.894L102.026 198.344H103.742L103.322 201.368ZM110.163 196.988H109.059L108.423 201.5H107.271L107.895 196.988H106.779L106.899 196.052H110.307L110.163 196.988ZM112.517 200.696C112.845 200.696 113.101 200.532 113.285 200.204C113.469 199.868 113.601 199.396 113.681 198.788C113.769 198.172 113.765 197.7 113.669 197.372C113.573 197.036 113.365 196.868 113.045 196.868C112.733 196.868 112.485 197.036 112.301 197.372C112.117 197.7 111.981 198.172 111.893 198.788C111.805 199.396 111.805 199.868 111.893 200.204C111.981 200.532 112.189 200.696 112.517 200.696ZM113.177 195.956C113.849 195.956 114.333 196.184 114.629 196.64C114.925 197.096 115.005 197.812 114.869 198.788C114.733 199.756 114.453 200.468 114.029 200.924C113.605 201.38 113.057 201.608 112.385 201.608C111.001 201.608 110.441 200.668 110.705 198.788C110.841 197.812 111.121 197.096 111.545 196.64C111.969 196.184 112.513 195.956 113.177 195.956ZM119.57 198.032L118.274 201.044H117.482C117.466 200.916 117.414 200.592 117.326 200.072C117.238 199.544 117.178 199.18 117.146 198.98C117.082 198.484 117.038 198.168 117.014 198.032L116.306 201.5H115.19L116.462 196.052H117.59C117.598 196.132 117.618 196.26 117.65 196.436C117.682 196.604 117.714 196.796 117.746 197.012C117.786 197.22 117.826 197.448 117.866 197.696C117.906 197.944 117.942 198.184 117.974 198.416C118.006 198.64 118.034 198.848 118.058 199.04C118.082 199.232 118.102 199.384 118.118 199.496C118.15 199.392 118.206 199.244 118.286 199.052C118.374 198.86 118.466 198.648 118.562 198.416C118.658 198.184 118.762 197.948 118.874 197.708C118.986 197.46 119.09 197.228 119.186 197.012C119.29 196.796 119.378 196.604 119.45 196.436C119.53 196.26 119.59 196.132 119.63 196.052H120.758L120.494 201.5H119.33C119.338 201.412 119.346 201.28 119.354 201.104C119.362 200.928 119.374 200.732 119.39 200.516C119.414 200.292 119.43 200.06 119.438 199.82C119.454 199.58 119.47 199.348 119.486 199.124C119.502 198.9 119.518 198.692 119.534 198.5C119.55 198.3 119.562 198.144 119.57 198.032ZM125.27 198.032L123.974 201.044H123.182C123.166 200.916 123.114 200.592 123.026 200.072C122.938 199.544 122.878 199.18 122.846 198.98C122.782 198.484 122.738 198.168 122.714 198.032L122.006 201.5H120.89L122.162 196.052H123.29C123.298 196.132 123.318 196.26 123.35 196.436C123.382 196.604 123.414 196.796 123.446 197.012C123.486 197.22 123.526 197.448 123.566 197.696C123.606 197.944 123.642 198.184 123.674 198.416C123.706 198.64 123.734 198.848 123.758 199.04C123.782 199.232 123.802 199.384 123.818 199.496C123.85 199.392 123.906 199.244 123.986 199.052C124.074 198.86 124.166 198.648 124.262 198.416C124.358 198.184 124.462 197.948 124.574 197.708C124.686 197.46 124.79 197.228 124.886 197.012C124.99 196.796 125.078 196.604 125.15 196.436C125.23 196.26 125.29 196.132 125.33 196.052H126.458L126.194 201.5H125.03C125.038 201.412 125.046 201.28 125.054 201.104C125.062 200.928 125.074 200.732 125.09 200.516C125.114 200.292 125.13 200.06 125.138 199.82C125.154 199.58 125.17 199.348 125.186 199.124C125.202 198.9 125.218 198.692 125.234 198.5C125.25 198.3 125.262 198.144 125.27 198.032ZM128.606 200.696C128.934 200.696 129.19 200.532 129.374 200.204C129.558 199.868 129.69 199.396 129.77 198.788C129.858 198.172 129.854 197.7 129.758 197.372C129.662 197.036 129.454 196.868 129.134 196.868C128.822 196.868 128.574 197.036 128.39 197.372C128.206 197.7 128.07 198.172 127.982 198.788C127.894 199.396 127.894 199.868 127.982 200.204C128.07 200.532 128.278 200.696 128.606 200.696ZM129.266 195.956C129.938 195.956 130.422 196.184 130.718 196.64C131.014 197.096 131.094 197.812 130.958 198.788C130.822 199.756 130.542 200.468 130.118 200.924C129.694 201.38 129.146 201.608 128.474 201.608C127.09 201.608 126.53 200.668 126.794 198.788C126.93 197.812 127.21 197.096 127.634 196.64C128.058 196.184 128.602 195.956 129.266 195.956ZM132.779 198.584L133.283 198.608C133.739 198.608 134.011 198.324 134.099 197.756C134.195 197.172 133.987 196.88 133.475 196.88C133.355 196.88 133.199 196.888 133.007 196.904L132.779 198.584ZM133.079 199.436L132.659 199.424L132.371 201.5H131.279L132.047 196.052C132.047 196.052 132.535 196.04 133.511 196.016C134.207 196.016 134.687 196.148 134.951 196.412C135.231 196.676 135.331 197.132 135.251 197.78C135.187 198.212 135.047 198.552 134.831 198.8C134.615 199.04 134.379 199.2 134.123 199.28L134.879 201.5H133.655L133.079 199.436ZM137.554 200.696C137.882 200.696 138.138 200.532 138.322 200.204C138.506 199.868 138.638 199.396 138.718 198.788C138.806 198.172 138.802 197.7 138.706 197.372C138.61 197.036 138.402 196.868 138.082 196.868C137.77 196.868 137.522 197.036 137.338 197.372C137.154 197.7 137.018 198.172 136.93 198.788C136.842 199.396 136.842 199.868 136.93 200.204C137.018 200.532 137.226 200.696 137.554 200.696ZM138.214 195.956C138.886 195.956 139.37 196.184 139.666 196.64C139.962 197.096 140.042 197.812 139.906 198.788C139.77 199.756 139.49 200.468 139.066 200.924C138.642 201.38 138.094 201.608 137.422 201.608C136.038 201.608 135.478 200.668 135.742 198.788C135.878 197.812 136.158 197.096 136.582 196.64C137.006 196.184 137.55 195.956 138.214 195.956ZM146.167 196.052L144.271 201.5H143.179L142.915 198.032L141.667 201.5H140.599L140.227 196.052H141.379L141.535 199.736L142.711 196.496H143.599L143.851 199.736L145.039 196.052H146.167ZM147.541 195.173C147.487 195.383 147.418 195.611 147.334 195.857C147.25 196.103 147.157 196.349 147.055 196.595C146.959 196.835 146.863 197.063 146.767 197.279H146.182C146.224 197.111 146.266 196.931 146.308 196.739C146.356 196.547 146.398 196.355 146.434 196.163C146.476 195.965 146.512 195.773 146.542 195.587C146.578 195.401 146.608 195.23 146.632 195.074H147.478L147.541 195.173ZM150.24 195.956C150.624 195.956 150.908 195.992 151.092 196.064C151.276 196.136 151.404 196.192 151.476 196.232C151.556 196.272 151.616 196.3 151.656 196.316L151.26 197.144L151.104 197.06C150.776 196.9 150.488 196.82 150.24 196.82C150.032 196.82 149.848 196.892 149.688 197.036C149.544 197.172 149.472 197.3 149.472 197.42C149.448 197.588 149.476 197.732 149.556 197.852C149.644 197.972 149.756 198.084 149.892 198.188C150.028 198.292 150.176 198.396 150.336 198.5C150.504 198.604 150.652 198.724 150.78 198.86C151.1 199.172 151.224 199.564 151.152 200.036C151.088 200.508 150.884 200.888 150.54 201.176C150.196 201.464 149.724 201.608 149.124 201.608C148.636 201.608 148.212 201.508 147.852 201.308C147.78 201.26 147.72 201.224 147.672 201.2L148.056 200.372C148.096 200.388 148.148 200.416 148.212 200.456C148.284 200.496 148.364 200.532 148.452 200.564C148.676 200.66 148.884 200.708 149.076 200.708C149.428 200.708 149.692 200.588 149.868 200.348C149.924 200.276 149.96 200.176 149.976 200.048C150 199.912 149.968 199.792 149.88 199.688C149.792 199.576 149.68 199.472 149.544 199.376C149.408 199.272 149.26 199.168 149.1 199.064C148.94 198.952 148.792 198.828 148.656 198.692C148.344 198.38 148.22 197.988 148.284 197.516C148.348 197.036 148.552 196.656 148.896 196.376C149.24 196.096 149.688 195.956 150.24 195.956ZM158.017 196.988H156.913L156.277 201.5H155.125L155.749 196.988H154.633L154.753 196.052H158.161L158.017 196.988ZM158.355 201.5L159.123 196.052H162.063L161.919 196.988H160.155L159.975 198.248H161.319L161.199 199.124H159.843L159.639 200.564H161.427L161.307 201.5H158.355ZM163.631 198.788C163.535 199.452 163.551 199.932 163.679 200.228C163.823 200.548 164.119 200.708 164.567 200.708C164.767 200.708 164.951 200.68 165.119 200.624C165.295 200.568 165.427 200.528 165.515 200.504C165.523 200.648 165.527 200.792 165.527 200.936C165.527 201.08 165.535 201.224 165.551 201.368C165.351 201.448 165.127 201.512 164.879 201.56C164.631 201.608 164.419 201.632 164.243 201.632C163.499 201.632 162.975 201.4 162.671 200.936C162.375 200.472 162.295 199.756 162.431 198.788C162.567 197.812 162.851 197.096 163.283 196.64C163.715 196.184 164.303 195.956 165.047 195.956C165.295 195.956 165.519 195.98 165.719 196.028C165.919 196.076 166.051 196.116 166.115 196.148C166.187 196.18 166.239 196.2 166.271 196.208L165.995 197.072C165.907 197.048 165.783 197.008 165.623 196.952C165.471 196.896 165.303 196.868 165.119 196.868C164.639 196.868 164.291 197.028 164.075 197.348C163.859 197.66 163.711 198.14 163.631 198.788ZM170.289 201.5H169.149L169.473 199.256H167.985L167.673 201.5H166.521L167.289 196.052H168.441L168.117 198.344H169.593L169.905 196.052H171.057L170.289 201.5ZM172.948 196.052L174.184 199.472H174.196C174.212 199.424 174.232 199.224 174.256 198.872L174.652 196.052H175.672L174.904 201.5H173.884L172.612 198.068C172.604 198.124 172.596 198.208 172.588 198.32C172.58 198.432 172.564 198.552 172.54 198.68L172.156 201.5H171.148L171.916 196.052H172.948ZM177.853 200.696C178.181 200.696 178.437 200.532 178.621 200.204C178.805 199.868 178.937 199.396 179.017 198.788C179.105 198.172 179.101 197.7 179.005 197.372C178.909 197.036 178.701 196.868 178.381 196.868C178.069 196.868 177.821 197.036 177.637 197.372C177.453 197.7 177.317 198.172 177.229 198.788C177.141 199.396 177.141 199.868 177.229 200.204C177.317 200.532 177.525 200.696 177.853 200.696ZM178.513 195.956C179.185 195.956 179.669 196.184 179.965 196.64C180.261 197.096 180.341 197.812 180.205 198.788C180.069 199.756 179.789 200.468 179.365 200.924C178.941 201.38 178.393 201.608 177.721 201.608C176.337 201.608 175.777 200.668 176.041 198.788C176.177 197.812 176.457 197.096 176.881 196.64C177.305 196.184 177.849 195.956 178.513 195.956ZM180.526 201.5L181.294 196.052H182.446L181.798 200.564H183.418L183.214 201.5H180.526ZM185.614 200.696C185.942 200.696 186.198 200.532 186.382 200.204C186.566 199.868 186.698 199.396 186.778 198.788C186.866 198.172 186.862 197.7 186.766 197.372C186.67 197.036 186.462 196.868 186.142 196.868C185.83 196.868 185.582 197.036 185.398 197.372C185.214 197.7 185.078 198.172 184.99 198.788C184.902 199.396 184.902 199.868 184.99 200.204C185.078 200.532 185.286 200.696 185.614 200.696ZM186.274 195.956C186.946 195.956 187.43 196.184 187.726 196.64C188.022 197.096 188.102 197.812 187.966 198.788C187.83 199.756 187.55 200.468 187.126 200.924C186.702 201.38 186.154 201.608 185.482 201.608C184.098 201.608 183.538 200.668 183.802 198.788C183.938 197.812 184.218 197.096 184.642 196.64C185.066 196.184 185.61 195.956 186.274 195.956ZM191.924 201.368C191.724 201.432 191.452 201.492 191.108 201.548C190.764 201.604 190.496 201.632 190.304 201.632C189.56 201.632 189.036 201.4 188.732 200.936C188.436 200.472 188.356 199.756 188.492 198.788C188.628 197.812 188.912 197.096 189.344 196.64C189.776 196.184 190.364 195.956 191.108 195.956C191.332 195.956 191.568 195.98 191.816 196.028C192.064 196.076 192.228 196.116 192.308 196.148C192.388 196.18 192.444 196.2 192.476 196.208L192.2 197.072C192.056 197 191.872 196.948 191.648 196.916C191.424 196.884 191.268 196.868 191.18 196.868C190.7 196.868 190.352 197.028 190.136 197.348C189.92 197.66 189.772 198.14 189.692 198.788C189.596 199.452 189.612 199.932 189.74 200.228C189.884 200.548 190.18 200.708 190.628 200.708H190.868L191.072 199.256H190.496L190.628 198.344H192.344L191.924 201.368ZM194.597 201.5H193.445L193.697 199.7L193.601 199.364C193.433 198.812 193.261 198.264 193.085 197.72C192.917 197.176 192.749 196.62 192.581 196.052H193.805C193.869 196.308 193.929 196.568 193.985 196.832C194.049 197.096 194.109 197.348 194.165 197.588C194.221 197.82 194.269 198.032 194.309 198.224C194.349 198.416 194.385 198.568 194.417 198.68C194.417 198.68 194.493 198.528 194.645 198.224C194.741 198.032 194.849 197.82 194.969 197.588C195.089 197.348 195.217 197.096 195.353 196.832L195.737 196.052H196.973C196.645 196.62 196.321 197.176 196.001 197.72C195.681 198.264 195.361 198.812 195.041 199.364L194.849 199.7L194.597 201.5ZM203.26 196.988H202.156L201.52 201.5H200.368L200.992 196.988H199.876L199.996 196.052H203.404L203.26 196.988ZM205.615 200.696C205.943 200.696 206.199 200.532 206.383 200.204C206.567 199.868 206.699 199.396 206.779 198.788C206.867 198.172 206.863 197.7 206.767 197.372C206.671 197.036 206.463 196.868 206.143 196.868C205.831 196.868 205.583 197.036 205.399 197.372C205.215 197.7 205.079 198.172 204.991 198.788C204.903 199.396 204.903 199.868 204.991 200.204C205.079 200.532 205.287 200.696 205.615 200.696ZM206.275 195.956C206.947 195.956 207.431 196.184 207.727 196.64C208.023 197.096 208.103 197.812 207.967 198.788C207.831 199.756 207.551 200.468 207.127 200.924C206.703 201.38 206.155 201.608 205.483 201.608C204.099 201.608 203.539 200.668 203.803 198.788C203.939 197.812 204.219 197.096 204.643 196.64C205.067 196.184 205.611 195.956 206.275 195.956ZM209.956 200.648C210.34 200.648 210.636 200.496 210.844 200.192C211.06 199.88 211.216 199.412 211.312 198.788C211.4 198.132 211.376 197.656 211.24 197.36C211.112 197.064 210.86 196.916 210.484 196.916C210.484 196.916 210.416 196.916 210.28 196.916C210.216 196.916 210.152 196.92 210.088 196.928L209.56 200.648C209.696 200.648 209.828 200.648 209.956 200.648ZM209.056 196.052C209.056 196.052 209.536 196.04 210.496 196.016C210.88 196.016 211.212 196.056 211.492 196.136C211.78 196.208 212.012 196.348 212.188 196.556C212.524 196.972 212.624 197.716 212.488 198.788C212.288 200.3 211.708 201.18 210.748 201.428C210.444 201.508 210.116 201.548 209.764 201.548C209.412 201.548 209.112 201.54 208.864 201.524C208.616 201.508 208.424 201.5 208.288 201.5L209.056 196.052ZM215.641 197.12C215.585 197.256 215.521 197.428 215.449 197.636C215.377 197.844 215.297 198.068 215.209 198.308C215.121 198.54 215.029 198.784 214.933 199.04C214.845 199.288 214.753 199.532 214.657 199.772H215.833C215.817 199.532 215.797 199.288 215.773 199.04C215.749 198.784 215.729 198.54 215.713 198.308C215.697 198.068 215.681 197.844 215.665 197.636C215.649 197.428 215.641 197.256 215.641 197.12ZM215.125 196.052H216.505L217.225 201.5H216.013L215.905 200.552H214.381L213.997 201.5H212.845L215.125 196.052ZM219.454 201.5H218.302L218.554 199.7L218.458 199.364C218.29 198.812 218.118 198.264 217.942 197.72C217.774 197.176 217.606 196.62 217.438 196.052H218.662C218.726 196.308 218.786 196.568 218.842 196.832C218.906 197.096 218.966 197.348 219.022 197.588C219.078 197.82 219.126 198.032 219.166 198.224C219.206 198.416 219.242 198.568 219.274 198.68C219.274 198.68 219.35 198.528 219.502 198.224C219.598 198.032 219.706 197.82 219.826 197.588C219.946 197.348 220.074 197.096 220.21 196.832L220.594 196.052H221.83C221.502 196.62 221.178 197.176 220.858 197.72C220.538 198.264 220.218 198.812 219.898 199.364L219.706 199.7L219.454 201.5Z" fill="white"/>
</svg>
