<svg xmlns="http://www.w3.org/2000/svg" xmlns:xlink="http://www.w3.org/1999/xlink" width="500" zoomAndPan="magnify" viewBox="0 0 375 374.999991" height="500" preserveAspectRatio="xMidYMid meet" version="1.0"><defs><g/><clipPath id="c333b3130e"><path d="M 16.3125 218.140625 L 163.625 218.140625 L 163.625 229.75 L 16.3125 229.75 Z M 16.3125 218.140625 " clip-rule="nonzero"/></clipPath><clipPath id="52718394fa"><path d="M 178.277344 171.632812 L 359.585938 171.632812 L 359.585938 183.246094 L 178.277344 183.246094 Z M 178.277344 171.632812 " clip-rule="nonzero"/></clipPath></defs><g clip-path="url(#c333b3130e)"><path fill="#0b1e3f" d="M 16.3125 218.140625 L 163.632812 218.140625 L 163.632812 229.75 L 16.3125 229.75 Z M 16.3125 218.140625 " fill-opacity="1" fill-rule="nonzero"/></g><g clip-path="url(#52718394fa)"><path fill="#0b1e3f" d="M 178.277344 171.632812 L 359.570312 171.632812 L 359.570312 183.246094 L 178.277344 183.246094 Z M 178.277344 171.632812 " fill-opacity="1" fill-rule="nonzero"/></g><g fill="#07689f" fill-opacity="1"><g transform="translate(12.199702, 202.861172)"><g><path d="M 3.546875 0 L 3.546875 -29.546875 L 9.25 -29.546875 L 19.765625 -14.234375 L 30.234375 -29.546875 L 35.890625 -29.546875 L 35.890625 0 L 29.21875 0 L 29.21875 -17.78125 L 22.03125 -7.296875 L 17.390625 -7.296875 L 10.21875 -17.8125 L 10.21875 0 Z M 3.546875 0 "/></g></g></g><g fill="#07689f" fill-opacity="1"><g transform="translate(60.364161, 202.861172)"><g><path d="M 3.546875 0 L 3.546875 -29.546875 L 22.96875 -29.546875 L 22.96875 -23.890625 L 10.21875 -23.890625 L 10.21875 -17.78125 L 21.828125 -17.78125 L 21.828125 -12.15625 L 10.21875 -12.15625 L 10.21875 -5.703125 L 23.4375 -5.703125 L 23.4375 0 Z M 3.546875 0 "/></g></g></g><g fill="#07689f" fill-opacity="1"><g transform="translate(94.683423, 202.861172)"><g><path d="M 11.734375 0 L 0.375 -29.546875 L 7.59375 -29.546875 L 11.53125 -19.046875 L 15.078125 -9.671875 L 22.5 -29.546875 L 29.6875 -29.546875 L 18.328125 0 Z M 11.734375 0 "/></g></g></g><g fill="#07689f" fill-opacity="1"><g transform="translate(133.477049, 202.861172)"><g><path d="M 3.546875 0 L 3.546875 -29.546875 L 9.25 -29.546875 L 22.296875 -11.5625 L 22.296875 -29.546875 L 28.96875 -29.546875 L 28.96875 0 L 23.265625 0 L 10.21875 -18.109375 L 10.21875 0 Z M 3.546875 0 "/></g></g></g><g fill="#07689f" fill-opacity="1"><g transform="translate(176.374899, 227.889242)"><g><path d="M 13.8125 0.59375 C 11.34375 0.59375 9.21875 0.1875 7.4375 -0.625 C 5.65625 -1.445312 4.28125 -2.609375 3.3125 -4.109375 C 2.34375 -5.609375 1.859375 -7.367188 1.859375 -9.390625 L 8.421875 -9.390625 C 8.421875 -7.984375 8.90625 -6.882812 9.875 -6.09375 C 10.84375 -5.3125 12.140625 -4.921875 13.765625 -4.921875 C 15.171875 -4.921875 16.28125 -5.191406 17.09375 -5.734375 C 17.90625 -6.285156 18.3125 -7.054688 18.3125 -8.046875 C 18.3125 -9.078125 17.820312 -9.914062 16.84375 -10.5625 C 15.863281 -11.207031 14.332031 -11.757812 12.25 -12.21875 C 8.800781 -12.945312 6.25 -14.050781 4.59375 -15.53125 C 2.9375 -17.019531 2.109375 -18.957031 2.109375 -21.34375 C 2.109375 -24.039062 3.085938 -26.164062 5.046875 -27.71875 C 7.015625 -29.28125 9.695312 -30.0625 13.09375 -30.0625 C 15.425781 -30.0625 17.445312 -29.660156 19.15625 -28.859375 C 20.875 -28.066406 22.203125 -26.945312 23.140625 -25.5 C 24.078125 -24.050781 24.546875 -22.332031 24.546875 -20.34375 L 18.109375 -20.34375 C 18.109375 -21.65625 17.671875 -22.691406 16.796875 -23.453125 C 15.929688 -24.210938 14.726562 -24.59375 13.1875 -24.59375 C 11.78125 -24.59375 10.664062 -24.316406 9.84375 -23.765625 C 9.03125 -23.222656 8.625 -22.457031 8.625 -21.46875 C 8.625 -20.570312 9.070312 -19.816406 9.96875 -19.203125 C 10.875 -18.585938 12.453125 -18.007812 14.703125 -17.46875 C 18.378906 -16.601562 21.03125 -15.441406 22.65625 -13.984375 C 24.28125 -12.523438 25.09375 -10.628906 25.09375 -8.296875 C 25.09375 -5.515625 24.085938 -3.335938 22.078125 -1.765625 C 20.078125 -0.191406 17.320312 0.59375 13.8125 0.59375 Z M 13.8125 0.59375 "/></g></g></g><g fill="#07689f" fill-opacity="1"><g transform="translate(212.082332, 227.889242)"><g><path d="M 10.609375 0 L 10.609375 -23.203125 L 1.265625 -23.203125 L 1.265625 -29.484375 L 26.65625 -29.484375 L 26.65625 -23.203125 L 17.3125 -23.203125 L 17.3125 0 Z M 10.609375 0 "/></g></g></g><g fill="#07689f" fill-opacity="1"><g transform="translate(248.716083, 227.889242)"><g><path d="M 0.375 0 L 12.078125 -29.484375 L 18.65625 -29.484375 L 30.359375 0 L 23.203125 0 L 21.21875 -5.09375 L 9.515625 -5.09375 L 7.53125 0 Z M 11.25 -10.359375 L 19.53125 -10.359375 L 15.375 -21.140625 Z M 11.25 -10.359375 "/></g></g></g><g fill="#07689f" fill-opacity="1"><g transform="translate(288.170909, 227.889242)"><g><path d="M 17.046875 0.59375 C 14.078125 0.59375 11.441406 -0.0546875 9.140625 -1.359375 C 6.835938 -2.671875 5.039062 -4.476562 3.75 -6.78125 C 2.457031 -9.082031 1.8125 -11.734375 1.8125 -14.734375 C 1.8125 -17.742188 2.457031 -20.398438 3.75 -22.703125 C 5.039062 -25.003906 6.828125 -26.804688 9.109375 -28.109375 C 11.398438 -29.410156 14.035156 -30.0625 17.015625 -30.0625 C 19.515625 -30.0625 21.800781 -29.582031 23.875 -28.625 C 25.945312 -27.675781 27.691406 -26.332031 29.109375 -24.59375 C 30.535156 -22.851562 31.53125 -20.800781 32.09375 -18.4375 L 25.1875 -18.4375 C 24.625 -20.070312 23.625 -21.359375 22.1875 -22.296875 C 20.757812 -23.234375 19.101562 -23.703125 17.21875 -23.703125 C 15.5625 -23.703125 14.082031 -23.320312 12.78125 -22.5625 C 11.476562 -21.8125 10.457031 -20.757812 9.71875 -19.40625 C 8.988281 -18.0625 8.625 -16.503906 8.625 -14.734375 C 8.625 -12.960938 8.988281 -11.40625 9.71875 -10.0625 C 10.457031 -8.71875 11.472656 -7.664062 12.765625 -6.90625 C 14.054688 -6.144531 15.53125 -5.765625 17.1875 -5.765625 C 19.125 -5.765625 20.820312 -6.265625 22.28125 -7.265625 C 23.738281 -8.265625 24.773438 -9.601562 25.390625 -11.28125 L 32.296875 -11.28125 C 31.816406 -8.894531 30.859375 -6.8125 29.421875 -5.03125 C 27.992188 -3.25 26.21875 -1.863281 24.09375 -0.875 C 21.976562 0.101562 19.628906 0.59375 17.046875 0.59375 Z M 17.046875 0.59375 "/></g></g></g><g fill="#07689f" fill-opacity="1"><g transform="translate(330.867851, 227.889242)"><g><path d="M 3.53125 0 L 3.53125 -29.484375 L 10.234375 -29.484375 L 10.234375 -18.15625 L 12.765625 -18.15625 C 14.421875 -18.15625 15.632812 -18.421875 16.40625 -18.953125 C 17.175781 -19.484375 17.8125 -20.4375 18.3125 -21.8125 L 21.09375 -29.484375 L 28.34375 -29.484375 L 24.25 -18.984375 C 23.882812 -18.035156 23.46875 -17.179688 23 -16.421875 C 22.539062 -15.660156 22.019531 -15 21.4375 -14.4375 L 29.390625 0 L 21.609375 0 L 15.28125 -11.953125 C 15.03125 -11.929688 14.785156 -11.921875 14.546875 -11.921875 C 14.304688 -11.921875 14.046875 -11.921875 13.765625 -11.921875 L 10.234375 -11.921875 L 10.234375 0 Z M 3.53125 0 "/></g></g></g></svg>