
<svg width="707" height="621" viewBox="0 0 707 621" fill="none" xmlns="http://www.w3.org/2000/svg">
<g clip-path="url(#clip0_1129_25429)">
<path class="outer-line" d="M655.51 278.286C661.51 288.034 708.004 366.189 673.734 438.799C636.649 517.376 518.18 561.494 400.386 518.087C367.006 534.435 299.218 561.921 212.078 556.764C165.296 553.998 102.028 550.255 54.1439 504.548C-15.0748 438.481 3.05075 337.437 5.54928 324.695C31.0462 194.581 174.505 137.166 189.805 131.302C332.578 76.6104 518.254 135.169 655.51 278.286Z" stroke="#1A1A1A" stroke-width="2.9911" stroke-miterlimit="10" stroke-linecap="round" stroke-linejoin="round"/>
<path class="outer-line" d="M591.437 440.726C597.189 437.919 668.897 401.463 676.482 325.566C683.396 256.329 631.26 211.229 624.847 205.873C639.292 169.146 626.983 128.428 594.477 104.317C565.15 82.5638 523.882 77.6704 488.172 91.621C483.687 84.9749 459.044 49.9558 408.194 39.0302C352.913 27.1525 310.323 53.1143 303.911 57.167C258.922 23.7049 194.541 21.8321 149.011 51.7264C99.8992 83.9695 84.0139 145.76 113.574 195.9C107.956 202.608 25.4198 304.676 75.1025 416.241C107.713 489.465 177.086 521.432 196.592 529.586C290.285 568.765 407.886 549.778 499.304 483.343C530.016 469.139 560.724 454.935 591.437 440.726Z" fill="white" stroke="#1A1A1A" stroke-width="1.99407" stroke-miterlimit="10" stroke-linecap="round" stroke-linejoin="round"/>
<path d="M376.553 244.925C376.553 244.925 369.771 212.726 316.833 223.512C263.895 234.298 189.693 192.499 171.478 137.216C153.262 81.9333 129.655 127.78 122.908 137.216C116.161 146.653 100.246 129.667 100.246 129.667C100.246 129.667 94.5533 167.24 113.803 185.087C176.59 243.298 279.414 315.622 279.414 315.622L379.849 332.054L376.553 244.925Z" fill="#D9DBDA"/>
<path d="M172.03 543.819L196.774 557.23L421.748 347.439V330.253L172.03 543.819Z" fill="white" stroke="#1A1A1A" stroke-width="1.99407" stroke-miterlimit="10" stroke-linecap="round" stroke-linejoin="round"/>
<path d="M149.217 24.2935L379.418 88.0057L385.311 340.116L368.277 342.393L364.241 91.543L141.402 30.5397L149.217 24.2935Z" fill="white" stroke="#1A1A1A" stroke-width="1.99407" stroke-miterlimit="10" stroke-linecap="round" stroke-linejoin="round"/>
<path d="M307.618 73.3057L313.466 341.069" stroke="#1A1A1A" stroke-width="2.9911" stroke-miterlimit="10" stroke-linecap="round" stroke-linejoin="round"/>
<path d="M234.107 52.106V325.649" stroke="#1A1A1A" stroke-width="2.9911" stroke-miterlimit="10" stroke-linecap="round" stroke-linejoin="round"/>
<path d="M153.268 30.5396V302.604" stroke="#1A1A1A" stroke-width="2.9911" stroke-miterlimit="10" stroke-linecap="round" stroke-linejoin="round"/>
<path d="M172.03 543.819L196.774 557.23L421.748 347.439V330.253L172.03 543.819Z" fill="#1A1A1A" stroke="#1A1A1A" stroke-width="1.99407" stroke-miterlimit="10" stroke-linecap="round" stroke-linejoin="round"/>
<path d="M73.8801 427.036C74.034 427.448 74.188 427.855 74.3419 428.262C74.6745 429.12 75.0071 429.968 75.3497 430.827C107.943 512.489 177.279 548.14 196.775 557.229L172.031 543.819L421.753 330.253L253.779 303.958L73.8801 427.036Z" fill="white" stroke="#1A1A1A" stroke-width="1.99407" stroke-miterlimit="10" stroke-linecap="round" stroke-linejoin="round"/>
<path d="M206.781 464.132C206.781 464.132 207.233 443.582 183.959 457.092C160.684 470.596 136.065 481.724 135.727 462.509C135.389 443.294 128.642 435.312 123.583 438.8" stroke="#1A1A1A" stroke-width="2.9911" stroke-miterlimit="10" stroke-linecap="round" stroke-linejoin="round"/>
<path d="M310.54 370.052L221.548 439.023L258.838 449.898L343.704 378.551L310.54 370.052Z" fill="white" stroke="#1A1A1A" stroke-width="1.99407" stroke-miterlimit="10" stroke-linecap="round" stroke-linejoin="round"/>
<path d="M313.464 375.54L235.058 437.833" stroke="#1A1A1A" stroke-width="1.99407" stroke-miterlimit="10" stroke-linecap="round" stroke-linejoin="round"/>
<path d="M321.829 378.829L243.422 441.122" stroke="#1A1A1A" stroke-width="1.99407" stroke-miterlimit="10" stroke-linecap="round" stroke-linejoin="round"/>
<path d="M330.195 382.118L251.788 444.411" stroke="#1A1A1A" stroke-width="1.99407" stroke-miterlimit="10" stroke-linecap="round" stroke-linejoin="round"/>
<path d="M237.927 432.847L261.033 441.946" stroke="#1A1A1A" stroke-width="1.99407" stroke-miterlimit="10" stroke-linecap="round" stroke-linejoin="round"/>
<path d="M246.26 426.095L269.366 435.194" stroke="#1A1A1A" stroke-width="1.99407" stroke-miterlimit="10" stroke-linecap="round" stroke-linejoin="round"/>
<path d="M254.597 419.343L277.698 428.442" stroke="#1A1A1A" stroke-width="1.99407" stroke-miterlimit="10" stroke-linecap="round" stroke-linejoin="round"/>
<path d="M262.935 412.59L286.036 421.689" stroke="#1A1A1A" stroke-width="1.99407" stroke-miterlimit="10" stroke-linecap="round" stroke-linejoin="round"/>
<path d="M271.263 405.838L294.369 414.937" stroke="#1A1A1A" stroke-width="1.99407" stroke-miterlimit="10" stroke-linecap="round" stroke-linejoin="round"/>
<path d="M279.6 399.086L302.706 408.185" stroke="#1A1A1A" stroke-width="1.99407" stroke-miterlimit="10" stroke-linecap="round" stroke-linejoin="round"/>
<path d="M287.935 392.333L311.041 401.432" stroke="#1A1A1A" stroke-width="1.99407" stroke-miterlimit="10" stroke-linecap="round" stroke-linejoin="round"/>
<path d="M296.269 385.582L319.375 394.685" stroke="#1A1A1A" stroke-width="1.99407" stroke-miterlimit="10" stroke-linecap="round" stroke-linejoin="round"/>
<path d="M304.606 378.829L327.711 387.933" stroke="#1A1A1A" stroke-width="1.99407" stroke-miterlimit="10" stroke-linecap="round" stroke-linejoin="round"/>
<path d="M425.532 386.211C424.112 383.844 423.64 381.482 422.692 379.116C420.567 373.807 421.094 368.231 421.292 362.59C432.408 348.128 439.329 305.174 444.462 285.989C450.534 263.291 483.812 242.662 483.812 242.662C483.812 242.662 458.855 317.453 459.361 392.283C454.947 397.537 449.367 400.811 443.236 402.692C434.99 400.216 429.454 393.618 425.532 386.211Z" fill="#07689F" stroke="#1A1A1A" stroke-width="1.99407" stroke-miterlimit="10" stroke-linecap="round" stroke-linejoin="round"/>
<path d="M303.022 361.945C311.343 351.382 323.258 348.237 346.646 359.023C370.03 369.808 399.689 370.047 414.757 367.348C417.085 366.931 419.259 365.234 421.295 362.59C421.096 368.231 420.57 373.807 422.695 379.116C423.643 381.482 424.115 383.844 425.535 386.21C429.457 393.617 434.992 400.216 443.239 402.691C424.457 408.442 400.508 401.015 389.149 396.778C374.081 391.162 348.449 380.148 341.478 380.822C334.508 381.497 332.482 385.769 325.512 392.481C318.542 399.194 315.617 389.361 320.115 385.769C324.613 382.177 323.715 372.736 323.715 372.736C323.715 372.736 314.495 382.623 310.221 386.895C305.946 391.167 293.356 390.938 292.264 386.895C291.171 382.842 294.701 372.507 303.022 361.945Z" fill="white" stroke="#1A1A1A" stroke-width="1.99407" stroke-miterlimit="10" stroke-linecap="round" stroke-linejoin="round"/>
<path d="M453.982 202.928L466.497 247.331L504.894 215.757C504.894 215.757 492.413 199.41 493.088 189.125C493.763 178.841 499.16 134.011 476.054 119.852C452.949 105.692 428.667 114.459 418.544 124.401C408.421 134.343 417.025 173.448 421.746 184.571C426.467 195.694 431.189 207.829 446.872 204.798L453.982 202.928Z" fill="white" stroke="#1A1A1A" stroke-width="1.99407" stroke-miterlimit="10" stroke-linecap="round" stroke-linejoin="round"/>
<path d="M470.545 192.276C470.545 192.276 458.486 201.737 453.983 202.928C456.828 212.051 457.181 213.986 457.181 213.986C457.181 213.986 470.094 203.062 470.545 192.276Z" fill="#1A1A1A" stroke="#1A1A1A" stroke-width="1.99407" stroke-miterlimit="10" stroke-linecap="round" stroke-linejoin="round"/>
<path d="M476.894 171.94C476.894 171.94 485.999 163.005 479.758 155.761C473.518 148.513 465.594 151.887 461.543 159.636C458.172 160.817 456.653 155.087 457.159 150.031C457.666 144.976 459.354 127.11 451.425 124.58C443.497 122.05 436.248 125.592 427.813 134.185C419.383 142.783 403.695 143.453 399.142 129.467C394.59 115.476 402.176 109.071 402.176 109.071C402.176 109.071 402.513 112.971 410.775 112.455C419.041 111.939 423.593 103.678 432.023 104.016C432.023 104.016 448.551 84.9695 474.183 105.028C489.36 105.534 507.069 126.599 504.875 143.457C502.68 160.311 500.491 181.381 490.373 183.906C480.439 182.22 476.894 171.94 476.894 171.94Z" fill="#1A1A1A" stroke="#1A1A1A" stroke-width="1.99407" stroke-miterlimit="10" stroke-linecap="round" stroke-linejoin="round"/>
<path d="M419.388 507.676C419.388 507.676 464.417 527.437 511.974 523.369C559.53 519.306 610.631 464.697 612.15 428.798C613.669 392.898 585.336 253.85 539.294 227.049C509.948 215.926 468.746 241.486 456.603 274.746C444.459 308.007 437.712 348.456 436.138 362.615C434.565 376.774 418.295 500.13 419.388 507.676Z" fill="#07689F" stroke="#1A1A1A" stroke-width="1.99407" stroke-miterlimit="10" stroke-linecap="round" stroke-linejoin="round"/>
<path d="M538.286 227.893C538.286 227.893 524.121 211.377 502.366 210.533C474.877 233.454 452.784 253.512 452.616 256.544C452.447 259.575 456.155 279.971 458.35 279.296C465.767 266.491 496.632 220.818 538.286 227.893Z" fill="white" stroke="#1A1A1A" stroke-width="1.99407" stroke-miterlimit="10" stroke-linecap="round" stroke-linejoin="round"/>
<path d="M137.3 425.761L148.708 428.53L191.945 439.023L265.194 382.683L276.265 374.165L225.224 363.29L137.3 425.761Z" fill="white" stroke="#1A1A1A" stroke-width="1.99407" stroke-miterlimit="10" stroke-linecap="round" stroke-linejoin="round"/>
<path d="M191.945 439.023V449.898L276.265 385.04V374.165L265.194 382.683L191.945 439.023Z" fill="white" stroke="#1A1A1A" stroke-width="1.99407" stroke-miterlimit="10" stroke-linecap="round" stroke-linejoin="round"/>
<path d="M148.708 428.53L191.945 439.023V449.898L137.299 436.641V425.761L148.708 428.53Z" fill="#1A1A1A" stroke="#1A1A1A" stroke-width="1.99407" stroke-miterlimit="10" stroke-linecap="round" stroke-linejoin="round"/>
<path d="M6.23682 181.068L41.1433 448.409C42.8561 461.547 54.24 467.386 65.5694 470.695C70.6184 472.164 79.6938 472.397 85.2642 470.065C71.2092 473.335 56.1514 464.027 54.111 448.409L19.2045 181.068C17.442 167.584 26.4281 155.672 38.805 152.814L34.4857 152.328C17.9683 150.467 4.08713 164.592 6.23682 181.068Z" fill="#1A1A1A" stroke="#1A1A1A" stroke-width="1.99407" stroke-miterlimit="10" stroke-linecap="round" stroke-linejoin="round"/>
<path  d="M19.2048 181.069L54.1113 448.41C56.1518 464.028 71.2046 473.335 85.2645 470.066C88.2582 469.371 91.2122 468.101 93.9775 466.206L287.892 333.369C295.2 328.363 299.4 319.929 298.993 311.083L293.934 201.707C293.358 189.145 283.722 178.866 271.216 177.457L47.4487 152.328C44.455 151.991 41.5408 152.179 38.8003 152.814C26.4284 155.672 17.4423 167.584 19.2048 181.069Z" fill="white" stroke="#1A1A1A" stroke-width="1.99407" stroke-miterlimit="10" stroke-linecap="round" stroke-linejoin="round"/>
<path d="M286.031 307.272L281.488 209.03C281.016 198.854 273.217 190.529 263.089 189.388L56.0628 166.14C42.6831 164.637 31.4381 176.077 33.1807 189.418L65.1084 433.967C67.1141 449.312 84.6244 457.131 97.3985 448.38L277.04 325.326C282.957 321.268 286.358 314.441 286.031 307.272Z" fill="white" stroke="#1A1A1A" stroke-width="1.99407" stroke-miterlimit="10" stroke-linecap="round" stroke-linejoin="round"/>
<path class="red-stroke" d="M286.031 308.031L281.488 209.789C281.016 199.613 273.217 191.288 263.089 190.147L56.0628 166.899C42.6831 165.396 31.4381 176.836 33.1807 190.177L65.1084 434.726C67.1141 450.071 84.6244 457.89 97.3985 449.139L277.04 326.085C282.957 322.027 286.358 315.2 286.031 308.031Z" fill="#07689F" stroke="#1A1A1A" stroke-width="1.99407" stroke-miterlimit="10" stroke-linecap="round" stroke-linejoin="round"/>
<path d="M51.2333 225.362L78.251 432.256C78.8071 436.547 82.4362 438.795 85.7377 438.795C87.2172 438.795 88.6222 438.343 89.918 437.46L269.549 314.407C271.709 312.933 272.92 310.492 272.801 307.888L271.118 271.477C262.797 260.309 255.365 257.442 250.078 256.891C236.37 255.447 231.336 268.897 208.251 274.414C198.952 276.642 184.728 280.04 172.838 273.065C160.381 265.757 160.54 252.952 148.213 250.144C139.589 248.179 131.81 252.699 131.01 253.175C121.746 258.737 123.618 266.858 116.171 271.715C104.37 279.405 85.3107 268.376 84.1292 267.672C70.943 259.833 75.8332 246.056 62.5379 233.285C58.8392 229.738 54.9022 227.203 51.2333 225.362Z" fill="white"/>
<path d="M258.165 210.533L208.92 204.972V213.401L258.165 215.425V210.533Z" fill="white" stroke="#1A1A1A" stroke-width="1.99407" stroke-miterlimit="10" stroke-linecap="round" stroke-linejoin="round"/>
<path d="M359.594 340.116C342.509 340.116 328.659 334.931 328.659 328.536C328.659 322.141 342.509 316.957 359.594 316.957C376.679 316.957 390.529 322.141 390.529 328.536C390.529 334.931 376.679 340.116 359.594 340.116Z" fill="white" stroke="#1A1A1A" stroke-width="1.99407" stroke-miterlimit="10" stroke-linecap="round" stroke-linejoin="round"/>
<path d="M359.594 338.161C345.391 338.161 333.877 333.852 333.877 328.536C333.877 323.221 345.391 318.912 359.594 318.912C373.797 318.912 385.311 323.221 385.311 328.536C385.311 333.852 373.797 338.161 359.594 338.161Z" fill="white" stroke="#1A1A1A" stroke-width="1.99407" stroke-miterlimit="10" stroke-linecap="round" stroke-linejoin="round"/>
<path d="M337.527 300.198L358.17 299.215V299.186L358.473 299.2L358.776 299.186V299.215L379.419 300.198C379.419 300.198 383.971 331.379 363.398 332.054H358.776H358.17H353.548C332.974 331.379 337.527 300.198 337.527 300.198Z" fill="white" stroke="#1A1A1A" stroke-width="1.99407" stroke-miterlimit="10" stroke-linecap="round" stroke-linejoin="round"/>
<path d="M358.462 305.214C346.888 305.214 337.506 302.837 337.506 299.905C337.506 296.973 346.888 294.597 358.462 294.597C370.035 294.597 379.417 296.973 379.417 299.905C379.417 302.837 370.035 305.214 358.462 305.214Z" fill="#1A1A1A" stroke="#1A1A1A" stroke-width="1.99407" stroke-miterlimit="10" stroke-linecap="round" stroke-linejoin="round"/>
<path d="M564.432 305.214C567.733 324.399 566.855 360.839 532.211 407.559C509.865 437.699 487.887 467.094 462.776 488.73C447.708 486.239 436.24 472.869 428.371 459.498C422.741 450.216 419.623 440.095 418.521 429.532C443.543 394.179 469.567 345.137 488.954 313.559C488.954 313.559 489.888 310.225 491.238 302.599" fill="#07689F"/>
<path d="M564.432 305.214C567.733 324.399 566.855 360.839 532.211 407.559C509.865 437.699 487.887 467.094 462.776 488.73C447.708 486.239 436.24 472.869 428.371 459.498C422.741 450.216 419.623 440.095 418.521 429.532C443.543 394.179 469.567 345.137 488.954 313.559C488.954 313.559 489.888 310.225 491.238 302.599" stroke="#1A1A1A" stroke-width="1.99407" stroke-miterlimit="10" stroke-linecap="round" stroke-linejoin="round"/>
<path d="M241.634 456.104C241.634 456.104 224.878 442.957 206.777 456.104C199.976 461.329 199.469 468.746 199.469 468.746C199.469 468.746 219.536 480.544 231.005 477.512C242.478 474.476 241.634 456.104 241.634 456.104Z" fill="white" stroke="#1A1A1A" stroke-width="1.99407" stroke-miterlimit="10" stroke-linecap="round" stroke-linejoin="round"/>
<path d="M211.281 457.787C211.281 457.787 206.078 457.628 203.899 458.833C205.8 455.807 207.369 455.351 207.369 455.351L214.091 455.43L211.281 457.787Z" fill="#1A1A1A" stroke="#1A1A1A" stroke-width="1.99407" stroke-miterlimit="10" stroke-linecap="round" stroke-linejoin="round"/>
<path d="M217.124 453.182C217.63 448.97 223.642 442 229.039 438.795C234.436 435.59 252.368 436.145 254.9 437.832C257.432 439.519 267.604 452.061 269.968 454.586C269.968 454.586 363.427 480.375 393.617 458.124C400.677 452.924 409.246 442.635 418.515 429.537C419.617 440.095 422.735 450.216 428.365 459.503C436.234 472.874 447.702 486.239 462.77 488.735C429.323 517.55 390.301 532.592 337.422 517.287C278.229 496.053 271.144 483.411 264.566 483.411C258.4 483.411 236.228 481.486 230.975 475.275C230.623 474.863 230.35 474.426 230.161 473.975C230.166 473.97 216.617 457.394 217.124 453.182Z" fill="white" stroke="#1A1A1A" stroke-width="1.99407" stroke-miterlimit="10" stroke-linecap="round" stroke-linejoin="round"/>
<path class="stroke-circle" d="M677.035 217.807C660.918 217.807 647.853 204.855 647.853 188.878C647.853 172.901 660.918 159.949 677.035 159.949C693.152 159.949 706.217 172.901 706.217 188.878C706.217 204.855 693.152 217.807 677.035 217.807Z" fill="white" stroke="#1A1A1A" stroke-width="1.99407" stroke-miterlimit="10" stroke-linecap="round" stroke-linejoin="round"/>
<path class="stroke-circle" d="M313.464 581.952C293.588 581.952 277.475 565.979 277.475 546.275C277.475 526.572 293.588 510.599 313.464 510.599C333.34 510.599 349.453 526.572 349.453 546.275C349.453 565.979 333.34 581.952 313.464 581.952Z" fill="white" stroke="#1A1A1A" stroke-width="1.99407" stroke-miterlimit="10" stroke-linecap="round" stroke-linejoin="round"/>
<path class="stroke-circle" d="M59.5397 87.3655C67.2407 87.3655 73.4837 81.1172 73.4837 73.4096C73.4837 65.7019 67.2407 59.4536 59.5397 59.4536C51.8386 59.4536 45.5957 65.7019 45.5957 73.4096C45.5957 81.1172 51.8386 87.3655 59.5397 87.3655Z" fill="#07689F" stroke="#1A1A1A" stroke-width="6.97923" stroke-miterlimit="10" stroke-linecap="round" stroke-linejoin="round"/>
<path fill-rule="evenodd" clip-rule="evenodd" d="M54.2618 248.134L46.3107 187.706C45.9284 184.779 47.2689 182.755 48.103 181.812C49.5328 180.185 51.5683 179.252 53.6931 179.252C53.9811 179.252 54.2789 179.262 54.5768 179.302L261.603 202.545C265.282 202.962 268.082 205.949 268.251 209.645L272.628 294.249C272.468 294.033 272.307 293.821 272.146 293.611L272.543 302.353H62.2915L54.9489 248.504C54.7307 248.378 54.5022 248.255 54.2618 248.134Z" fill="white"/>
<path class="bar bar1" d="M73.6792 275.407L91.896 436.329L106.318 426.461L88.1008 271.612L73.6792 275.407Z" fill="#1A1A1A"/>
<path class="bar bar2" d="M119.98 417.352L106.318 275.407L116.944 270.853L133.643 407.484L119.98 417.352Z" fill="#1A1A1A"/>
<path class="bar bar3" d="M149.582 396.857L133.643 253.394L149.582 248.46L164.383 386.23L149.582 396.857Z" fill="#1A1A1A"/>
<path class="bar bar4" d="M178.046 377.122L166.281 264.78L180.703 259.846L192.468 366.874L178.046 377.122Z" fill="#1A1A1A"/>
<path  class="bar bar5" d="M206.889 358.145L199.299 275.407L213.721 270.094L220.931 347.898L206.889 358.145Z" fill="#1A1A1A"/>
<path class="bar bar6" d="M235.732 337.65L228.522 264.78L244.461 256.051L250.154 327.783L235.732 337.65Z" fill="#1A1A1A"/>
</g>
<defs>
<clipPath id="clip0_1129_25429">
<rect width="705.899" height="620.155" fill="white" transform="matrix(-1 0 0 1 706.709 0.246582)"/>
</clipPath>
</defs>
<style>
.outer-line{
  stroke-dasharray: 1000;
  stroke-dashoffset: 1000;
  animation: line 2s linear forwards infinite;
}

@keyframes line {
  to {
    stroke-dashoffset: 0;
  }
}

.bar{
  animation: bar_fill 2s ease-in-out forwards infinite;
}

@keyframes bar_fill {
  0% {
    fill:#fff;
  }
  100%{
    fill:#1a1a1a;
  }
}

.bar1{
  animation-delay:0.2s;
}
.bar2{
  animation-delay:0.4s;
}
.bar3{
  animation-delay:0.6s;
}
.bar4{
  animation-delay:0.8s;
}
.bar5{
  animation-delay:1s;
}
.bar6{
  animation-delay:1.2s;
}

.red-stroke{
  stroke-dasharray: 1000;
  stroke-dashoffset: 1000;
  animation: redline 2s linear forwards infinite;
}

@keyframes redline {
  to {
    stroke-dashoffset: 0;
  }
}

.stroke-circle{
  stroke-dasharray: 1000;
  stroke-dashoffset: 1000;
  animation: sCircle 2s ease-in-out forwards infinite;
}

@keyframes sCircle {
  to {
    stroke-dashoffset: 0;
  }
}
</style>
</svg>
